<svg width="1080" height="247" viewBox="0 0 1080 247" fill="none" xmlns="http://www.w3.org/2000/svg">
<g clip-path="url(#clip0_726_74)">
<rect width="1080" height="247" rx="32" fill="#1F1F24"/>
<g opacity="0.6">
<ellipse opacity="0.7" cx="406.5" cy="-52" rx="347.5" ry="281" fill="url(#paint0_radial_726_74)"/>
<ellipse opacity="0.7" cx="45.8513" cy="410.766" rx="300.101" ry="490.769" transform="rotate(29.0906 45.8513 410.766)" fill="url(#paint1_radial_726_74)"/>
<ellipse opacity="0.7" cx="936.084" cy="416.988" rx="501.394" ry="531.613" transform="rotate(5.98411 936.084 416.988)" fill="url(#paint2_radial_726_74)"/>
</g>
<g clip-path="url(#clip1_726_74)">
<path d="M994.017 144.981H985.84L995.808 135H981.82L971.912 144.978H957.99L948.075 135H934.087L944.058 144.985L924.078 164.991L934.07 174.995H905.927L895.992 164.991L905.927 154.986H920.025L930.003 144.985L920.085 135H906.097L916.065 144.981H901.983L882 164.991L901.983 185H951.942L971.925 164.991L961.933 154.986H990.077L1000.01 164.991L990.077 174.995H975.978L965.997 185H994.017L1014 164.991L994.017 144.981ZM948.002 174.995L938.067 164.991L948.002 154.986L957.937 164.991L948.002 174.995Z" fill="white"/>
</g>
<path d="M77.1023 135H61.2841L85.3864 65.1818H104.409L128.477 135H112.659L95.1705 81.1364H94.625L77.1023 135ZM76.1136 107.557H113.477V119.08H76.1136V107.557ZM170.188 112.705V82.6364H184.71V135H170.767V125.489H170.222C169.04 128.557 167.074 131.023 164.324 132.886C161.597 134.75 158.267 135.682 154.335 135.682C150.835 135.682 147.756 134.886 145.097 133.295C142.438 131.705 140.358 129.443 138.858 126.511C137.381 123.58 136.631 120.068 136.608 115.977V82.6364H151.131V113.386C151.153 116.477 151.983 118.92 153.619 120.716C155.256 122.511 157.449 123.409 160.199 123.409C161.949 123.409 163.585 123.011 165.108 122.216C166.631 121.398 167.858 120.193 168.79 118.602C169.744 117.011 170.21 115.045 170.188 112.705ZM224.179 82.6364V93.5455H192.645V82.6364H224.179ZM199.804 70.0909H214.327V118.909C214.327 120.25 214.531 121.295 214.94 122.045C215.349 122.773 215.918 123.284 216.645 123.58C217.395 123.875 218.259 124.023 219.236 124.023C219.918 124.023 220.599 123.966 221.281 123.852C221.963 123.716 222.486 123.614 222.849 123.545L225.134 134.352C224.406 134.58 223.384 134.841 222.065 135.136C220.747 135.455 219.145 135.648 217.259 135.716C213.759 135.852 210.69 135.386 208.054 134.318C205.44 133.25 203.406 131.591 201.952 129.341C200.497 127.091 199.781 124.25 199.804 120.818V70.0909ZM249.287 104.727V135H234.764V65.1818H248.878V91.875H249.491C250.673 88.7841 252.582 86.3636 255.219 84.6136C257.855 82.8409 261.162 81.9545 265.139 81.9545C268.776 81.9545 271.946 82.75 274.651 84.3409C277.378 85.9091 279.491 88.1705 280.991 91.125C282.514 94.0568 283.264 97.5682 283.241 101.659V135H268.719V104.25C268.741 101.023 267.923 98.5114 266.264 96.7159C264.628 94.9205 262.332 94.0227 259.378 94.0227C257.401 94.0227 255.651 94.4432 254.128 95.2841C252.628 96.125 251.446 97.3523 250.582 98.9659C249.741 100.557 249.31 102.477 249.287 104.727ZM318.33 136.023C313.034 136.023 308.455 134.898 304.591 132.648C300.75 130.375 297.784 127.216 295.693 123.17C293.602 119.102 292.557 114.386 292.557 109.023C292.557 103.614 293.602 98.8864 295.693 94.8409C297.784 90.7727 300.75 87.6136 304.591 85.3636C308.455 83.0909 313.034 81.9545 318.33 81.9545C323.625 81.9545 328.193 83.0909 332.034 85.3636C335.898 87.6136 338.875 90.7727 340.966 94.8409C343.057 98.8864 344.102 103.614 344.102 109.023C344.102 114.386 343.057 119.102 340.966 123.17C338.875 127.216 335.898 130.375 332.034 132.648C328.193 134.898 323.625 136.023 318.33 136.023ZM318.398 124.773C320.807 124.773 322.818 124.091 324.432 122.727C326.045 121.341 327.261 119.455 328.08 117.068C328.92 114.682 329.341 111.966 329.341 108.92C329.341 105.875 328.92 103.159 328.08 100.773C327.261 98.3864 326.045 96.5 324.432 95.1136C322.818 93.7273 320.807 93.0341 318.398 93.0341C315.966 93.0341 313.92 93.7273 312.261 95.1136C310.625 96.5 309.386 98.3864 308.545 100.773C307.727 103.159 307.318 105.875 307.318 108.92C307.318 111.966 307.727 114.682 308.545 117.068C309.386 119.455 310.625 121.341 312.261 122.727C313.92 124.091 315.966 124.773 318.398 124.773ZM353.545 135V82.6364H367.625V91.7727H368.17C369.125 88.5227 370.727 86.0682 372.977 84.4091C375.227 82.7273 377.818 81.8864 380.75 81.8864C381.477 81.8864 382.261 81.9318 383.102 82.0227C383.943 82.1136 384.682 82.2386 385.318 82.3977V95.2841C384.636 95.0795 383.693 94.8977 382.489 94.7386C381.284 94.5795 380.182 94.5 379.182 94.5C377.045 94.5 375.136 94.9659 373.455 95.8977C371.795 96.8068 370.477 98.0795 369.5 99.7159C368.545 101.352 368.068 103.239 368.068 105.375V135H353.545ZM436.395 97.5682L423.099 98.3864C422.872 97.25 422.384 96.2273 421.634 95.3182C420.884 94.3864 419.895 93.6477 418.668 93.1023C417.463 92.5341 416.02 92.25 414.338 92.25C412.088 92.25 410.19 92.7273 408.645 93.6818C407.099 94.6136 406.327 95.8636 406.327 97.4318C406.327 98.6818 406.827 99.7386 407.827 100.602C408.827 101.466 410.543 102.159 412.974 102.682L422.452 104.591C427.543 105.636 431.338 107.318 433.838 109.636C436.338 111.955 437.588 115 437.588 118.773C437.588 122.205 436.577 125.216 434.554 127.807C432.554 130.398 429.804 132.42 426.304 133.875C422.827 135.307 418.815 136.023 414.27 136.023C407.338 136.023 401.815 134.58 397.702 131.693C393.611 128.784 391.213 124.83 390.509 119.83L404.793 119.08C405.224 121.193 406.27 122.807 407.929 123.92C409.588 125.011 411.713 125.557 414.304 125.557C416.849 125.557 418.895 125.068 420.44 124.091C422.009 123.091 422.804 121.807 422.827 120.239C422.804 118.92 422.247 117.841 421.156 117C420.065 116.136 418.384 115.477 416.111 115.023L407.043 113.216C401.929 112.193 398.122 110.42 395.622 107.898C393.145 105.375 391.906 102.159 391.906 98.25C391.906 94.8864 392.815 91.9886 394.634 89.5568C396.474 87.125 399.054 85.25 402.372 83.9318C405.713 82.6136 409.622 81.9545 414.099 81.9545C420.713 81.9545 425.918 83.3523 429.713 86.1477C433.531 88.9432 435.759 92.75 436.395 97.5682Z" fill="white"/>
<path d="M61.8182 185V161.727H69.9545C71.5758 161.727 72.9129 162.008 73.9659 162.568C75.0189 163.121 75.803 163.867 76.3182 164.807C76.8333 165.739 77.0909 166.773 77.0909 167.909C77.0909 168.909 76.9129 169.735 76.5568 170.386C76.2083 171.038 75.7462 171.553 75.1705 171.932C74.6023 172.311 73.9848 172.591 73.3182 172.773V173C74.0303 173.045 74.7462 173.295 75.4659 173.75C76.1856 174.205 76.7879 174.856 77.2727 175.705C77.7576 176.553 78 177.591 78 178.818C78 179.985 77.7348 181.034 77.2045 181.966C76.6742 182.898 75.8371 183.636 74.6932 184.182C73.5492 184.727 72.0606 185 70.2273 185H61.8182ZM64.6364 182.5H70.2273C72.0682 182.5 73.375 182.144 74.1477 181.432C74.928 180.712 75.3182 179.841 75.3182 178.818C75.3182 178.03 75.1174 177.303 74.7159 176.636C74.3144 175.962 73.7424 175.424 73 175.023C72.2576 174.614 71.3788 174.409 70.3636 174.409H64.6364V182.5ZM64.6364 171.955H69.8636C70.7121 171.955 71.4773 171.788 72.1591 171.455C72.8485 171.121 73.3939 170.652 73.7955 170.045C74.2045 169.439 74.4091 168.727 74.4091 167.909C74.4091 166.886 74.053 166.019 73.3409 165.307C72.6288 164.587 71.5 164.227 69.9545 164.227H64.6364V171.955ZM83.5852 185H80.6307L89.1761 161.727H92.0852L100.631 185H97.6761L90.7216 165.409H90.5398L83.5852 185ZM84.6761 175.909H96.5852V178.409H84.6761V175.909ZM121.889 169H119.071C118.904 168.189 118.613 167.477 118.196 166.864C117.787 166.25 117.287 165.735 116.696 165.318C116.113 164.894 115.465 164.576 114.753 164.364C114.041 164.152 113.298 164.045 112.526 164.045C111.116 164.045 109.84 164.402 108.696 165.114C107.56 165.826 106.654 166.875 105.98 168.261C105.313 169.648 104.98 171.348 104.98 173.364C104.98 175.379 105.313 177.08 105.98 178.466C106.654 179.852 107.56 180.902 108.696 181.614C109.84 182.326 111.116 182.682 112.526 182.682C113.298 182.682 114.041 182.576 114.753 182.364C115.465 182.152 116.113 181.837 116.696 181.42C117.287 180.996 117.787 180.477 118.196 179.864C118.613 179.242 118.904 178.53 119.071 177.727H121.889C121.677 178.917 121.291 179.981 120.73 180.92C120.17 181.86 119.473 182.659 118.639 183.318C117.806 183.97 116.87 184.466 115.832 184.807C114.802 185.148 113.7 185.318 112.526 185.318C110.541 185.318 108.776 184.833 107.23 183.864C105.685 182.894 104.469 181.515 103.582 179.727C102.696 177.939 102.253 175.818 102.253 173.364C102.253 170.909 102.696 168.788 103.582 167C104.469 165.212 105.685 163.833 107.23 162.864C108.776 161.894 110.541 161.409 112.526 161.409C113.7 161.409 114.802 161.58 115.832 161.92C116.87 162.261 117.806 162.761 118.639 163.42C119.473 164.072 120.17 164.867 120.73 165.807C121.291 166.739 121.677 167.803 121.889 169ZM126.443 185V161.727H129.261V173.273H129.534L139.989 161.727H143.67L133.898 172.227L143.67 185H140.261L132.17 174.182L129.261 177.455V185H126.443ZM147.318 185V161.727H161.364V164.227H150.136V172.091H160.636V174.591H150.136V182.5H161.545V185H147.318ZM184.898 161.727V185H182.17L169.489 166.727H169.261V185H166.443V161.727H169.17L181.898 180.045H182.125V161.727H184.898ZM197.719 185H190.537V161.727H198.037C200.295 161.727 202.226 162.193 203.832 163.125C205.438 164.049 206.67 165.379 207.526 167.114C208.382 168.841 208.81 170.909 208.81 173.318C208.81 175.742 208.378 177.83 207.514 179.58C206.651 181.322 205.393 182.663 203.741 183.602C202.09 184.534 200.082 185 197.719 185ZM193.355 182.5H197.537C199.461 182.5 201.056 182.129 202.321 181.386C203.586 180.644 204.529 179.587 205.151 178.216C205.772 176.845 206.082 175.212 206.082 173.318C206.082 171.439 205.776 169.822 205.162 168.466C204.548 167.102 203.632 166.057 202.412 165.33C201.192 164.595 199.673 164.227 197.855 164.227H193.355V182.5ZM228.991 180.909V165.909H231.537V180.909H228.991ZM222.764 174.682V172.136H237.764V174.682H222.764ZM252.631 185V161.727H266.585V164.227H255.449V172.091H265.54V174.591H255.449V185H252.631ZM271.412 185V161.727H279.276C281.094 161.727 282.586 162.038 283.753 162.659C284.92 163.273 285.783 164.117 286.344 165.193C286.904 166.269 287.185 167.492 287.185 168.864C287.185 170.235 286.904 171.451 286.344 172.511C285.783 173.572 284.923 174.405 283.764 175.011C282.605 175.61 281.124 175.909 279.321 175.909H272.957V173.364H279.23C280.473 173.364 281.473 173.182 282.23 172.818C282.995 172.455 283.548 171.939 283.889 171.273C284.238 170.598 284.412 169.795 284.412 168.864C284.412 167.932 284.238 167.117 283.889 166.42C283.541 165.723 282.984 165.186 282.219 164.807C281.454 164.42 280.442 164.227 279.185 164.227H274.23V185H271.412ZM282.366 174.545L288.094 185H284.821L279.185 174.545H282.366ZM311.517 173.364C311.517 175.818 311.074 177.939 310.188 179.727C309.301 181.515 308.085 182.894 306.54 183.864C304.994 184.833 303.229 185.318 301.244 185.318C299.259 185.318 297.494 184.833 295.949 183.864C294.403 182.894 293.188 181.515 292.301 179.727C291.415 177.939 290.972 175.818 290.972 173.364C290.972 170.909 291.415 168.788 292.301 167C293.188 165.212 294.403 163.833 295.949 162.864C297.494 161.894 299.259 161.409 301.244 161.409C303.229 161.409 304.994 161.894 306.54 162.864C308.085 163.833 309.301 165.212 310.188 167C311.074 168.788 311.517 170.909 311.517 173.364ZM308.79 173.364C308.79 171.348 308.453 169.648 307.778 168.261C307.112 166.875 306.206 165.826 305.062 165.114C303.926 164.402 302.653 164.045 301.244 164.045C299.835 164.045 298.559 164.402 297.415 165.114C296.278 165.826 295.373 166.875 294.699 168.261C294.032 169.648 293.699 171.348 293.699 173.364C293.699 175.379 294.032 177.08 294.699 178.466C295.373 179.852 296.278 180.902 297.415 181.614C298.559 182.326 299.835 182.682 301.244 182.682C302.653 182.682 303.926 182.326 305.062 181.614C306.206 180.902 307.112 179.852 307.778 178.466C308.453 177.08 308.79 175.379 308.79 173.364ZM334.71 161.727V185H331.983L319.301 166.727H319.074V185H316.256V161.727H318.983L331.71 180.045H331.938V161.727H334.71ZM339.077 164.227V161.727H356.531V164.227H349.213V185H346.395V164.227H339.077ZM360.881 185V161.727H374.926V164.227H363.699V172.091H374.199V174.591H363.699V182.5H375.108V185H360.881ZM398.46 161.727V185H395.733L383.051 166.727H382.824V185H380.006V161.727H382.733L395.46 180.045H395.688V161.727H398.46ZM411.281 185H404.099V161.727H411.599C413.857 161.727 415.789 162.193 417.395 163.125C419.001 164.049 420.232 165.379 421.088 167.114C421.944 168.841 422.372 170.909 422.372 173.318C422.372 175.742 421.94 177.83 421.077 179.58C420.213 181.322 418.955 182.663 417.304 183.602C415.652 184.534 413.645 185 411.281 185ZM406.918 182.5H411.099C413.024 182.5 414.618 182.129 415.884 181.386C417.149 180.644 418.092 179.587 418.713 178.216C419.334 176.845 419.645 175.212 419.645 173.318C419.645 171.439 419.338 169.822 418.724 168.466C418.111 167.102 417.194 166.057 415.974 165.33C414.755 164.595 413.236 164.227 411.418 164.227H406.918V182.5Z" fill="white"/>
</g>
<rect x="1" y="1" width="1078" height="245" rx="31" stroke="#CFCFE7" stroke-opacity="0.1" stroke-width="2"/>
<defs>
<radialGradient id="paint0_radial_726_74" cx="0" cy="0" r="1" gradientUnits="userSpaceOnUse" gradientTransform="translate(406.5 -52) rotate(90) scale(281 347.5)">
<stop stop-color="#AF71FF"/>
<stop offset="1" stop-color="#4C3F78" stop-opacity="0"/>
</radialGradient>
<radialGradient id="paint1_radial_726_74" cx="0" cy="0" r="1" gradientUnits="userSpaceOnUse" gradientTransform="translate(45.8513 410.766) rotate(90) scale(490.769 300.101)">
<stop stop-color="#AF71FF"/>
<stop offset="1" stop-color="#4C3F78" stop-opacity="0"/>
</radialGradient>
<radialGradient id="paint2_radial_726_74" cx="0" cy="0" r="1" gradientUnits="userSpaceOnUse" gradientTransform="translate(936.084 416.988) rotate(90) scale(531.613 501.394)">
<stop stop-color="#AF71FF"/>
<stop offset="1" stop-color="#4C3F78" stop-opacity="0"/>
</radialGradient>
<clipPath id="clip0_726_74">
<rect width="1080" height="247" rx="32" fill="white"/>
</clipPath>
<clipPath id="clip1_726_74">
<rect width="132" height="50" fill="white" transform="translate(882 135)"/>
</clipPath>
</defs>
</svg>
