<svg width="1080" height="247" viewBox="0 0 1080 247" fill="none" xmlns="http://www.w3.org/2000/svg">
<g clip-path="url(#clip0_730_348)">
<rect width="1080" height="247" rx="32" fill="#1F1F24"/>
<g opacity="0.6">
<ellipse opacity="0.7" cx="406.5" cy="-52" rx="347.5" ry="281" fill="url(#paint0_radial_730_348)"/>
<ellipse opacity="0.7" cx="45.8513" cy="410.766" rx="300.101" ry="490.769" transform="rotate(29.0906 45.8513 410.766)" fill="url(#paint1_radial_730_348)"/>
<ellipse opacity="0.7" cx="936.084" cy="416.988" rx="501.394" ry="531.613" transform="rotate(5.98411 936.084 416.988)" fill="url(#paint2_radial_730_348)"/>
</g>
<g clip-path="url(#clip1_730_348)">
<path d="M994.017 144.981H985.84L995.808 135H981.82L971.912 144.978H957.99L948.075 135H934.087L944.058 144.985L924.078 164.991L934.07 174.995H905.927L895.992 164.991L905.927 154.986H920.025L930.003 144.985L920.085 135H906.097L916.065 144.981H901.983L882 164.991L901.983 185H951.942L971.925 164.991L961.933 154.986H990.077L1000.01 164.991L990.077 174.995H975.978L965.997 185H994.017L1014 164.991L994.017 144.981ZM948.002 174.995L938.067 164.991L948.002 154.986L957.937 164.991L948.002 174.995Z" fill="white"/>
</g>
<path d="M126.67 89.625H111.739C111.466 87.6932 110.909 85.9773 110.068 84.4773C109.227 82.9545 108.148 81.6591 106.83 80.5909C105.511 79.5227 103.989 78.7045 102.261 78.1364C100.557 77.5682 98.7045 77.2841 96.7045 77.2841C93.0909 77.2841 89.9432 78.1818 87.2614 79.9773C84.5795 81.75 82.5 84.3409 81.0227 87.75C79.5455 91.1364 78.8068 95.25 78.8068 100.091C78.8068 105.068 79.5455 109.25 81.0227 112.636C82.5227 116.023 84.6136 118.58 87.2955 120.307C89.9773 122.034 93.0795 122.898 96.6023 122.898C98.5795 122.898 100.409 122.636 102.091 122.114C103.795 121.591 105.307 120.83 106.625 119.83C107.943 118.807 109.034 117.568 109.898 116.114C110.784 114.659 111.398 113 111.739 111.136L126.67 111.205C126.284 114.409 125.318 117.5 123.773 120.477C122.25 123.432 120.193 126.08 117.602 128.42C115.034 130.739 111.966 132.58 108.398 133.943C104.852 135.284 100.841 135.955 96.3636 135.955C90.1364 135.955 84.5682 134.545 79.6591 131.727C74.7727 128.909 70.9091 124.83 68.0682 119.489C65.25 114.148 63.8409 107.682 63.8409 100.091C63.8409 92.4773 65.2727 86 68.1364 80.6591C71 75.3182 74.8864 71.25 79.7955 68.4545C84.7045 65.6364 90.2273 64.2273 96.3636 64.2273C100.409 64.2273 104.159 64.7955 107.614 65.9318C111.091 67.0682 114.17 68.7273 116.852 70.9091C119.534 73.0682 121.716 75.7159 123.398 78.8523C125.102 81.9886 126.193 85.5795 126.67 89.625ZM160.642 136.023C155.347 136.023 150.767 134.898 146.903 132.648C143.063 130.375 140.097 127.216 138.006 123.17C135.915 119.102 134.869 114.386 134.869 109.023C134.869 103.614 135.915 98.8864 138.006 94.8409C140.097 90.7727 143.063 87.6136 146.903 85.3636C150.767 83.0909 155.347 81.9545 160.642 81.9545C165.938 81.9545 170.506 83.0909 174.347 85.3636C178.21 87.6136 181.188 90.7727 183.278 94.8409C185.369 98.8864 186.415 103.614 186.415 109.023C186.415 114.386 185.369 119.102 183.278 123.17C181.188 127.216 178.21 130.375 174.347 132.648C170.506 134.898 165.938 136.023 160.642 136.023ZM160.71 124.773C163.119 124.773 165.131 124.091 166.744 122.727C168.358 121.341 169.574 119.455 170.392 117.068C171.233 114.682 171.653 111.966 171.653 108.92C171.653 105.875 171.233 103.159 170.392 100.773C169.574 98.3864 168.358 96.5 166.744 95.1136C165.131 93.7273 163.119 93.0341 160.71 93.0341C158.278 93.0341 156.233 93.7273 154.574 95.1136C152.938 96.5 151.699 98.3864 150.858 100.773C150.04 103.159 149.631 105.875 149.631 108.92C149.631 111.966 150.04 114.682 150.858 117.068C151.699 119.455 152.938 121.341 154.574 122.727C156.233 124.091 158.278 124.773 160.71 124.773ZM210.381 104.727V135H195.858V82.6364H209.699V91.875H210.312C211.472 88.8295 213.415 86.4205 216.142 84.6477C218.869 82.8523 222.176 81.9545 226.062 81.9545C229.699 81.9545 232.869 82.75 235.574 84.3409C238.278 85.9318 240.381 88.2045 241.881 91.1591C243.381 94.0909 244.131 97.5909 244.131 101.659V135H229.608V104.25C229.631 101.045 228.813 98.5455 227.153 96.75C225.494 94.9318 223.21 94.0227 220.301 94.0227C218.347 94.0227 216.619 94.4432 215.119 95.2841C213.642 96.125 212.483 97.3523 211.642 98.9659C210.824 100.557 210.403 102.477 210.381 104.727ZM283.429 82.6364V93.5455H251.895V82.6364H283.429ZM259.054 70.0909H273.577V118.909C273.577 120.25 273.781 121.295 274.19 122.045C274.599 122.773 275.168 123.284 275.895 123.58C276.645 123.875 277.509 124.023 278.486 124.023C279.168 124.023 279.849 123.966 280.531 123.852C281.213 123.716 281.736 123.614 282.099 123.545L284.384 134.352C283.656 134.58 282.634 134.841 281.315 135.136C279.997 135.455 278.395 135.648 276.509 135.716C273.009 135.852 269.94 135.386 267.304 134.318C264.69 133.25 262.656 131.591 261.202 129.341C259.747 127.091 259.031 124.25 259.054 120.818V70.0909ZM292.889 135V82.6364H306.969V91.7727H307.514C308.469 88.5227 310.071 86.0682 312.321 84.4091C314.571 82.7273 317.162 81.8864 320.094 81.8864C320.821 81.8864 321.605 81.9318 322.446 82.0227C323.287 82.1136 324.026 82.2386 324.662 82.3977V95.2841C323.98 95.0795 323.037 94.8977 321.832 94.7386C320.628 94.5795 319.526 94.5 318.526 94.5C316.389 94.5 314.48 94.9659 312.798 95.8977C311.139 96.8068 309.821 98.0795 308.844 99.7159C307.889 101.352 307.412 103.239 307.412 105.375V135H292.889ZM332.17 135V82.6364H346.693V135H332.17ZM339.466 75.8864C337.307 75.8864 335.455 75.1705 333.909 73.7386C332.386 72.2841 331.625 70.5455 331.625 68.5227C331.625 66.5227 332.386 64.8068 333.909 63.375C335.455 61.9205 337.307 61.1932 339.466 61.1932C341.625 61.1932 343.466 61.9205 344.989 63.375C346.534 64.8068 347.307 66.5227 347.307 68.5227C347.307 70.5455 346.534 72.2841 344.989 73.7386C343.466 75.1705 341.625 75.8864 339.466 75.8864ZM358.599 135V65.1818H373.122V91.4318H373.565C374.202 90.0227 375.122 88.5909 376.327 87.1364C377.554 85.6591 379.145 84.4318 381.099 83.4545C383.077 82.4545 385.531 81.9545 388.463 81.9545C392.281 81.9545 395.804 82.9545 399.031 84.9545C402.259 86.9318 404.838 89.9205 406.77 93.9205C408.702 97.8977 409.668 102.886 409.668 108.886C409.668 114.727 408.724 119.659 406.838 123.682C404.974 127.682 402.429 130.716 399.202 132.784C395.997 134.83 392.406 135.852 388.429 135.852C385.611 135.852 383.213 135.386 381.236 134.455C379.281 133.523 377.679 132.352 376.429 130.943C375.179 129.511 374.224 128.068 373.565 126.614H372.918V135H358.599ZM372.815 108.818C372.815 111.932 373.247 114.648 374.111 116.966C374.974 119.284 376.224 121.091 377.861 122.386C379.497 123.659 381.486 124.295 383.827 124.295C386.19 124.295 388.19 123.648 389.827 122.352C391.463 121.034 392.702 119.216 393.543 116.898C394.406 114.557 394.838 111.864 394.838 108.818C394.838 105.795 394.418 103.136 393.577 100.841C392.736 98.5455 391.497 96.75 389.861 95.4545C388.224 94.1591 386.213 93.5114 383.827 93.5114C381.463 93.5114 379.463 94.1364 377.827 95.3864C376.213 96.6364 374.974 98.4091 374.111 100.705C373.247 103 372.815 105.705 372.815 108.818ZM452.938 112.705V82.6364H467.46V135H453.517V125.489H452.972C451.79 128.557 449.824 131.023 447.074 132.886C444.347 134.75 441.017 135.682 437.085 135.682C433.585 135.682 430.506 134.886 427.847 133.295C425.188 131.705 423.108 129.443 421.608 126.511C420.131 123.58 419.381 120.068 419.358 115.977V82.6364H433.881V113.386C433.903 116.477 434.733 118.92 436.369 120.716C438.006 122.511 440.199 123.409 442.949 123.409C444.699 123.409 446.335 123.011 447.858 122.216C449.381 121.398 450.608 120.193 451.54 118.602C452.494 117.011 452.96 115.045 452.938 112.705ZM506.929 82.6364V93.5455H475.395V82.6364H506.929ZM482.554 70.0909H497.077V118.909C497.077 120.25 497.281 121.295 497.69 122.045C498.099 122.773 498.668 123.284 499.395 123.58C500.145 123.875 501.009 124.023 501.986 124.023C502.668 124.023 503.349 123.966 504.031 123.852C504.713 123.716 505.236 123.614 505.599 123.545L507.884 134.352C507.156 134.58 506.134 134.841 504.815 135.136C503.497 135.455 501.895 135.648 500.009 135.716C496.509 135.852 493.44 135.386 490.804 134.318C488.19 133.25 486.156 131.591 484.702 129.341C483.247 127.091 482.531 124.25 482.554 120.818V70.0909ZM516.389 135V82.6364H530.912V135H516.389ZM523.685 75.8864C521.526 75.8864 519.673 75.1705 518.128 73.7386C516.605 72.2841 515.844 70.5455 515.844 68.5227C515.844 66.5227 516.605 64.8068 518.128 63.375C519.673 61.9205 521.526 61.1932 523.685 61.1932C525.844 61.1932 527.685 61.9205 529.207 63.375C530.753 64.8068 531.526 66.5227 531.526 68.5227C531.526 70.5455 530.753 72.2841 529.207 73.7386C527.685 75.1705 525.844 75.8864 523.685 75.8864ZM557.068 104.727V135H542.545V82.6364H556.386V91.875H557C558.159 88.8295 560.102 86.4205 562.83 84.6477C565.557 82.8523 568.864 81.9545 572.75 81.9545C576.386 81.9545 579.557 82.75 582.261 84.3409C584.966 85.9318 587.068 88.2045 588.568 91.1591C590.068 94.0909 590.818 97.5909 590.818 101.659V135H576.295V104.25C576.318 101.045 575.5 98.5455 573.841 96.75C572.182 94.9318 569.898 94.0227 566.989 94.0227C565.034 94.0227 563.307 94.4432 561.807 95.2841C560.33 96.125 559.17 97.3523 558.33 98.9659C557.511 100.557 557.091 102.477 557.068 104.727ZM625.855 155.727C621.151 155.727 617.116 155.08 613.753 153.784C610.412 152.511 607.753 150.773 605.776 148.568C603.798 146.364 602.514 143.886 601.923 141.136L615.355 139.33C615.764 140.375 616.412 141.352 617.298 142.261C618.185 143.17 619.355 143.898 620.81 144.443C622.287 145.011 624.082 145.295 626.196 145.295C629.355 145.295 631.957 144.523 634.003 142.977C636.071 141.455 637.105 138.898 637.105 135.307V125.727H636.491C635.855 127.182 634.901 128.557 633.628 129.852C632.355 131.148 630.719 132.205 628.719 133.023C626.719 133.841 624.332 134.25 621.56 134.25C617.628 134.25 614.048 133.341 610.821 131.523C607.616 129.682 605.06 126.875 603.151 123.102C601.264 119.307 600.321 114.511 600.321 108.716C600.321 102.784 601.287 97.8295 603.219 93.8523C605.151 89.875 607.719 86.8977 610.923 84.9205C614.151 82.9432 617.685 81.9545 621.526 81.9545C624.457 81.9545 626.912 82.4545 628.889 83.4545C630.866 84.4318 632.457 85.6591 633.662 87.1364C634.889 88.5909 635.832 90.0227 636.491 91.4318H637.037V82.6364H651.457V135.511C651.457 139.966 650.366 143.693 648.185 146.693C646.003 149.693 642.98 151.943 639.116 153.443C635.276 154.966 630.855 155.727 625.855 155.727ZM626.162 123.341C628.503 123.341 630.48 122.761 632.094 121.602C633.73 120.42 634.98 118.739 635.844 116.557C636.73 114.352 637.173 111.716 637.173 108.648C637.173 105.58 636.741 102.92 635.878 100.67C635.014 98.3977 633.764 96.6364 632.128 95.3864C630.491 94.1364 628.503 93.5114 626.162 93.5114C623.776 93.5114 621.764 94.1591 620.128 95.4545C618.491 96.7273 617.253 98.5 616.412 100.773C615.571 103.045 615.151 105.67 615.151 108.648C615.151 111.67 615.571 114.284 616.412 116.489C617.276 118.67 618.514 120.364 620.128 121.568C621.764 122.75 623.776 123.341 626.162 123.341Z" fill="white"/>
<path d="M61.8182 185V161.727H69.9545C71.5758 161.727 72.9129 162.008 73.9659 162.568C75.0189 163.121 75.803 163.867 76.3182 164.807C76.8333 165.739 77.0909 166.773 77.0909 167.909C77.0909 168.909 76.9129 169.735 76.5568 170.386C76.2083 171.038 75.7462 171.553 75.1705 171.932C74.6023 172.311 73.9848 172.591 73.3182 172.773V173C74.0303 173.045 74.7462 173.295 75.4659 173.75C76.1856 174.205 76.7879 174.856 77.2727 175.705C77.7576 176.553 78 177.591 78 178.818C78 179.985 77.7348 181.034 77.2045 181.966C76.6742 182.898 75.8371 183.636 74.6932 184.182C73.5492 184.727 72.0606 185 70.2273 185H61.8182ZM64.6364 182.5H70.2273C72.0682 182.5 73.375 182.144 74.1477 181.432C74.928 180.712 75.3182 179.841 75.3182 178.818C75.3182 178.03 75.1174 177.303 74.7159 176.636C74.3144 175.962 73.7424 175.424 73 175.023C72.2576 174.614 71.3788 174.409 70.3636 174.409H64.6364V182.5ZM64.6364 171.955H69.8636C70.7121 171.955 71.4773 171.788 72.1591 171.455C72.8485 171.121 73.3939 170.652 73.7955 170.045C74.2045 169.439 74.4091 168.727 74.4091 167.909C74.4091 166.886 74.053 166.019 73.3409 165.307C72.6288 164.587 71.5 164.227 69.9545 164.227H64.6364V171.955ZM83.5852 185H80.6307L89.1761 161.727H92.0852L100.631 185H97.6761L90.7216 165.409H90.5398L83.5852 185ZM84.6761 175.909H96.5852V178.409H84.6761V175.909ZM121.889 169H119.071C118.904 168.189 118.613 167.477 118.196 166.864C117.787 166.25 117.287 165.735 116.696 165.318C116.113 164.894 115.465 164.576 114.753 164.364C114.041 164.152 113.298 164.045 112.526 164.045C111.116 164.045 109.84 164.402 108.696 165.114C107.56 165.826 106.654 166.875 105.98 168.261C105.313 169.648 104.98 171.348 104.98 173.364C104.98 175.379 105.313 177.08 105.98 178.466C106.654 179.852 107.56 180.902 108.696 181.614C109.84 182.326 111.116 182.682 112.526 182.682C113.298 182.682 114.041 182.576 114.753 182.364C115.465 182.152 116.113 181.837 116.696 181.42C117.287 180.996 117.787 180.477 118.196 179.864C118.613 179.242 118.904 178.53 119.071 177.727H121.889C121.677 178.917 121.291 179.981 120.73 180.92C120.17 181.86 119.473 182.659 118.639 183.318C117.806 183.97 116.87 184.466 115.832 184.807C114.802 185.148 113.7 185.318 112.526 185.318C110.541 185.318 108.776 184.833 107.23 183.864C105.685 182.894 104.469 181.515 103.582 179.727C102.696 177.939 102.253 175.818 102.253 173.364C102.253 170.909 102.696 168.788 103.582 167C104.469 165.212 105.685 163.833 107.23 162.864C108.776 161.894 110.541 161.409 112.526 161.409C113.7 161.409 114.802 161.58 115.832 161.92C116.87 162.261 117.806 162.761 118.639 163.42C119.473 164.072 120.17 164.867 120.73 165.807C121.291 166.739 121.677 167.803 121.889 169ZM126.443 185V161.727H129.261V173.273H129.534L139.989 161.727H143.67L133.898 172.227L143.67 185H140.261L132.17 174.182L129.261 177.455V185H126.443ZM147.318 185V161.727H161.364V164.227H150.136V172.091H160.636V174.591H150.136V182.5H161.545V185H147.318ZM184.898 161.727V185H182.17L169.489 166.727H169.261V185H166.443V161.727H169.17L181.898 180.045H182.125V161.727H184.898ZM197.719 185H190.537V161.727H198.037C200.295 161.727 202.226 162.193 203.832 163.125C205.438 164.049 206.67 165.379 207.526 167.114C208.382 168.841 208.81 170.909 208.81 173.318C208.81 175.742 208.378 177.83 207.514 179.58C206.651 181.322 205.393 182.663 203.741 183.602C202.09 184.534 200.082 185 197.719 185ZM193.355 182.5H197.537C199.461 182.5 201.056 182.129 202.321 181.386C203.586 180.644 204.529 179.587 205.151 178.216C205.772 176.845 206.082 175.212 206.082 173.318C206.082 171.439 205.776 169.822 205.162 168.466C204.548 167.102 203.632 166.057 202.412 165.33C201.192 164.595 199.673 164.227 197.855 164.227H193.355V182.5ZM228.991 180.909V165.909H231.537V180.909H228.991ZM222.764 174.682V172.136H237.764V174.682H222.764ZM252.631 185V161.727H266.585V164.227H255.449V172.091H265.54V174.591H255.449V185H252.631ZM271.412 185V161.727H279.276C281.094 161.727 282.586 162.038 283.753 162.659C284.92 163.273 285.783 164.117 286.344 165.193C286.904 166.269 287.185 167.492 287.185 168.864C287.185 170.235 286.904 171.451 286.344 172.511C285.783 173.572 284.923 174.405 283.764 175.011C282.605 175.61 281.124 175.909 279.321 175.909H272.957V173.364H279.23C280.473 173.364 281.473 173.182 282.23 172.818C282.995 172.455 283.548 171.939 283.889 171.273C284.238 170.598 284.412 169.795 284.412 168.864C284.412 167.932 284.238 167.117 283.889 166.42C283.541 165.723 282.984 165.186 282.219 164.807C281.454 164.42 280.442 164.227 279.185 164.227H274.23V185H271.412ZM282.366 174.545L288.094 185H284.821L279.185 174.545H282.366ZM311.517 173.364C311.517 175.818 311.074 177.939 310.188 179.727C309.301 181.515 308.085 182.894 306.54 183.864C304.994 184.833 303.229 185.318 301.244 185.318C299.259 185.318 297.494 184.833 295.949 183.864C294.403 182.894 293.188 181.515 292.301 179.727C291.415 177.939 290.972 175.818 290.972 173.364C290.972 170.909 291.415 168.788 292.301 167C293.188 165.212 294.403 163.833 295.949 162.864C297.494 161.894 299.259 161.409 301.244 161.409C303.229 161.409 304.994 161.894 306.54 162.864C308.085 163.833 309.301 165.212 310.188 167C311.074 168.788 311.517 170.909 311.517 173.364ZM308.79 173.364C308.79 171.348 308.453 169.648 307.778 168.261C307.112 166.875 306.206 165.826 305.062 165.114C303.926 164.402 302.653 164.045 301.244 164.045C299.835 164.045 298.559 164.402 297.415 165.114C296.278 165.826 295.373 166.875 294.699 168.261C294.032 169.648 293.699 171.348 293.699 173.364C293.699 175.379 294.032 177.08 294.699 178.466C295.373 179.852 296.278 180.902 297.415 181.614C298.559 182.326 299.835 182.682 301.244 182.682C302.653 182.682 303.926 182.326 305.062 181.614C306.206 180.902 307.112 179.852 307.778 178.466C308.453 177.08 308.79 175.379 308.79 173.364ZM334.71 161.727V185H331.983L319.301 166.727H319.074V185H316.256V161.727H318.983L331.71 180.045H331.938V161.727H334.71ZM339.077 164.227V161.727H356.531V164.227H349.213V185H346.395V164.227H339.077ZM360.881 185V161.727H374.926V164.227H363.699V172.091H374.199V174.591H363.699V182.5H375.108V185H360.881ZM398.46 161.727V185H395.733L383.051 166.727H382.824V185H380.006V161.727H382.733L395.46 180.045H395.688V161.727H398.46ZM411.281 185H404.099V161.727H411.599C413.857 161.727 415.789 162.193 417.395 163.125C419.001 164.049 420.232 165.379 421.088 167.114C421.944 168.841 422.372 170.909 422.372 173.318C422.372 175.742 421.94 177.83 421.077 179.58C420.213 181.322 418.955 182.663 417.304 183.602C415.652 184.534 413.645 185 411.281 185ZM406.918 182.5H411.099C413.024 182.5 414.618 182.129 415.884 181.386C417.149 180.644 418.092 179.587 418.713 178.216C419.334 176.845 419.645 175.212 419.645 173.318C419.645 171.439 419.338 169.822 418.724 168.466C418.111 167.102 417.194 166.057 415.974 165.33C414.755 164.595 413.236 164.227 411.418 164.227H406.918V182.5Z" fill="white"/>
</g>
<defs>
<radialGradient id="paint0_radial_730_348" cx="0" cy="0" r="1" gradientUnits="userSpaceOnUse" gradientTransform="translate(406.5 -52) rotate(90) scale(281 347.5)">
<stop stop-color="#AF71FF"/>
<stop offset="1" stop-color="#4C3F78" stop-opacity="0"/>
</radialGradient>
<radialGradient id="paint1_radial_730_348" cx="0" cy="0" r="1" gradientUnits="userSpaceOnUse" gradientTransform="translate(45.8513 410.766) rotate(90) scale(490.769 300.101)">
<stop stop-color="#AF71FF"/>
<stop offset="1" stop-color="#4C3F78" stop-opacity="0"/>
</radialGradient>
<radialGradient id="paint2_radial_730_348" cx="0" cy="0" r="1" gradientUnits="userSpaceOnUse" gradientTransform="translate(936.084 416.988) rotate(90) scale(531.613 501.394)">
<stop stop-color="#AF71FF"/>
<stop offset="1" stop-color="#4C3F78" stop-opacity="0"/>
</radialGradient>
<clipPath id="clip0_730_348">
<rect width="1080" height="247" rx="32" fill="white"/>
</clipPath>
<clipPath id="clip1_730_348">
<rect width="132" height="50" fill="white" transform="translate(882 135)"/>
</clipPath>
</defs>
</svg>
