<svg width="1080" height="247" viewBox="0 0 1080 247" fill="none" xmlns="http://www.w3.org/2000/svg">
<g clip-path="url(#clip0_748_51)">
<rect width="1080" height="247" rx="32" fill="#1F1F24"/>
<g opacity="0.6">
<ellipse opacity="0.7" cx="406.5" cy="-52" rx="347.5" ry="281" fill="url(#paint0_radial_748_51)"/>
<ellipse opacity="0.7" cx="45.8513" cy="410.766" rx="300.101" ry="490.769" transform="rotate(29.0906 45.8513 410.766)" fill="url(#paint1_radial_748_51)"/>
<ellipse opacity="0.7" cx="936.084" cy="416.988" rx="501.394" ry="531.613" transform="rotate(5.98411 936.084 416.988)" fill="url(#paint2_radial_748_51)"/>
</g>
<g clip-path="url(#clip1_748_51)">
<path d="M994.017 144.981H985.84L995.808 135H981.82L971.912 144.978H957.99L948.075 135H934.087L944.058 144.985L924.078 164.991L934.07 174.995H905.927L895.992 164.991L905.927 154.986H920.025L930.003 144.985L920.085 135H906.097L916.065 144.981H901.983L882 164.991L901.983 185H951.942L971.925 164.991L961.933 154.986H990.077L1000.01 164.991L990.077 174.995H975.978L965.997 185H994.017L1014 164.991L994.017 144.981ZM948.002 174.995L938.067 164.991L948.002 154.986L957.937 164.991L948.002 174.995Z" fill="white"/>
</g>
<path d="M65.0682 135V65.1818H111.295V77.3523H79.8295V93.9886H108.227V106.159H79.8295V135H65.0682ZM140.972 136.023C135.585 136.023 130.949 134.932 127.062 132.75C123.199 130.545 120.222 127.432 118.131 123.409C116.04 119.364 114.994 114.58 114.994 109.057C114.994 103.67 116.04 98.9432 118.131 94.875C120.222 90.8068 123.165 87.6364 126.96 85.3636C130.778 83.0909 135.256 81.9545 140.392 81.9545C143.847 81.9545 147.063 82.5114 150.04 83.625C153.04 84.7159 155.653 86.3636 157.881 88.5682C160.131 90.7727 161.881 93.5455 163.131 96.8864C164.381 100.205 165.006 104.091 165.006 108.545V112.534H120.79V103.534H151.335C151.335 101.443 150.881 99.5909 149.972 97.9773C149.063 96.3636 147.801 95.1023 146.188 94.1932C144.597 93.2614 142.744 92.7955 140.631 92.7955C138.426 92.7955 136.472 93.3068 134.767 94.3295C133.085 95.3295 131.767 96.6818 130.812 98.3864C129.858 100.068 129.369 101.943 129.347 104.011V112.568C129.347 115.159 129.824 117.398 130.778 119.284C131.756 121.17 133.131 122.625 134.903 123.648C136.676 124.67 138.778 125.182 141.21 125.182C142.824 125.182 144.301 124.955 145.642 124.5C146.983 124.045 148.131 123.364 149.085 122.455C150.04 121.545 150.767 120.432 151.267 119.114L164.699 120C164.017 123.227 162.619 126.045 160.506 128.455C158.415 130.841 155.71 132.705 152.392 134.045C149.097 135.364 145.29 136.023 140.972 136.023ZM189.415 135.989C186.074 135.989 183.097 135.409 180.483 134.25C177.869 133.068 175.801 131.33 174.278 129.034C172.778 126.716 172.028 123.83 172.028 120.375C172.028 117.466 172.563 115.023 173.631 113.045C174.699 111.068 176.153 109.477 177.994 108.273C179.835 107.068 181.926 106.159 184.267 105.545C186.631 104.932 189.108 104.5 191.699 104.25C194.744 103.932 197.199 103.636 199.062 103.364C200.926 103.068 202.278 102.636 203.119 102.068C203.96 101.5 204.381 100.659 204.381 99.5455V99.3409C204.381 97.1818 203.699 95.5114 202.335 94.3295C200.994 93.1477 199.085 92.5568 196.608 92.5568C193.994 92.5568 191.915 93.1364 190.369 94.2955C188.824 95.4318 187.801 96.8636 187.301 98.5909L173.869 97.5C174.551 94.3182 175.892 91.5682 177.892 89.25C179.892 86.9091 182.472 85.1136 185.631 83.8636C188.813 82.5909 192.494 81.9545 196.676 81.9545C199.585 81.9545 202.369 82.2955 205.028 82.9773C207.71 83.6591 210.085 84.7159 212.153 86.1477C214.244 87.5795 215.892 89.4205 217.097 91.6705C218.301 93.8977 218.903 96.5682 218.903 99.6818V135H205.131V127.739H204.722C203.881 129.375 202.756 130.818 201.347 132.068C199.938 133.295 198.244 134.261 196.267 134.966C194.29 135.648 192.006 135.989 189.415 135.989ZM193.574 125.966C195.71 125.966 197.597 125.545 199.233 124.705C200.869 123.841 202.153 122.682 203.085 121.227C204.017 119.773 204.483 118.125 204.483 116.284V110.727C204.028 111.023 203.403 111.295 202.608 111.545C201.835 111.773 200.96 111.989 199.983 112.193C199.006 112.375 198.028 112.545 197.051 112.705C196.074 112.841 195.188 112.966 194.392 113.08C192.688 113.33 191.199 113.727 189.926 114.273C188.653 114.818 187.665 115.557 186.96 116.489C186.256 117.398 185.903 118.534 185.903 119.898C185.903 121.875 186.619 123.386 188.051 124.432C189.506 125.455 191.347 125.966 193.574 125.966ZM258.023 82.6364V93.5455H226.489V82.6364H258.023ZM233.648 70.0909H248.17V118.909C248.17 120.25 248.375 121.295 248.784 122.045C249.193 122.773 249.761 123.284 250.489 123.58C251.239 123.875 252.102 124.023 253.08 124.023C253.761 124.023 254.443 123.966 255.125 123.852C255.807 123.716 256.33 123.614 256.693 123.545L258.977 134.352C258.25 134.58 257.227 134.841 255.909 135.136C254.591 135.455 252.989 135.648 251.102 135.716C247.602 135.852 244.534 135.386 241.898 134.318C239.284 133.25 237.25 131.591 235.795 129.341C234.341 127.091 233.625 124.25 233.648 120.818V70.0909ZM301.062 112.705V82.6364H315.585V135H301.642V125.489H301.097C299.915 128.557 297.949 131.023 295.199 132.886C292.472 134.75 289.142 135.682 285.21 135.682C281.71 135.682 278.631 134.886 275.972 133.295C273.313 131.705 271.233 129.443 269.733 126.511C268.256 123.58 267.506 120.068 267.483 115.977V82.6364H282.006V113.386C282.028 116.477 282.858 118.92 284.494 120.716C286.131 122.511 288.324 123.409 291.074 123.409C292.824 123.409 294.46 123.011 295.983 122.216C297.506 121.398 298.733 120.193 299.665 118.602C300.619 117.011 301.085 115.045 301.062 112.705ZM327.202 135V82.6364H341.281V91.7727H341.827C342.781 88.5227 344.384 86.0682 346.634 84.4091C348.884 82.7273 351.474 81.8864 354.406 81.8864C355.134 81.8864 355.918 81.9318 356.759 82.0227C357.599 82.1136 358.338 82.2386 358.974 82.3977V95.2841C358.293 95.0795 357.349 94.8977 356.145 94.7386C354.94 94.5795 353.838 94.5 352.838 94.5C350.702 94.5 348.793 94.9659 347.111 95.8977C345.452 96.8068 344.134 98.0795 343.156 99.7159C342.202 101.352 341.724 103.239 341.724 105.375V135H327.202ZM387.909 136.023C382.523 136.023 377.886 134.932 374 132.75C370.136 130.545 367.159 127.432 365.068 123.409C362.977 119.364 361.932 114.58 361.932 109.057C361.932 103.67 362.977 98.9432 365.068 94.875C367.159 90.8068 370.102 87.6364 373.898 85.3636C377.716 83.0909 382.193 81.9545 387.33 81.9545C390.784 81.9545 394 82.5114 396.977 83.625C399.977 84.7159 402.591 86.3636 404.818 88.5682C407.068 90.7727 408.818 93.5455 410.068 96.8864C411.318 100.205 411.943 104.091 411.943 108.545V112.534H367.727V103.534H398.273C398.273 101.443 397.818 99.5909 396.909 97.9773C396 96.3636 394.739 95.1023 393.125 94.1932C391.534 93.2614 389.682 92.7955 387.568 92.7955C385.364 92.7955 383.409 93.3068 381.705 94.3295C380.023 95.3295 378.705 96.6818 377.75 98.3864C376.795 100.068 376.307 101.943 376.284 104.011V112.568C376.284 115.159 376.761 117.398 377.716 119.284C378.693 121.17 380.068 122.625 381.841 123.648C383.614 124.67 385.716 125.182 388.148 125.182C389.761 125.182 391.239 124.955 392.58 124.5C393.92 124.045 395.068 123.364 396.023 122.455C396.977 121.545 397.705 120.432 398.205 119.114L411.636 120C410.955 123.227 409.557 126.045 407.443 128.455C405.352 130.841 402.648 132.705 399.33 134.045C396.034 135.364 392.227 136.023 387.909 136.023ZM464.989 97.5682L451.693 98.3864C451.466 97.25 450.977 96.2273 450.227 95.3182C449.477 94.3864 448.489 93.6477 447.261 93.1023C446.057 92.5341 444.614 92.25 442.932 92.25C440.682 92.25 438.784 92.7273 437.239 93.6818C435.693 94.6136 434.92 95.8636 434.92 97.4318C434.92 98.6818 435.42 99.7386 436.42 100.602C437.42 101.466 439.136 102.159 441.568 102.682L451.045 104.591C456.136 105.636 459.932 107.318 462.432 109.636C464.932 111.955 466.182 115 466.182 118.773C466.182 122.205 465.17 125.216 463.148 127.807C461.148 130.398 458.398 132.42 454.898 133.875C451.42 135.307 447.409 136.023 442.864 136.023C435.932 136.023 430.409 134.58 426.295 131.693C422.205 128.784 419.807 124.83 419.102 119.83L433.386 119.08C433.818 121.193 434.864 122.807 436.523 123.92C438.182 125.011 440.307 125.557 442.898 125.557C445.443 125.557 447.489 125.068 449.034 124.091C450.602 123.091 451.398 121.807 451.42 120.239C451.398 118.92 450.841 117.841 449.75 117C448.659 116.136 446.977 115.477 444.705 115.023L435.636 113.216C430.523 112.193 426.716 110.42 424.216 107.898C421.739 105.375 420.5 102.159 420.5 98.25C420.5 94.8864 421.409 91.9886 423.227 89.5568C425.068 87.125 427.648 85.25 430.966 83.9318C434.307 82.6136 438.216 81.9545 442.693 81.9545C449.307 81.9545 454.511 83.3523 458.307 86.1477C462.125 88.9432 464.352 92.75 464.989 97.5682Z" fill="white"/>
<path d="M61.8182 185V161.727H69.9545C71.5758 161.727 72.9129 162.008 73.9659 162.568C75.0189 163.121 75.803 163.867 76.3182 164.807C76.8333 165.739 77.0909 166.773 77.0909 167.909C77.0909 168.909 76.9129 169.735 76.5568 170.386C76.2083 171.038 75.7462 171.553 75.1705 171.932C74.6023 172.311 73.9848 172.591 73.3182 172.773V173C74.0303 173.045 74.7462 173.295 75.4659 173.75C76.1856 174.205 76.7879 174.856 77.2727 175.705C77.7576 176.553 78 177.591 78 178.818C78 179.985 77.7348 181.034 77.2045 181.966C76.6742 182.898 75.8371 183.636 74.6932 184.182C73.5492 184.727 72.0606 185 70.2273 185H61.8182ZM64.6364 182.5H70.2273C72.0682 182.5 73.375 182.144 74.1477 181.432C74.928 180.712 75.3182 179.841 75.3182 178.818C75.3182 178.03 75.1174 177.303 74.7159 176.636C74.3144 175.962 73.7424 175.424 73 175.023C72.2576 174.614 71.3788 174.409 70.3636 174.409H64.6364V182.5ZM64.6364 171.955H69.8636C70.7121 171.955 71.4773 171.788 72.1591 171.455C72.8485 171.121 73.3939 170.652 73.7955 170.045C74.2045 169.439 74.4091 168.727 74.4091 167.909C74.4091 166.886 74.053 166.019 73.3409 165.307C72.6288 164.587 71.5 164.227 69.9545 164.227H64.6364V171.955ZM83.5852 185H80.6307L89.1761 161.727H92.0852L100.631 185H97.6761L90.7216 165.409H90.5398L83.5852 185ZM84.6761 175.909H96.5852V178.409H84.6761V175.909ZM121.889 169H119.071C118.904 168.189 118.613 167.477 118.196 166.864C117.787 166.25 117.287 165.735 116.696 165.318C116.113 164.894 115.465 164.576 114.753 164.364C114.041 164.152 113.298 164.045 112.526 164.045C111.116 164.045 109.84 164.402 108.696 165.114C107.56 165.826 106.654 166.875 105.98 168.261C105.313 169.648 104.98 171.348 104.98 173.364C104.98 175.379 105.313 177.08 105.98 178.466C106.654 179.852 107.56 180.902 108.696 181.614C109.84 182.326 111.116 182.682 112.526 182.682C113.298 182.682 114.041 182.576 114.753 182.364C115.465 182.152 116.113 181.837 116.696 181.42C117.287 180.996 117.787 180.477 118.196 179.864C118.613 179.242 118.904 178.53 119.071 177.727H121.889C121.677 178.917 121.291 179.981 120.73 180.92C120.17 181.86 119.473 182.659 118.639 183.318C117.806 183.97 116.87 184.466 115.832 184.807C114.802 185.148 113.7 185.318 112.526 185.318C110.541 185.318 108.776 184.833 107.23 183.864C105.685 182.894 104.469 181.515 103.582 179.727C102.696 177.939 102.253 175.818 102.253 173.364C102.253 170.909 102.696 168.788 103.582 167C104.469 165.212 105.685 163.833 107.23 162.864C108.776 161.894 110.541 161.409 112.526 161.409C113.7 161.409 114.802 161.58 115.832 161.92C116.87 162.261 117.806 162.761 118.639 163.42C119.473 164.072 120.17 164.867 120.73 165.807C121.291 166.739 121.677 167.803 121.889 169ZM126.443 185V161.727H129.261V173.273H129.534L139.989 161.727H143.67L133.898 172.227L143.67 185H140.261L132.17 174.182L129.261 177.455V185H126.443ZM147.318 185V161.727H161.364V164.227H150.136V172.091H160.636V174.591H150.136V182.5H161.545V185H147.318ZM184.898 161.727V185H182.17L169.489 166.727H169.261V185H166.443V161.727H169.17L181.898 180.045H182.125V161.727H184.898ZM197.719 185H190.537V161.727H198.037C200.295 161.727 202.226 162.193 203.832 163.125C205.438 164.049 206.67 165.379 207.526 167.114C208.382 168.841 208.81 170.909 208.81 173.318C208.81 175.742 208.378 177.83 207.514 179.58C206.651 181.322 205.393 182.663 203.741 183.602C202.09 184.534 200.082 185 197.719 185ZM193.355 182.5H197.537C199.461 182.5 201.056 182.129 202.321 181.386C203.586 180.644 204.529 179.587 205.151 178.216C205.772 176.845 206.082 175.212 206.082 173.318C206.082 171.439 205.776 169.822 205.162 168.466C204.548 167.102 203.632 166.057 202.412 165.33C201.192 164.595 199.673 164.227 197.855 164.227H193.355V182.5ZM228.991 180.909V165.909H231.537V180.909H228.991ZM222.764 174.682V172.136H237.764V174.682H222.764ZM252.631 185V161.727H266.585V164.227H255.449V172.091H265.54V174.591H255.449V185H252.631ZM271.412 185V161.727H279.276C281.094 161.727 282.586 162.038 283.753 162.659C284.92 163.273 285.783 164.117 286.344 165.193C286.904 166.269 287.185 167.492 287.185 168.864C287.185 170.235 286.904 171.451 286.344 172.511C285.783 173.572 284.923 174.405 283.764 175.011C282.605 175.61 281.124 175.909 279.321 175.909H272.957V173.364H279.23C280.473 173.364 281.473 173.182 282.23 172.818C282.995 172.455 283.548 171.939 283.889 171.273C284.238 170.598 284.412 169.795 284.412 168.864C284.412 167.932 284.238 167.117 283.889 166.42C283.541 165.723 282.984 165.186 282.219 164.807C281.454 164.42 280.442 164.227 279.185 164.227H274.23V185H271.412ZM282.366 174.545L288.094 185H284.821L279.185 174.545H282.366ZM311.517 173.364C311.517 175.818 311.074 177.939 310.188 179.727C309.301 181.515 308.085 182.894 306.54 183.864C304.994 184.833 303.229 185.318 301.244 185.318C299.259 185.318 297.494 184.833 295.949 183.864C294.403 182.894 293.188 181.515 292.301 179.727C291.415 177.939 290.972 175.818 290.972 173.364C290.972 170.909 291.415 168.788 292.301 167C293.188 165.212 294.403 163.833 295.949 162.864C297.494 161.894 299.259 161.409 301.244 161.409C303.229 161.409 304.994 161.894 306.54 162.864C308.085 163.833 309.301 165.212 310.188 167C311.074 168.788 311.517 170.909 311.517 173.364ZM308.79 173.364C308.79 171.348 308.453 169.648 307.778 168.261C307.112 166.875 306.206 165.826 305.062 165.114C303.926 164.402 302.653 164.045 301.244 164.045C299.835 164.045 298.559 164.402 297.415 165.114C296.278 165.826 295.373 166.875 294.699 168.261C294.032 169.648 293.699 171.348 293.699 173.364C293.699 175.379 294.032 177.08 294.699 178.466C295.373 179.852 296.278 180.902 297.415 181.614C298.559 182.326 299.835 182.682 301.244 182.682C302.653 182.682 303.926 182.326 305.062 181.614C306.206 180.902 307.112 179.852 307.778 178.466C308.453 177.08 308.79 175.379 308.79 173.364ZM334.71 161.727V185H331.983L319.301 166.727H319.074V185H316.256V161.727H318.983L331.71 180.045H331.938V161.727H334.71ZM339.077 164.227V161.727H356.531V164.227H349.213V185H346.395V164.227H339.077ZM360.881 185V161.727H374.926V164.227H363.699V172.091H374.199V174.591H363.699V182.5H375.108V185H360.881ZM398.46 161.727V185H395.733L383.051 166.727H382.824V185H380.006V161.727H382.733L395.46 180.045H395.688V161.727H398.46ZM411.281 185H404.099V161.727H411.599C413.857 161.727 415.789 162.193 417.395 163.125C419.001 164.049 420.232 165.379 421.088 167.114C421.944 168.841 422.372 170.909 422.372 173.318C422.372 175.742 421.94 177.83 421.077 179.58C420.213 181.322 418.955 182.663 417.304 183.602C415.652 184.534 413.645 185 411.281 185ZM406.918 182.5H411.099C413.024 182.5 414.618 182.129 415.884 181.386C417.149 180.644 418.092 179.587 418.713 178.216C419.334 176.845 419.645 175.212 419.645 173.318C419.645 171.439 419.338 169.822 418.724 168.466C418.111 167.102 417.194 166.057 415.974 165.33C414.755 164.595 413.236 164.227 411.418 164.227H406.918V182.5Z" fill="white"/>
</g>
<rect x="1" y="1" width="1078" height="245" rx="31" stroke="#CFCFE7" stroke-opacity="0.1" stroke-width="2"/>
<defs>
<radialGradient id="paint0_radial_748_51" cx="0" cy="0" r="1" gradientUnits="userSpaceOnUse" gradientTransform="translate(406.5 -52) rotate(90) scale(281 347.5)">
<stop stop-color="#AF71FF"/>
<stop offset="1" stop-color="#4C3F78" stop-opacity="0"/>
</radialGradient>
<radialGradient id="paint1_radial_748_51" cx="0" cy="0" r="1" gradientUnits="userSpaceOnUse" gradientTransform="translate(45.8513 410.766) rotate(90) scale(490.769 300.101)">
<stop stop-color="#AF71FF"/>
<stop offset="1" stop-color="#4C3F78" stop-opacity="0"/>
</radialGradient>
<radialGradient id="paint2_radial_748_51" cx="0" cy="0" r="1" gradientUnits="userSpaceOnUse" gradientTransform="translate(936.084 416.988) rotate(90) scale(531.613 501.394)">
<stop stop-color="#AF71FF"/>
<stop offset="1" stop-color="#4C3F78" stop-opacity="0"/>
</radialGradient>
<clipPath id="clip0_748_51">
<rect width="1080" height="247" rx="32" fill="white"/>
</clipPath>
<clipPath id="clip1_748_51">
<rect width="132" height="50" fill="white" transform="translate(882 135)"/>
</clipPath>
</defs>
</svg>
