<svg width="1080" height="540" viewBox="0 0 1080 540" fill="none" xmlns="http://www.w3.org/2000/svg">
<g clip-path="url(#clip0_719_175)">
<rect width="1080" height="540" rx="32" fill="#1F1F24"/>
<g opacity="0.6">
<ellipse opacity="0.7" cx="392" cy="-6.5" rx="404" ry="326.5" fill="url(#paint0_radial_719_175)"/>
<ellipse opacity="0.7" cx="-89.7564" cy="422.766" rx="460.085" ry="594.009" transform="rotate(29.0906 -89.7564 422.766)" fill="url(#paint1_radial_719_175)"/>
<ellipse opacity="0.7" cx="1026.08" cy="379.988" rx="501.394" ry="531.613" transform="rotate(5.98411 1026.08 379.988)" fill="url(#paint2_radial_719_175)"/>
</g>
<g clip-path="url(#clip1_719_175)">
<path d="M700.361 106.935H671.867L706.605 72H657.858L623.329 106.923H574.814L540.261 72H491.514L526.264 106.946L456.636 176.967L491.456 211.984H393.381L358.759 176.967L393.381 141.951H442.511L477.284 106.946L442.72 72H393.973L428.711 106.935H379.639L310 176.967L379.639 247H553.736L623.375 176.967L588.556 141.951H686.631L721.253 176.967L686.631 211.984H637.5L602.716 247H700.361L770 176.967L700.361 106.935ZM540.006 211.984L505.384 176.967L540.006 141.951L574.628 176.967L540.006 211.984Z" fill="white"/>
</g>
<path d="M360.341 419V325.909H397.614C404.462 325.909 410.174 326.924 414.75 328.955C419.326 330.985 422.765 333.803 425.068 337.409C427.371 340.985 428.523 345.106 428.523 349.773C428.523 353.409 427.795 356.606 426.341 359.364C424.886 362.091 422.886 364.333 420.341 366.091C417.826 367.818 414.947 369.045 411.705 369.773V370.682C415.25 370.833 418.568 371.833 421.659 373.682C424.78 375.53 427.311 378.121 429.25 381.455C431.189 384.758 432.159 388.697 432.159 393.273C432.159 398.212 430.932 402.621 428.477 406.5C426.053 410.348 422.462 413.394 417.705 415.636C412.947 417.879 407.083 419 400.114 419H360.341ZM380.023 402.909H396.068C401.553 402.909 405.553 401.864 408.068 399.773C410.583 397.652 411.841 394.833 411.841 391.318C411.841 388.742 411.22 386.47 409.977 384.5C408.735 382.53 406.962 380.985 404.659 379.864C402.386 378.742 399.674 378.182 396.523 378.182H380.023V402.909ZM380.023 364.864H394.614C397.311 364.864 399.705 364.394 401.795 363.455C403.917 362.485 405.583 361.121 406.795 359.364C408.038 357.606 408.659 355.5 408.659 353.045C408.659 349.682 407.462 346.97 405.068 344.909C402.705 342.848 399.341 341.818 394.977 341.818H380.023V364.864ZM444.966 419V325.909H464.648V402.773H504.557V419H444.966ZM537.273 325.909V419H517.591V325.909H537.273ZM631.33 325.909V419H614.33L573.83 360.409H573.148V419H553.466V325.909H570.739L610.92 384.455H611.739V325.909H631.33ZM647.591 419V325.909H667.273V366.955H668.5L702 325.909H725.591L691.045 367.591L726 419H702.455L676.955 380.727L667.273 392.545V419H647.591Z" fill="white"/>
<path d="M189.772 468H183.585V450.545H189.823C191.579 450.545 193.091 450.895 194.358 451.594C195.625 452.287 196.599 453.284 197.281 454.585C197.968 455.886 198.312 457.443 198.312 459.256C198.312 461.074 197.968 462.636 197.281 463.943C196.599 465.25 195.619 466.253 194.341 466.952C193.068 467.651 191.545 468 189.772 468ZM187.275 464.838H189.619C190.71 464.838 191.627 464.645 192.372 464.259C193.122 463.866 193.684 463.261 194.059 462.443C194.44 461.619 194.63 460.557 194.63 459.256C194.63 457.966 194.44 456.912 194.059 456.094C193.684 455.276 193.125 454.673 192.38 454.287C191.636 453.901 190.718 453.707 189.627 453.707H187.275V464.838ZM207.424 468.256C206.077 468.256 204.918 467.983 203.946 467.438C202.98 466.886 202.236 466.108 201.713 465.102C201.191 464.091 200.929 462.895 200.929 461.514C200.929 460.168 201.191 458.986 201.713 457.969C202.236 456.952 202.972 456.159 203.921 455.591C204.875 455.023 205.995 454.739 207.279 454.739C208.142 454.739 208.946 454.878 209.691 455.156C210.441 455.429 211.094 455.841 211.651 456.392C212.213 456.943 212.651 457.636 212.963 458.472C213.276 459.301 213.432 460.273 213.432 461.386V462.384H202.378V460.134H210.014C210.014 459.611 209.901 459.148 209.674 458.744C209.446 458.341 209.131 458.026 208.727 457.798C208.33 457.565 207.867 457.449 207.338 457.449C206.787 457.449 206.299 457.577 205.872 457.832C205.452 458.082 205.122 458.42 204.884 458.847C204.645 459.267 204.523 459.736 204.517 460.253V462.392C204.517 463.04 204.637 463.599 204.875 464.071C205.12 464.543 205.463 464.906 205.906 465.162C206.35 465.418 206.875 465.545 207.483 465.545C207.887 465.545 208.256 465.489 208.591 465.375C208.926 465.261 209.213 465.091 209.452 464.864C209.691 464.636 209.872 464.358 209.997 464.028L213.355 464.25C213.185 465.057 212.835 465.761 212.307 466.364C211.784 466.96 211.108 467.426 210.279 467.761C209.455 468.091 208.503 468.256 207.424 468.256ZM222.196 468.256C220.855 468.256 219.702 467.972 218.736 467.403C217.776 466.83 217.037 466.034 216.52 465.017C216.009 464 215.753 462.83 215.753 461.506C215.753 460.165 216.011 458.989 216.529 457.977C217.051 456.96 217.793 456.168 218.753 455.599C219.713 455.026 220.855 454.739 222.179 454.739C223.321 454.739 224.321 454.946 225.179 455.361C226.037 455.776 226.716 456.358 227.216 457.108C227.716 457.858 227.992 458.739 228.043 459.75H224.617C224.52 459.097 224.264 458.571 223.85 458.173C223.44 457.77 222.904 457.568 222.239 457.568C221.676 457.568 221.185 457.722 220.764 458.028C220.35 458.33 220.026 458.77 219.793 459.349C219.56 459.929 219.443 460.631 219.443 461.455C219.443 462.29 219.557 463 219.784 463.585C220.017 464.17 220.344 464.616 220.764 464.923C221.185 465.23 221.676 465.384 222.239 465.384C222.654 465.384 223.026 465.298 223.355 465.128C223.69 464.957 223.966 464.71 224.182 464.386C224.404 464.057 224.548 463.662 224.617 463.202H228.043C227.986 464.202 227.713 465.082 227.225 465.844C226.742 466.599 226.074 467.19 225.222 467.616C224.369 468.043 223.361 468.256 222.196 468.256ZM236.813 468.256C235.467 468.256 234.308 467.983 233.336 467.438C232.37 466.886 231.626 466.108 231.103 465.102C230.58 464.091 230.319 462.895 230.319 461.514C230.319 460.168 230.58 458.986 231.103 457.969C231.626 456.952 232.362 456.159 233.31 455.591C234.265 455.023 235.384 454.739 236.668 454.739C237.532 454.739 238.336 454.878 239.08 455.156C239.83 455.429 240.484 455.841 241.04 456.392C241.603 456.943 242.04 457.636 242.353 458.472C242.665 459.301 242.822 460.273 242.822 461.386V462.384H231.768V460.134H239.404C239.404 459.611 239.29 459.148 239.063 458.744C238.836 458.341 238.521 458.026 238.117 457.798C237.719 457.565 237.256 457.449 236.728 457.449C236.177 457.449 235.688 457.577 235.262 457.832C234.842 458.082 234.512 458.42 234.273 458.847C234.035 459.267 233.913 459.736 233.907 460.253V462.392C233.907 463.04 234.026 463.599 234.265 464.071C234.509 464.543 234.853 464.906 235.296 465.162C235.739 465.418 236.265 465.545 236.873 465.545C237.276 465.545 237.646 465.489 237.981 465.375C238.316 465.261 238.603 465.091 238.842 464.864C239.08 464.636 239.262 464.358 239.387 464.028L242.745 464.25C242.575 465.057 242.225 465.761 241.697 466.364C241.174 466.96 240.498 467.426 239.668 467.761C238.844 468.091 237.893 468.256 236.813 468.256ZM249.302 460.432V468H245.671V454.909H249.131V457.219H249.285C249.574 456.457 250.06 455.855 250.742 455.412C251.424 454.963 252.251 454.739 253.222 454.739C254.131 454.739 254.924 454.938 255.6 455.335C256.276 455.733 256.802 456.301 257.177 457.04C257.552 457.773 257.739 458.648 257.739 459.665V468H254.109V460.312C254.114 459.511 253.91 458.886 253.495 458.438C253.08 457.983 252.509 457.756 251.782 457.756C251.293 457.756 250.861 457.861 250.486 458.071C250.117 458.281 249.827 458.588 249.617 458.991C249.413 459.389 249.307 459.869 249.302 460.432ZM268.044 454.909V457.636H260.16V454.909H268.044ZM261.95 451.773H265.581V463.977C265.581 464.312 265.632 464.574 265.734 464.761C265.836 464.943 265.978 465.071 266.16 465.145C266.348 465.219 266.564 465.256 266.808 465.256C266.978 465.256 267.149 465.241 267.319 465.213C267.49 465.179 267.621 465.153 267.711 465.136L268.282 467.838C268.101 467.895 267.845 467.96 267.515 468.034C267.186 468.114 266.785 468.162 266.314 468.179C265.439 468.213 264.672 468.097 264.013 467.83C263.359 467.562 262.851 467.148 262.487 466.585C262.123 466.023 261.944 465.312 261.95 464.455V451.773ZM270.889 468V454.909H274.409V457.193H274.545C274.784 456.381 275.184 455.767 275.747 455.352C276.309 454.932 276.957 454.722 277.69 454.722C277.872 454.722 278.068 454.733 278.278 454.756C278.488 454.778 278.673 454.81 278.832 454.849V458.071C278.662 458.02 278.426 457.974 278.125 457.935C277.824 457.895 277.548 457.875 277.298 457.875C276.764 457.875 276.287 457.991 275.866 458.224C275.451 458.452 275.122 458.77 274.877 459.179C274.639 459.588 274.52 460.06 274.52 460.594V468H270.889ZM284.547 468.247C283.712 468.247 282.968 468.102 282.314 467.812C281.661 467.517 281.144 467.082 280.763 466.509C280.388 465.929 280.201 465.207 280.201 464.344C280.201 463.616 280.334 463.006 280.601 462.511C280.868 462.017 281.232 461.619 281.692 461.318C282.152 461.017 282.675 460.79 283.26 460.636C283.851 460.483 284.47 460.375 285.118 460.312C285.88 460.233 286.493 460.159 286.959 460.091C287.425 460.017 287.763 459.909 287.973 459.767C288.183 459.625 288.289 459.415 288.289 459.136V459.085C288.289 458.545 288.118 458.128 287.777 457.832C287.442 457.537 286.965 457.389 286.345 457.389C285.692 457.389 285.172 457.534 284.786 457.824C284.399 458.108 284.144 458.466 284.019 458.898L280.661 458.625C280.831 457.83 281.166 457.142 281.666 456.562C282.166 455.977 282.811 455.528 283.601 455.216C284.397 454.898 285.317 454.739 286.362 454.739C287.09 454.739 287.786 454.824 288.451 454.994C289.121 455.165 289.715 455.429 290.232 455.787C290.755 456.145 291.166 456.605 291.468 457.168C291.769 457.724 291.919 458.392 291.919 459.17V468H288.476V466.185H288.374C288.164 466.594 287.882 466.955 287.53 467.267C287.178 467.574 286.755 467.815 286.26 467.991C285.766 468.162 285.195 468.247 284.547 468.247ZM285.587 465.741C286.121 465.741 286.593 465.636 287.002 465.426C287.411 465.21 287.732 464.92 287.965 464.557C288.198 464.193 288.314 463.781 288.314 463.321V461.932C288.201 462.006 288.044 462.074 287.845 462.136C287.652 462.193 287.433 462.247 287.189 462.298C286.945 462.344 286.701 462.386 286.456 462.426C286.212 462.46 285.99 462.491 285.791 462.52C285.365 462.582 284.993 462.682 284.675 462.818C284.357 462.955 284.11 463.139 283.933 463.372C283.757 463.599 283.669 463.884 283.669 464.224C283.669 464.719 283.848 465.097 284.206 465.358C284.57 465.614 285.03 465.741 285.587 465.741ZM298.847 450.545V468H295.216V450.545H298.847ZM302.235 468V454.909H305.866V468H302.235ZM304.059 453.222C303.519 453.222 303.056 453.043 302.67 452.685C302.289 452.321 302.099 451.886 302.099 451.381C302.099 450.881 302.289 450.452 302.67 450.094C303.056 449.73 303.519 449.548 304.059 449.548C304.599 449.548 305.059 449.73 305.44 450.094C305.826 450.452 306.019 450.881 306.019 451.381C306.019 451.886 305.826 452.321 305.44 452.685C305.059 453.043 304.599 453.222 304.059 453.222ZM309.186 468V465.835L315.595 457.901V457.807H309.408V454.909H319.967V457.27L313.95 465.009V465.102H320.189V468H309.186ZM329.036 468.256C327.689 468.256 326.53 467.983 325.559 467.438C324.593 466.886 323.849 466.108 323.326 465.102C322.803 464.091 322.542 462.895 322.542 461.514C322.542 460.168 322.803 458.986 323.326 457.969C323.849 456.952 324.584 456.159 325.533 455.591C326.488 455.023 327.607 454.739 328.891 454.739C329.755 454.739 330.559 454.878 331.303 455.156C332.053 455.429 332.706 455.841 333.263 456.392C333.826 456.943 334.263 457.636 334.576 458.472C334.888 459.301 335.045 460.273 335.045 461.386V462.384H323.991V460.134H331.627C331.627 459.611 331.513 459.148 331.286 458.744C331.059 458.341 330.743 458.026 330.34 457.798C329.942 457.565 329.479 457.449 328.951 457.449C328.4 457.449 327.911 457.577 327.485 457.832C327.064 458.082 326.735 458.42 326.496 458.847C326.258 459.267 326.135 459.736 326.13 460.253V462.392C326.13 463.04 326.249 463.599 326.488 464.071C326.732 464.543 327.076 464.906 327.519 465.162C327.962 465.418 328.488 465.545 329.096 465.545C329.499 465.545 329.868 465.489 330.204 465.375C330.539 465.261 330.826 465.091 331.064 464.864C331.303 464.636 331.485 464.358 331.61 464.028L334.968 464.25C334.797 465.057 334.448 465.761 333.92 466.364C333.397 466.96 332.721 467.426 331.891 467.761C331.067 468.091 330.116 468.256 329.036 468.256ZM342.718 468.213C341.723 468.213 340.823 467.957 340.016 467.446C339.215 466.929 338.579 466.17 338.107 465.17C337.641 464.165 337.408 462.932 337.408 461.472C337.408 459.972 337.65 458.724 338.132 457.73C338.615 456.73 339.257 455.983 340.059 455.489C340.865 454.989 341.749 454.739 342.709 454.739C343.442 454.739 344.053 454.864 344.542 455.114C345.036 455.358 345.434 455.665 345.735 456.034C346.042 456.398 346.275 456.756 346.434 457.108H346.544V450.545H350.167V468H346.587V465.903H346.434C346.263 466.267 346.022 466.628 345.709 466.986C345.402 467.338 345.002 467.631 344.507 467.864C344.019 468.097 343.422 468.213 342.718 468.213ZM343.868 465.324C344.454 465.324 344.948 465.165 345.351 464.847C345.76 464.523 346.073 464.071 346.289 463.491C346.51 462.912 346.621 462.233 346.621 461.455C346.621 460.676 346.513 460 346.297 459.426C346.081 458.852 345.769 458.409 345.36 458.097C344.951 457.784 344.454 457.628 343.868 457.628C343.272 457.628 342.769 457.79 342.36 458.114C341.951 458.437 341.641 458.886 341.431 459.46C341.221 460.034 341.115 460.699 341.115 461.455C341.115 462.216 341.221 462.889 341.431 463.474C341.647 464.054 341.956 464.509 342.36 464.838C342.769 465.162 343.272 465.324 343.868 465.324ZM366.572 468.273C365.345 468.273 364.288 467.983 363.401 467.403C362.515 466.824 361.833 466.026 361.356 465.009C360.879 463.991 360.64 462.83 360.64 461.523C360.64 460.193 360.884 459.02 361.373 458.003C361.867 456.98 362.555 456.182 363.436 455.608C364.322 455.028 365.356 454.739 366.538 454.739C367.458 454.739 368.288 454.909 369.026 455.25C369.765 455.591 370.37 456.068 370.842 456.682C371.313 457.295 371.606 458.011 371.72 458.83H369.708C369.555 458.233 369.214 457.705 368.686 457.244C368.163 456.778 367.458 456.545 366.572 456.545C365.788 456.545 365.1 456.75 364.509 457.159C363.924 457.562 363.467 458.134 363.137 458.872C362.813 459.605 362.651 460.466 362.651 461.455C362.651 462.466 362.811 463.347 363.129 464.097C363.453 464.847 363.907 465.429 364.492 465.844C365.083 466.259 365.776 466.466 366.572 466.466C367.095 466.466 367.569 466.375 367.995 466.193C368.421 466.011 368.782 465.75 369.078 465.409C369.373 465.068 369.583 464.659 369.708 464.182H371.72C371.606 464.955 371.325 465.651 370.876 466.27C370.433 466.884 369.845 467.372 369.112 467.736C368.384 468.094 367.538 468.273 366.572 468.273ZM380.458 468.273C379.276 468.273 378.239 467.991 377.347 467.429C376.461 466.866 375.768 466.08 375.268 465.068C374.773 464.057 374.526 462.875 374.526 461.523C374.526 460.159 374.773 458.969 375.268 457.952C375.768 456.935 376.461 456.145 377.347 455.582C378.239 455.02 379.276 454.739 380.458 454.739C381.64 454.739 382.674 455.02 383.56 455.582C384.452 456.145 385.146 456.935 385.64 457.952C386.14 458.969 386.39 460.159 386.39 461.523C386.39 462.875 386.14 464.057 385.64 465.068C385.146 466.08 384.452 466.866 383.56 467.429C382.674 467.991 381.64 468.273 380.458 468.273ZM380.458 466.466C381.356 466.466 382.095 466.236 382.674 465.776C383.254 465.315 383.683 464.71 383.961 463.96C384.239 463.21 384.379 462.398 384.379 461.523C384.379 460.648 384.239 459.832 383.961 459.077C383.683 458.321 383.254 457.71 382.674 457.244C382.095 456.778 381.356 456.545 380.458 456.545C379.56 456.545 378.822 456.778 378.242 457.244C377.663 457.71 377.234 458.321 376.955 459.077C376.677 459.832 376.538 460.648 376.538 461.523C376.538 462.398 376.677 463.21 376.955 463.96C377.234 464.71 377.663 465.315 378.242 465.776C378.822 466.236 379.56 466.466 380.458 466.466ZM389.94 468V454.909H391.883V456.955H392.054C392.327 456.256 392.767 455.713 393.375 455.327C393.983 454.935 394.713 454.739 395.565 454.739C396.429 454.739 397.148 454.935 397.722 455.327C398.301 455.713 398.753 456.256 399.077 456.955H399.213C399.548 456.278 400.051 455.741 400.722 455.344C401.392 454.94 402.196 454.739 403.133 454.739C404.304 454.739 405.261 455.105 406.006 455.838C406.75 456.565 407.122 457.699 407.122 459.239V468H405.111V459.239C405.111 458.273 404.847 457.582 404.318 457.168C403.79 456.753 403.168 456.545 402.452 456.545C401.531 456.545 400.818 456.824 400.312 457.381C399.807 457.932 399.554 458.631 399.554 459.477V468H397.508V459.034C397.508 458.29 397.267 457.69 396.784 457.236C396.301 456.776 395.679 456.545 394.918 456.545C394.395 456.545 393.906 456.685 393.452 456.963C393.003 457.241 392.639 457.628 392.361 458.122C392.088 458.611 391.952 459.176 391.952 459.818V468H389.94ZM411.28 468V454.909H413.223V456.955H413.393C413.666 456.256 414.106 455.713 414.714 455.327C415.322 454.935 416.052 454.739 416.905 454.739C417.768 454.739 418.487 454.935 419.061 455.327C419.64 455.713 420.092 456.256 420.416 456.955H420.552C420.888 456.278 421.39 455.741 422.061 455.344C422.731 454.94 423.535 454.739 424.473 454.739C425.643 454.739 426.601 455.105 427.345 455.838C428.089 456.565 428.461 457.699 428.461 459.239V468H426.45V459.239C426.45 458.273 426.186 457.582 425.658 457.168C425.129 456.753 424.507 456.545 423.791 456.545C422.871 456.545 422.158 456.824 421.652 457.381C421.146 457.932 420.893 458.631 420.893 459.477V468H418.848V459.034C418.848 458.29 418.606 457.69 418.123 457.236C417.64 456.776 417.018 456.545 416.257 456.545C415.734 456.545 415.246 456.685 414.791 456.963C414.342 457.241 413.979 457.628 413.7 458.122C413.427 458.611 413.291 459.176 413.291 459.818V468H411.28ZM440.869 462.648V454.909H442.88V468H440.869V465.784H440.733C440.426 466.449 439.949 467.014 439.301 467.48C438.653 467.94 437.835 468.17 436.846 468.17C436.028 468.17 435.301 467.991 434.664 467.634C434.028 467.27 433.528 466.724 433.164 465.997C432.801 465.264 432.619 464.341 432.619 463.227V454.909H434.63V463.091C434.63 464.045 434.897 464.807 435.432 465.375C435.971 465.943 436.659 466.227 437.494 466.227C437.994 466.227 438.503 466.099 439.02 465.844C439.542 465.588 439.98 465.196 440.332 464.668C440.69 464.139 440.869 463.466 440.869 462.648ZM449.056 460.125V468H447.044V454.909H448.988V456.955H449.158C449.465 456.29 449.931 455.756 450.556 455.352C451.181 454.943 451.988 454.739 452.976 454.739C453.863 454.739 454.638 454.92 455.303 455.284C455.968 455.642 456.485 456.188 456.854 456.92C457.223 457.648 457.408 458.568 457.408 459.682V468H455.397V459.818C455.397 458.79 455.13 457.989 454.595 457.415C454.061 456.835 453.328 456.545 452.397 456.545C451.755 456.545 451.181 456.685 450.675 456.963C450.175 457.241 449.78 457.648 449.49 458.182C449.201 458.716 449.056 459.364 449.056 460.125ZM461.563 468V454.909H463.575V468H461.563ZM462.586 452.727C462.194 452.727 461.856 452.594 461.572 452.327C461.294 452.06 461.154 451.739 461.154 451.364C461.154 450.989 461.294 450.668 461.572 450.401C461.856 450.134 462.194 450 462.586 450C462.978 450 463.313 450.134 463.592 450.401C463.876 450.668 464.018 450.989 464.018 451.364C464.018 451.739 463.876 452.06 463.592 452.327C463.313 452.594 462.978 452.727 462.586 452.727ZM473.057 468.273C471.83 468.273 470.773 467.983 469.886 467.403C469 466.824 468.318 466.026 467.841 465.009C467.364 463.991 467.125 462.83 467.125 461.523C467.125 460.193 467.369 459.02 467.858 458.003C468.352 456.98 469.04 456.182 469.921 455.608C470.807 455.028 471.841 454.739 473.023 454.739C473.943 454.739 474.773 454.909 475.511 455.25C476.25 455.591 476.855 456.068 477.327 456.682C477.798 457.295 478.091 458.011 478.205 458.83H476.193C476.04 458.233 475.699 457.705 475.171 457.244C474.648 456.778 473.943 456.545 473.057 456.545C472.273 456.545 471.585 456.75 470.994 457.159C470.409 457.562 469.952 458.134 469.622 458.872C469.298 459.605 469.136 460.466 469.136 461.455C469.136 462.466 469.296 463.347 469.614 464.097C469.938 464.847 470.392 465.429 470.977 465.844C471.568 466.259 472.261 466.466 473.057 466.466C473.58 466.466 474.054 466.375 474.48 466.193C474.906 466.011 475.267 465.75 475.563 465.409C475.858 465.068 476.068 464.659 476.193 464.182H478.205C478.091 464.955 477.81 465.651 477.361 466.27C476.918 466.884 476.33 467.372 475.597 467.736C474.869 468.094 474.023 468.273 473.057 468.273ZM485.477 468.307C484.648 468.307 483.895 468.151 483.219 467.838C482.543 467.52 482.006 467.062 481.608 466.466C481.21 465.864 481.011 465.136 481.011 464.284C481.011 463.534 481.159 462.926 481.455 462.46C481.75 461.989 482.145 461.619 482.639 461.352C483.133 461.085 483.679 460.886 484.276 460.756C484.878 460.619 485.483 460.511 486.091 460.432C486.886 460.33 487.531 460.253 488.026 460.202C488.526 460.145 488.889 460.051 489.116 459.92C489.349 459.79 489.466 459.562 489.466 459.239V459.17C489.466 458.33 489.236 457.676 488.776 457.21C488.321 456.744 487.631 456.511 486.705 456.511C485.744 456.511 484.991 456.722 484.446 457.142C483.901 457.562 483.517 458.011 483.295 458.489L481.386 457.807C481.727 457.011 482.182 456.392 482.75 455.949C483.324 455.5 483.949 455.187 484.625 455.011C485.307 454.83 485.977 454.739 486.636 454.739C487.057 454.739 487.54 454.79 488.085 454.892C488.636 454.989 489.168 455.19 489.679 455.497C490.196 455.804 490.625 456.267 490.966 456.886C491.307 457.506 491.477 458.335 491.477 459.375V468H489.466V466.227H489.364C489.227 466.511 489 466.815 488.682 467.139C488.364 467.463 487.94 467.739 487.412 467.966C486.883 468.193 486.239 468.307 485.477 468.307ZM485.784 466.5C486.58 466.5 487.25 466.344 487.795 466.031C488.347 465.719 488.761 465.315 489.04 464.821C489.324 464.327 489.466 463.807 489.466 463.261V461.42C489.381 461.523 489.193 461.616 488.903 461.702C488.619 461.781 488.29 461.852 487.915 461.915C487.545 461.972 487.185 462.023 486.832 462.068C486.486 462.108 486.205 462.142 485.989 462.17C485.466 462.239 484.977 462.349 484.523 462.503C484.074 462.651 483.71 462.875 483.432 463.176C483.159 463.472 483.023 463.875 483.023 464.386C483.023 465.085 483.281 465.614 483.798 465.972C484.321 466.324 484.983 466.5 485.784 466.5ZM501.322 454.909V456.614H494.538V454.909H501.322ZM496.515 451.773H498.526V464.25C498.526 464.818 498.609 465.244 498.773 465.528C498.944 465.807 499.16 465.994 499.421 466.091C499.688 466.182 499.969 466.227 500.265 466.227C500.486 466.227 500.668 466.216 500.81 466.193C500.952 466.165 501.066 466.142 501.151 466.125L501.56 467.932C501.424 467.983 501.234 468.034 500.989 468.085C500.745 468.142 500.435 468.17 500.06 468.17C499.492 468.17 498.935 468.048 498.39 467.804C497.85 467.56 497.401 467.188 497.043 466.688C496.691 466.188 496.515 465.557 496.515 464.795V451.773ZM510.005 468.273C508.823 468.273 507.786 467.991 506.894 467.429C506.008 466.866 505.314 466.08 504.814 465.068C504.32 464.057 504.073 462.875 504.073 461.523C504.073 460.159 504.32 458.969 504.814 457.952C505.314 456.935 506.008 456.145 506.894 455.582C507.786 455.02 508.823 454.739 510.005 454.739C511.187 454.739 512.221 455.02 513.107 455.582C513.999 456.145 514.692 456.935 515.187 457.952C515.687 458.969 515.937 460.159 515.937 461.523C515.937 462.875 515.687 464.057 515.187 465.068C514.692 466.08 513.999 466.866 513.107 467.429C512.221 467.991 511.187 468.273 510.005 468.273ZM510.005 466.466C510.902 466.466 511.641 466.236 512.221 465.776C512.8 465.315 513.229 464.71 513.508 463.96C513.786 463.21 513.925 462.398 513.925 461.523C513.925 460.648 513.786 459.832 513.508 459.077C513.229 458.321 512.8 457.71 512.221 457.244C511.641 456.778 510.902 456.545 510.005 456.545C509.107 456.545 508.368 456.778 507.789 457.244C507.209 457.71 506.78 458.321 506.502 459.077C506.223 459.832 506.084 460.648 506.084 461.523C506.084 462.398 506.223 463.21 506.502 463.96C506.78 464.71 507.209 465.315 507.789 465.776C508.368 466.236 509.107 466.466 510.005 466.466ZM519.487 468V454.909H521.43V456.886H521.566C521.805 456.239 522.237 455.713 522.862 455.31C523.487 454.906 524.191 454.705 524.975 454.705C525.123 454.705 525.308 454.707 525.529 454.713C525.751 454.719 525.919 454.727 526.032 454.739V456.784C525.964 456.767 525.808 456.741 525.564 456.707C525.325 456.668 525.072 456.648 524.805 456.648C524.169 456.648 523.6 456.781 523.1 457.048C522.606 457.31 522.214 457.673 521.924 458.139C521.64 458.599 521.498 459.125 521.498 459.716V468H519.487ZM537.115 468H534.899L541.308 450.545H543.49L549.899 468H547.683L542.467 453.307H542.331L537.115 468ZM537.933 461.182H546.865V463.057H537.933V461.182ZM552.825 472.909V454.909H554.768V456.989H555.007C555.155 456.761 555.359 456.472 555.621 456.119C555.888 455.761 556.268 455.443 556.763 455.165C557.263 454.881 557.939 454.739 558.791 454.739C559.893 454.739 560.865 455.014 561.706 455.565C562.547 456.116 563.203 456.898 563.675 457.909C564.146 458.92 564.382 460.114 564.382 461.489C564.382 462.875 564.146 464.077 563.675 465.094C563.203 466.105 562.55 466.889 561.714 467.446C560.879 467.997 559.916 468.273 558.825 468.273C557.984 468.273 557.311 468.134 556.805 467.855C556.3 467.571 555.911 467.25 555.638 466.892C555.365 466.528 555.155 466.227 555.007 465.989H554.837V472.909H552.825ZM554.803 461.455C554.803 462.443 554.947 463.315 555.237 464.071C555.527 464.821 555.95 465.409 556.507 465.835C557.064 466.256 557.746 466.466 558.553 466.466C559.393 466.466 560.095 466.244 560.658 465.801C561.226 465.352 561.652 464.75 561.936 463.994C562.226 463.233 562.371 462.386 562.371 461.455C562.371 460.534 562.229 459.705 561.945 458.966C561.666 458.222 561.243 457.634 560.675 457.202C560.112 456.764 559.405 456.545 558.553 456.545C557.734 456.545 557.047 456.753 556.49 457.168C555.933 457.577 555.513 458.151 555.229 458.889C554.945 459.622 554.803 460.477 554.803 461.455ZM567.93 472.909V454.909H569.873V456.989H570.112C570.26 456.761 570.464 456.472 570.726 456.119C570.993 455.761 571.373 455.443 571.868 455.165C572.368 454.881 573.044 454.739 573.896 454.739C574.998 454.739 575.97 455.014 576.811 455.565C577.652 456.116 578.308 456.898 578.78 457.909C579.251 458.92 579.487 460.114 579.487 461.489C579.487 462.875 579.251 464.077 578.78 465.094C578.308 466.105 577.655 466.889 576.82 467.446C575.984 467.997 575.021 468.273 573.93 468.273C573.089 468.273 572.416 468.134 571.91 467.855C571.405 467.571 571.016 467.25 570.743 466.892C570.47 466.528 570.26 466.227 570.112 465.989H569.942V472.909H567.93ZM569.908 461.455C569.908 462.443 570.052 463.315 570.342 464.071C570.632 464.821 571.055 465.409 571.612 465.835C572.169 466.256 572.851 466.466 573.658 466.466C574.498 466.466 575.2 466.244 575.763 465.801C576.331 465.352 576.757 464.75 577.041 463.994C577.331 463.233 577.476 462.386 577.476 461.455C577.476 460.534 577.334 459.705 577.05 458.966C576.771 458.222 576.348 457.634 575.78 457.202C575.217 456.764 574.51 456.545 573.658 456.545C572.839 456.545 572.152 456.753 571.595 457.168C571.038 457.577 570.618 458.151 570.334 458.889C570.05 459.622 569.908 460.477 569.908 461.455ZM593.231 468L589.243 454.909H591.356L594.186 464.932H594.322L597.118 454.909H599.265L602.027 464.898H602.163L604.993 454.909H607.106L603.118 468H601.14L598.277 457.943H598.072L595.208 468H593.231ZM610.245 468V454.909H612.188V456.886H612.325C612.563 456.239 612.995 455.713 613.62 455.31C614.245 454.906 614.95 454.705 615.734 454.705C615.882 454.705 616.066 454.707 616.288 454.713C616.509 454.719 616.677 454.727 616.791 454.739V456.784C616.723 456.767 616.566 456.741 616.322 456.707C616.083 456.668 615.83 456.648 615.563 456.648C614.927 456.648 614.359 456.781 613.859 457.048C613.365 457.31 612.973 457.673 612.683 458.139C612.399 458.599 612.257 459.125 612.257 459.716V468H610.245ZM619.655 468V454.909H621.666V468H619.655ZM620.678 452.727C620.286 452.727 619.948 452.594 619.663 452.327C619.385 452.06 619.246 451.739 619.246 451.364C619.246 450.989 619.385 450.668 619.663 450.401C619.948 450.134 620.286 450 620.678 450C621.07 450 621.405 450.134 621.683 450.401C621.967 450.668 622.11 450.989 622.11 451.364C622.11 451.739 621.967 452.06 621.683 452.327C621.405 452.594 621.07 452.727 620.678 452.727ZM631.523 454.909V456.614H624.739V454.909H631.523ZM626.717 451.773H628.728V464.25C628.728 464.818 628.81 465.244 628.975 465.528C629.146 465.807 629.362 465.994 629.623 466.091C629.89 466.182 630.171 466.227 630.467 466.227C630.688 466.227 630.87 466.216 631.012 466.193C631.154 466.165 631.268 466.142 631.353 466.125L631.762 467.932C631.626 467.983 631.435 468.034 631.191 468.085C630.947 468.142 630.637 468.17 630.262 468.17C629.694 468.17 629.137 468.048 628.592 467.804C628.052 467.56 627.603 467.188 627.245 466.688C626.893 466.188 626.717 465.557 626.717 464.795V451.773ZM640.722 454.909V456.614H633.938V454.909H640.722ZM635.915 451.773H637.927V464.25C637.927 464.818 638.009 465.244 638.174 465.528C638.344 465.807 638.56 465.994 638.822 466.091C639.089 466.182 639.37 466.227 639.665 466.227C639.887 466.227 640.069 466.216 640.211 466.193C640.353 466.165 640.467 466.142 640.552 466.125L640.961 467.932C640.824 467.983 640.634 468.034 640.39 468.085C640.145 468.142 639.836 468.17 639.461 468.17C638.893 468.17 638.336 468.048 637.79 467.804C637.251 467.56 636.802 467.188 636.444 466.688C636.092 466.188 635.915 465.557 635.915 464.795V451.773ZM649.576 468.273C648.314 468.273 647.226 467.994 646.312 467.438C645.402 466.875 644.701 466.091 644.206 465.085C643.718 464.074 643.474 462.898 643.474 461.557C643.474 460.216 643.718 459.034 644.206 458.011C644.701 456.983 645.388 456.182 646.269 455.608C647.155 455.028 648.189 454.739 649.371 454.739C650.053 454.739 650.726 454.852 651.391 455.08C652.056 455.307 652.661 455.676 653.206 456.188C653.752 456.693 654.187 457.364 654.51 458.199C654.834 459.034 654.996 460.062 654.996 461.284V462.136H644.905V460.398H652.951C652.951 459.659 652.803 459 652.508 458.42C652.218 457.841 651.803 457.384 651.263 457.048C650.729 456.713 650.099 456.545 649.371 456.545C648.57 456.545 647.877 456.744 647.292 457.142C646.712 457.534 646.266 458.045 645.954 458.676C645.641 459.307 645.485 459.983 645.485 460.705V461.864C645.485 462.852 645.655 463.69 645.996 464.378C646.343 465.06 646.823 465.58 647.437 465.938C648.05 466.29 648.763 466.466 649.576 466.466C650.104 466.466 650.581 466.392 651.008 466.244C651.439 466.091 651.812 465.864 652.124 465.562C652.437 465.256 652.678 464.875 652.849 464.42L654.792 464.966C654.587 465.625 654.243 466.205 653.76 466.705C653.277 467.199 652.681 467.585 651.971 467.864C651.26 468.136 650.462 468.273 649.576 468.273ZM660.547 460.125V468H658.536V454.909H660.479V456.955H660.65C660.956 456.29 661.422 455.756 662.047 455.352C662.672 454.943 663.479 454.739 664.468 454.739C665.354 454.739 666.13 454.92 666.794 455.284C667.459 455.642 667.976 456.188 668.346 456.92C668.715 457.648 668.9 458.568 668.9 459.682V468H666.888V459.818C666.888 458.79 666.621 457.989 666.087 457.415C665.553 456.835 664.82 456.545 663.888 456.545C663.246 456.545 662.672 456.685 662.167 456.963C661.667 457.241 661.272 457.648 660.982 458.182C660.692 458.716 660.547 459.364 660.547 460.125ZM680.285 468V454.909H682.296V468H680.285ZM681.308 452.727C680.916 452.727 680.578 452.594 680.293 452.327C680.015 452.06 679.876 451.739 679.876 451.364C679.876 450.989 680.015 450.668 680.293 450.401C680.578 450.134 680.916 450 681.308 450C681.7 450 682.035 450.134 682.313 450.401C682.597 450.668 682.74 450.989 682.74 451.364C682.74 451.739 682.597 452.06 682.313 452.327C682.035 452.594 681.7 452.727 681.308 452.727ZM688.472 460.125V468H686.46V454.909H688.403V456.955H688.574C688.881 456.29 689.347 455.756 689.972 455.352C690.597 454.943 691.403 454.739 692.392 454.739C693.278 454.739 694.054 454.92 694.719 455.284C695.384 455.642 695.901 456.188 696.27 456.92C696.639 457.648 696.824 458.568 696.824 459.682V468H694.813V459.818C694.813 458.79 694.546 457.989 694.011 457.415C693.477 456.835 692.744 456.545 691.813 456.545C691.171 456.545 690.597 456.685 690.091 456.963C689.591 457.241 689.196 457.648 688.906 458.182C688.617 458.716 688.472 459.364 688.472 460.125ZM707.885 468V450.545H714.772C716.09 450.545 717.215 450.781 718.147 451.253C719.084 451.719 719.797 452.381 720.286 453.239C720.78 454.091 721.028 455.094 721.028 456.247C721.028 457.406 720.778 458.403 720.278 459.239C719.778 460.068 719.053 460.705 718.104 461.148C717.161 461.591 716.019 461.812 714.678 461.812H710.067V458.847H714.081C714.786 458.847 715.371 458.75 715.837 458.557C716.303 458.364 716.65 458.074 716.877 457.688C717.11 457.301 717.226 456.821 717.226 456.247C717.226 455.668 717.11 455.179 716.877 454.781C716.65 454.384 716.3 454.082 715.829 453.878C715.363 453.668 714.775 453.562 714.064 453.562H711.576V468H707.885ZM717.312 460.057L721.65 468H717.576L713.331 460.057H717.312ZM732.442 462.426V454.909H736.073V468H732.587V465.622H732.451C732.155 466.389 731.664 467.006 730.976 467.472C730.294 467.937 729.462 468.17 728.479 468.17C727.604 468.17 726.834 467.972 726.169 467.574C725.505 467.176 724.985 466.611 724.61 465.878C724.24 465.145 724.053 464.267 724.047 463.244V454.909H727.678V462.597C727.684 463.369 727.891 463.98 728.3 464.429C728.709 464.878 729.258 465.102 729.945 465.102C730.383 465.102 730.792 465.003 731.172 464.804C731.553 464.599 731.86 464.298 732.093 463.901C732.331 463.503 732.448 463.011 732.442 462.426ZM750.349 458.642L747.025 458.847C746.968 458.562 746.846 458.307 746.659 458.08C746.471 457.847 746.224 457.662 745.917 457.526C745.616 457.384 745.255 457.312 744.835 457.312C744.272 457.312 743.798 457.432 743.412 457.67C743.025 457.903 742.832 458.216 742.832 458.608C742.832 458.92 742.957 459.185 743.207 459.401C743.457 459.616 743.886 459.79 744.494 459.92L746.863 460.398C748.136 460.659 749.085 461.08 749.71 461.659C750.335 462.239 750.647 463 750.647 463.943C750.647 464.801 750.394 465.554 749.889 466.202C749.389 466.849 748.701 467.355 747.826 467.719C746.957 468.077 745.954 468.256 744.818 468.256C743.085 468.256 741.704 467.895 740.676 467.173C739.653 466.446 739.054 465.457 738.877 464.207L742.448 464.02C742.556 464.548 742.818 464.952 743.233 465.23C743.647 465.503 744.179 465.639 744.826 465.639C745.463 465.639 745.974 465.517 746.36 465.273C746.752 465.023 746.951 464.702 746.957 464.31C746.951 463.98 746.812 463.71 746.539 463.5C746.267 463.284 745.846 463.119 745.278 463.006L743.011 462.554C741.733 462.298 740.781 461.855 740.156 461.224C739.537 460.594 739.227 459.79 739.227 458.812C739.227 457.972 739.454 457.247 739.909 456.639C740.369 456.031 741.014 455.562 741.843 455.233C742.679 454.903 743.656 454.739 744.775 454.739C746.429 454.739 747.73 455.088 748.679 455.787C749.633 456.486 750.19 457.437 750.349 458.642ZM760.377 454.909V457.636H752.493V454.909H760.377ZM754.283 451.773H757.914V463.977C757.914 464.312 757.965 464.574 758.067 464.761C758.169 464.943 758.311 465.071 758.493 465.145C758.681 465.219 758.896 465.256 759.141 465.256C759.311 465.256 759.482 465.241 759.652 465.213C759.823 465.179 759.953 465.153 760.044 465.136L760.615 467.838C760.433 467.895 760.178 467.96 759.848 468.034C759.519 468.114 759.118 468.162 758.646 468.179C757.771 468.213 757.004 468.097 756.345 467.83C755.692 467.562 755.183 467.148 754.82 466.585C754.456 466.023 754.277 465.312 754.283 464.455V451.773ZM774.696 468.307C773.866 468.307 773.114 468.151 772.437 467.838C771.761 467.52 771.224 467.062 770.827 466.466C770.429 465.864 770.23 465.136 770.23 464.284C770.23 463.534 770.378 462.926 770.673 462.46C770.969 461.989 771.364 461.619 771.858 461.352C772.352 461.085 772.898 460.886 773.494 460.756C774.097 460.619 774.702 460.511 775.31 460.432C776.105 460.33 776.75 460.253 777.244 460.202C777.744 460.145 778.108 460.051 778.335 459.92C778.568 459.79 778.685 459.562 778.685 459.239V459.17C778.685 458.33 778.455 457.676 777.994 457.21C777.54 456.744 776.849 456.511 775.923 456.511C774.963 456.511 774.21 456.722 773.665 457.142C773.119 457.562 772.736 458.011 772.514 458.489L770.605 457.807C770.946 457.011 771.401 456.392 771.969 455.949C772.543 455.5 773.168 455.187 773.844 455.011C774.526 454.83 775.196 454.739 775.855 454.739C776.276 454.739 776.758 454.79 777.304 454.892C777.855 454.989 778.386 455.19 778.898 455.497C779.415 455.804 779.844 456.267 780.185 456.886C780.526 457.506 780.696 458.335 780.696 459.375V468H778.685V466.227H778.582C778.446 466.511 778.219 466.815 777.901 467.139C777.582 467.463 777.159 467.739 776.631 467.966C776.102 468.193 775.457 468.307 774.696 468.307ZM775.003 466.5C775.798 466.5 776.469 466.344 777.014 466.031C777.565 465.719 777.98 465.315 778.258 464.821C778.543 464.327 778.685 463.807 778.685 463.261V461.42C778.599 461.523 778.412 461.616 778.122 461.702C777.838 461.781 777.508 461.852 777.133 461.915C776.764 461.972 776.403 462.023 776.051 462.068C775.705 462.108 775.423 462.142 775.207 462.17C774.685 462.239 774.196 462.349 773.741 462.503C773.293 462.651 772.929 462.875 772.651 463.176C772.378 463.472 772.241 463.875 772.241 464.386C772.241 465.085 772.5 465.614 773.017 465.972C773.54 466.324 774.202 466.5 775.003 466.5ZM786.858 460.125V468H784.847V454.909H786.79V456.955H786.961C787.268 456.29 787.733 455.756 788.358 455.352C788.983 454.943 789.79 454.739 790.779 454.739C791.665 454.739 792.441 454.92 793.106 455.284C793.77 455.642 794.287 456.188 794.657 456.92C795.026 457.648 795.211 458.568 795.211 459.682V468H793.199V459.818C793.199 458.79 792.932 457.989 792.398 457.415C791.864 456.835 791.131 456.545 790.199 456.545C789.557 456.545 788.983 456.685 788.478 456.963C787.978 457.241 787.583 457.648 787.293 458.182C787.003 458.716 786.858 459.364 786.858 460.125ZM804.309 468.273C803.219 468.273 802.255 467.997 801.42 467.446C800.585 466.889 799.932 466.105 799.46 465.094C798.988 464.077 798.753 462.875 798.753 461.489C798.753 460.114 798.988 458.92 799.46 457.909C799.932 456.898 800.588 456.116 801.429 455.565C802.27 455.014 803.241 454.739 804.344 454.739C805.196 454.739 805.869 454.881 806.363 455.165C806.863 455.443 807.244 455.761 807.505 456.119C807.772 456.472 807.98 456.761 808.128 456.989H808.298V450.545H810.309V468H808.366V465.989H808.128C807.98 466.227 807.77 466.528 807.497 466.892C807.224 467.25 806.835 467.571 806.329 467.855C805.824 468.134 805.15 468.273 804.309 468.273ZM804.582 466.466C805.389 466.466 806.071 466.256 806.628 465.835C807.184 465.409 807.608 464.821 807.897 464.071C808.187 463.315 808.332 462.443 808.332 461.455C808.332 460.477 808.19 459.622 807.906 458.889C807.622 458.151 807.201 457.577 806.645 457.168C806.088 456.753 805.4 456.545 804.582 456.545C803.73 456.545 803.02 456.764 802.451 457.202C801.889 457.634 801.466 458.222 801.182 458.966C800.903 459.705 800.764 460.534 800.764 461.455C800.764 462.386 800.906 463.233 801.19 463.994C801.48 464.75 801.906 465.352 802.469 465.801C803.037 466.244 803.741 466.466 804.582 466.466ZM824.812 450.545L829.031 463.807H829.193L833.42 450.545H837.511L831.494 468H826.738L820.713 450.545H824.812ZM848.418 462.426V454.909H852.049V468H848.563V465.622H848.427C848.132 466.389 847.64 467.006 846.953 467.472C846.271 467.937 845.438 468.17 844.455 468.17C843.58 468.17 842.811 467.972 842.146 467.574C841.481 467.176 840.961 466.611 840.586 465.878C840.217 465.145 840.029 464.267 840.024 463.244V454.909H843.654V462.597C843.66 463.369 843.867 463.98 844.276 464.429C844.686 464.878 845.234 465.102 845.921 465.102C846.359 465.102 846.768 465.003 847.149 464.804C847.529 464.599 847.836 464.298 848.069 463.901C848.308 463.503 848.424 463.011 848.418 462.426ZM861.399 468.256C860.053 468.256 858.893 467.983 857.922 467.438C856.956 466.886 856.212 466.108 855.689 465.102C855.166 464.091 854.905 462.895 854.905 461.514C854.905 460.168 855.166 458.986 855.689 457.969C856.212 456.952 856.947 456.159 857.896 455.591C858.851 455.023 859.97 454.739 861.254 454.739C862.118 454.739 862.922 454.878 863.666 455.156C864.416 455.429 865.07 455.841 865.626 456.392C866.189 456.943 866.626 457.636 866.939 458.472C867.251 459.301 867.408 460.273 867.408 461.386V462.384H856.354V460.134H863.99C863.99 459.611 863.876 459.148 863.649 458.744C863.422 458.341 863.107 458.026 862.703 457.798C862.305 457.565 861.842 457.449 861.314 457.449C860.763 457.449 860.274 457.577 859.848 457.832C859.428 458.082 859.098 458.42 858.859 458.847C858.621 459.267 858.499 459.736 858.493 460.253V462.392C858.493 463.04 858.612 463.599 858.851 464.071C859.095 464.543 859.439 464.906 859.882 465.162C860.325 465.418 860.851 465.545 861.459 465.545C861.862 465.545 862.232 465.489 862.567 465.375C862.902 465.261 863.189 465.091 863.428 464.864C863.666 464.636 863.848 464.358 863.973 464.028L867.331 464.25C867.161 465.057 866.811 465.761 866.283 466.364C865.76 466.96 865.084 467.426 864.254 467.761C863.43 468.091 862.479 468.256 861.399 468.256ZM872.379 468.222C871.817 468.222 871.334 468.023 870.93 467.625C870.533 467.222 870.334 466.739 870.334 466.176C870.334 465.619 870.533 465.142 870.93 464.744C871.334 464.347 871.817 464.148 872.379 464.148C872.925 464.148 873.402 464.347 873.811 464.744C874.22 465.142 874.425 465.619 874.425 466.176C874.425 466.551 874.328 466.895 874.135 467.207C873.947 467.514 873.7 467.761 873.393 467.949C873.087 468.131 872.748 468.222 872.379 468.222ZM877.885 454.909H881.516V468.648C881.516 469.659 881.317 470.477 880.92 471.102C880.522 471.727 879.951 472.185 879.206 472.474C878.468 472.764 877.584 472.909 876.556 472.909C876.431 472.909 876.312 472.906 876.198 472.901C876.079 472.901 875.954 472.898 875.823 472.892V470.054C875.92 470.06 876.005 470.062 876.079 470.062C876.147 470.068 876.221 470.071 876.3 470.071C876.885 470.071 877.295 469.946 877.527 469.696C877.766 469.452 877.885 469.082 877.885 468.588V454.909ZM879.692 453.222C879.158 453.222 878.698 453.043 878.312 452.685C877.925 452.321 877.732 451.886 877.732 451.381C877.732 450.881 877.925 450.452 878.312 450.094C878.698 449.73 879.158 449.548 879.692 449.548C880.238 449.548 880.701 449.73 881.081 450.094C881.468 450.452 881.661 450.881 881.661 451.381C881.661 451.886 881.468 452.321 881.081 452.685C880.701 453.043 880.238 453.222 879.692 453.222ZM895.797 458.642L892.473 458.847C892.416 458.562 892.294 458.307 892.106 458.08C891.919 457.847 891.672 457.662 891.365 457.526C891.064 457.384 890.703 457.312 890.282 457.312C889.72 457.312 889.245 457.432 888.859 457.67C888.473 457.903 888.279 458.216 888.279 458.608C888.279 458.92 888.404 459.185 888.654 459.401C888.904 459.616 889.333 459.79 889.941 459.92L892.311 460.398C893.583 460.659 894.532 461.08 895.157 461.659C895.782 462.239 896.095 463 896.095 463.943C896.095 464.801 895.842 465.554 895.336 466.202C894.836 466.849 894.149 467.355 893.274 467.719C892.404 468.077 891.402 468.256 890.265 468.256C888.532 468.256 887.152 467.895 886.123 467.173C885.101 466.446 884.501 465.457 884.325 464.207L887.896 464.02C888.004 464.548 888.265 464.952 888.68 465.23C889.095 465.503 889.626 465.639 890.274 465.639C890.91 465.639 891.422 465.517 891.808 465.273C892.2 465.023 892.399 464.702 892.404 464.31C892.399 463.98 892.26 463.71 891.987 463.5C891.714 463.284 891.294 463.119 890.726 463.006L888.458 462.554C887.18 462.298 886.228 461.855 885.603 461.224C884.984 460.594 884.674 459.79 884.674 458.812C884.674 457.972 884.902 457.247 885.356 456.639C885.816 456.031 886.461 455.562 887.291 455.233C888.126 454.903 889.103 454.739 890.223 454.739C891.876 454.739 893.177 455.088 894.126 455.787C895.081 456.486 895.637 457.437 895.797 458.642Z" fill="white"/>
</g>
<rect x="1" y="1" width="1078" height="538" rx="31" stroke="#CFCFE7" stroke-opacity="0.1" stroke-width="2"/>
<defs>
<radialGradient id="paint0_radial_719_175" cx="0" cy="0" r="1" gradientUnits="userSpaceOnUse" gradientTransform="translate(392 -6.5) rotate(90) scale(326.5 404)">
<stop stop-color="#AF71FF"/>
<stop offset="1" stop-color="#4C3F78" stop-opacity="0"/>
</radialGradient>
<radialGradient id="paint1_radial_719_175" cx="0" cy="0" r="1" gradientUnits="userSpaceOnUse" gradientTransform="translate(-89.7563 422.766) rotate(90) scale(594.009 460.085)">
<stop stop-color="#AF71FF"/>
<stop offset="1" stop-color="#4C3F78" stop-opacity="0"/>
</radialGradient>
<radialGradient id="paint2_radial_719_175" cx="0" cy="0" r="1" gradientUnits="userSpaceOnUse" gradientTransform="translate(1026.08 379.988) rotate(90) scale(531.613 501.394)">
<stop stop-color="#AF71FF"/>
<stop offset="1" stop-color="#4C3F78" stop-opacity="0"/>
</radialGradient>
<clipPath id="clip0_719_175">
<rect width="1080" height="540" rx="32" fill="white"/>
</clipPath>
<clipPath id="clip1_719_175">
<rect width="460" height="175" fill="white" transform="translate(310 72)"/>
</clipPath>
</defs>
</svg>
