<svg width="1080" height="123" viewBox="0 0 1080 123" fill="none" xmlns="http://www.w3.org/2000/svg">
<g filter="url(#filter0_b_724_214)">
<rect width="1080" height="123" rx="32" fill="#CFCFE7" fill-opacity="0.1"/>
<rect x="1" y="1" width="1078" height="121" rx="31" stroke="#CFCFE7" stroke-opacity="0.1" stroke-width="2"/>
<g clip-path="url(#clip0_724_214)">
<path d="M162.49 60.5821L159.384 58.6593C159.358 58.3572 159.329 58.0555 159.297 57.754L161.966 55.2661C162.097 55.1411 162.195 54.9849 162.25 54.8119C162.305 54.6389 162.315 54.4548 162.28 54.2768C162.244 54.0988 162.164 53.9327 162.047 53.7941C161.93 53.6554 161.779 53.5487 161.61 53.4839L158.198 52.2074C158.114 51.9123 158.024 51.6188 157.93 51.3268L160.058 48.3708C160.165 48.2231 160.232 48.0506 160.253 47.8696C160.275 47.6886 160.249 47.5052 160.179 47.3369C160.11 47.1686 159.998 47.0209 159.855 46.908C159.712 46.795 159.542 46.7205 159.362 46.6916L155.766 46.1077C155.626 45.8359 155.481 45.5664 155.333 45.2992L156.843 41.9812C156.92 41.8158 156.952 41.6335 156.937 41.452C156.922 41.2705 156.861 41.0958 156.759 40.9449C156.657 40.7937 156.519 40.6708 156.357 40.5878C156.195 40.5047 156.014 40.4642 155.832 40.4701L152.18 40.5984C151.992 40.3611 151.8 40.1279 151.602 39.8991L152.442 36.344C152.483 36.1667 152.479 35.9818 152.429 35.8067C152.379 35.6316 152.285 35.4721 152.157 35.3433C152.028 35.2145 151.869 35.1207 151.693 35.0707C151.518 35.0207 151.333 35.0162 151.156 35.0576L147.6 35.8975C147.368 35.7025 147.134 35.51 146.898 35.32L147.026 31.6678C147.035 31.4851 146.996 31.3032 146.914 31.1398C146.831 30.9764 146.708 30.8371 146.556 30.7353C146.404 30.6336 146.229 30.5728 146.046 30.559C145.864 30.5452 145.681 30.5788 145.515 30.6565L142.198 32.1704C141.929 32.0236 141.66 31.8768 141.389 31.7366L140.802 28.1374C140.772 27.9584 140.696 27.79 140.583 27.648C140.47 27.5061 140.322 27.3952 140.154 27.3256C139.987 27.2561 139.804 27.2303 139.624 27.2505C139.443 27.2708 139.271 27.3365 139.123 27.4415L136.163 29.5705C135.872 29.477 135.578 29.3886 135.283 29.3053L134.007 25.8933C133.942 25.7237 133.835 25.5733 133.696 25.4562C133.558 25.339 133.392 25.2589 133.214 25.2234C133.036 25.1878 132.851 25.198 132.678 25.2529C132.505 25.3079 132.349 25.4058 132.224 25.5375L129.736 28.2095C129.435 28.1756 129.133 28.1464 128.831 28.122L126.908 25.0158C126.813 24.8609 126.679 24.733 126.52 24.6443C126.361 24.5556 126.182 24.509 126 24.509C125.818 24.509 125.639 24.5556 125.48 24.6443C125.321 24.733 125.187 24.8609 125.092 25.0158L123.169 28.1217C122.867 28.1476 122.565 28.1768 122.263 28.2092L119.772 25.5372C119.648 25.4039 119.492 25.3045 119.319 25.2485C119.145 25.1926 118.961 25.182 118.782 25.2176C118.603 25.2533 118.437 25.3341 118.298 25.4523C118.16 25.5705 118.054 25.7222 117.99 25.893L116.713 29.3047C116.417 29.3892 116.127 29.4796 115.833 29.5699L112.877 27.4415C112.729 27.3365 112.557 27.2708 112.376 27.2506C112.196 27.2303 112.013 27.2562 111.845 27.3257C111.677 27.3953 111.53 27.5062 111.417 27.6482C111.304 27.7902 111.228 27.9586 111.198 28.1377L110.611 31.7366C110.339 31.8769 110.07 32.0215 109.802 32.1704L106.484 30.6565C106.318 30.5806 106.136 30.5485 105.954 30.5631C105.773 30.5777 105.598 30.6387 105.446 30.7401C105.295 30.8415 105.172 30.98 105.089 31.1424C105.006 31.3048 104.966 31.4856 104.973 31.6678L105.102 35.32C104.864 35.5082 104.63 35.7007 104.399 35.8975L100.844 35.0573C100.667 35.0159 100.482 35.0203 100.307 35.0703C100.131 35.1202 99.972 35.214 99.8433 35.3428C99.7145 35.4715 99.6207 35.631 99.5708 35.806C99.5208 35.9811 99.5164 36.1661 99.5578 36.3434L100.394 39.8988C100.201 40.13 100.007 40.364 99.8199 40.5981L96.1677 40.4701C95.9855 40.4631 95.8046 40.503 95.6422 40.5857C95.4798 40.6685 95.3413 40.7915 95.2399 40.943C95.1385 41.0945 95.0776 41.2694 95.063 41.4511C95.0483 41.6328 95.0805 41.8152 95.1563 41.9809L96.6702 45.2989C96.5213 45.566 96.3766 45.8355 96.2364 46.1073L92.6406 46.6913C92.4616 46.7218 92.2933 46.7972 92.1513 46.9104C92.0094 47.0236 91.8985 47.171 91.8289 47.3387C91.7594 47.5064 91.7335 47.689 91.7537 47.8695C91.7739 48.0499 91.8395 48.2223 91.9444 48.3705L94.0732 51.3265C93.9805 51.6189 93.891 51.9124 93.8049 52.2068L90.3932 53.4833C90.2236 53.548 90.0731 53.6547 89.9559 53.7934C89.8387 53.9321 89.7586 54.0982 89.723 54.2762C89.6875 54.4543 89.6976 54.6384 89.7525 54.8115C89.8075 54.9845 89.9053 55.1408 90.0371 55.2658L92.706 57.754C92.6721 58.0552 92.643 58.3569 92.6187 58.659L89.5129 60.5817C89.3565 60.6762 89.2272 60.8095 89.1374 60.9686C89.0476 61.1278 89.0005 61.3074 89.0005 61.4901C89.0005 61.6728 89.0476 61.8524 89.1374 62.0116C89.2272 62.1707 89.3565 62.304 89.5129 62.3984L92.6187 64.3212C92.6434 64.624 92.6749 64.9268 92.706 65.2265L90.0371 67.7175C89.9037 67.8416 89.8044 67.9978 89.7485 68.1712C89.6925 68.3446 89.6819 68.5294 89.7176 68.708C89.7533 68.8866 89.8341 69.0532 89.9524 69.1917C90.0706 69.3303 90.2224 69.4363 90.3932 69.4997L93.8049 70.7765C93.8891 71.0731 93.9797 71.3666 94.0732 71.6568L91.9444 74.6128C91.8367 74.7604 91.7688 74.9334 91.7473 75.1149C91.7258 75.2964 91.7514 75.4804 91.8217 75.6492C91.892 75.8179 92.0045 75.9658 92.1485 76.0784C92.2925 76.191 92.463 76.2647 92.6437 76.2922L96.2395 76.8759C96.3801 77.1473 96.5238 77.4158 96.6736 77.6844L95.1597 81.0027C95.0839 81.1684 95.0517 81.3508 95.0664 81.5325C95.081 81.7142 95.1419 81.8891 95.2433 82.0406C95.3447 82.1921 95.4832 82.3151 95.6456 82.3978C95.808 82.4806 95.9889 82.5204 96.1711 82.5135L99.8199 82.3855C100.01 82.6226 100.201 82.8567 100.397 83.0876L99.5609 86.6461C99.5192 86.8233 99.5235 87.0082 99.5734 87.1833C99.6233 87.3583 99.7172 87.5177 99.8461 87.6463C99.9749 87.7748 100.135 87.8683 100.31 87.9178C100.485 87.9673 100.67 87.9712 100.847 87.929L104.402 87.0925C104.633 87.2893 104.868 87.4795 105.105 87.667L104.977 91.3192C104.969 91.5017 105.008 91.6831 105.09 91.8461C105.173 92.009 105.296 92.1479 105.448 92.2493C105.6 92.3507 105.775 92.4112 105.957 92.4249C106.14 92.4385 106.322 92.405 106.488 92.3274L109.806 90.8166C110.074 90.9664 110.342 91.1098 110.614 91.2504L111.201 94.8462C111.231 95.0255 111.306 95.1943 111.419 95.3366C111.532 95.479 111.679 95.5904 111.847 95.6603C112.015 95.7301 112.198 95.7563 112.379 95.7362C112.559 95.7161 112.732 95.6505 112.88 95.5455L115.836 93.4168C116.128 93.5109 116.422 93.6003 116.717 93.685L117.993 97.097C118.056 97.2685 118.161 97.4209 118.3 97.5397C118.439 97.6585 118.605 97.7397 118.784 97.7754C118.963 97.8112 119.149 97.8003 119.322 97.7438C119.496 97.6873 119.652 97.5871 119.776 97.4528L122.267 94.7839C122.566 94.8181 122.869 94.8465 123.172 94.8746L125.095 97.9804C125.191 98.1346 125.325 98.2618 125.484 98.35C125.642 98.4382 125.821 98.4844 126.003 98.4844C126.185 98.4844 126.363 98.4382 126.522 98.35C126.681 98.2618 126.815 98.1346 126.911 97.9804L128.834 94.8746C129.137 94.8465 129.44 94.8181 129.739 94.7839L132.227 97.4528C132.352 97.5845 132.508 97.6824 132.681 97.7373C132.854 97.7921 133.039 97.8023 133.217 97.7668C133.395 97.7312 133.561 97.6512 133.699 97.534C133.838 97.4169 133.945 97.2666 134.009 97.097L135.286 93.685C135.581 93.6008 135.875 93.5113 136.167 93.4168L139.123 95.5455C139.27 95.6532 139.443 95.7211 139.625 95.7426C139.806 95.7641 139.99 95.7385 140.159 95.6682C140.328 95.598 140.476 95.4854 140.588 95.3414C140.701 95.1975 140.774 95.0269 140.802 94.8462L141.389 91.2504C141.66 91.1098 141.929 90.9634 142.197 90.8166L145.516 92.3274C145.681 92.4022 145.863 92.4337 146.044 92.4188C146.225 92.4039 146.399 92.3432 146.551 92.2423C146.702 92.1415 146.825 92.0038 146.908 91.8423C146.991 91.6808 147.032 91.5008 147.026 91.3192L146.898 87.667C147.136 87.4806 147.369 87.2891 147.597 87.0925L151.153 87.929C151.33 87.9703 151.514 87.9657 151.689 87.9159C151.864 87.8661 152.023 87.7727 152.152 87.6444C152.28 87.5161 152.374 87.3572 152.424 87.1826C152.475 87.008 152.48 86.8234 152.439 86.6464L151.602 83.0876C151.796 82.8567 151.989 82.6226 152.177 82.3852L155.829 82.5132C156.012 82.5219 156.194 82.4832 156.357 82.4009C156.52 82.3186 156.66 82.1955 156.761 82.0435C156.863 81.8914 156.924 81.7157 156.938 81.5333C156.952 81.3509 156.918 81.168 156.84 81.0023L155.329 77.6847C155.476 77.4158 155.623 77.1476 155.763 76.8759L159.359 76.2922C159.538 76.2618 159.707 76.1864 159.849 76.0732C159.991 75.96 160.101 75.8126 160.171 75.6448C160.241 75.477 160.266 75.2943 160.246 75.1138C160.226 74.9334 160.16 74.761 160.055 74.6128L157.927 71.6568L158.195 70.7765L161.607 69.5C161.778 69.4366 161.929 69.3306 162.048 69.192C162.166 69.0534 162.247 68.8868 162.282 68.7081C162.318 68.5294 162.307 68.3446 162.251 68.1712C162.195 67.9978 162.096 67.8416 161.963 67.7175L159.294 65.2265C159.325 64.9268 159.356 64.624 159.381 64.3212L162.487 62.3984C162.643 62.304 162.773 62.1707 162.862 62.0116C162.952 61.8524 162.999 61.6728 162.999 61.4901C162.999 61.3074 162.952 61.1278 162.862 60.9686C162.773 60.8095 162.643 60.6762 162.487 60.5817L162.49 60.5821ZM141.704 86.3436C141.136 86.2188 140.641 85.8742 140.326 85.3852C140.011 84.8961 139.903 84.3024 140.024 83.7337C140.146 83.165 140.488 82.6675 140.975 82.35C141.462 82.0325 142.055 81.9208 142.625 82.0393C142.911 82.0959 143.184 82.209 143.426 82.372C143.669 82.535 143.876 82.7446 144.037 82.9886C144.198 83.2327 144.308 83.5062 144.362 83.7934C144.416 84.0805 144.412 84.3755 144.351 84.6611C144.289 84.9467 144.172 85.2173 144.005 85.4571C143.838 85.6968 143.625 85.9009 143.378 86.0575C143.132 86.2141 142.856 86.3201 142.568 86.3692C142.28 86.4183 141.985 86.4096 141.701 86.3436H141.704ZM140.649 79.2082C140.392 79.1527 140.126 79.1487 139.867 79.1962C139.608 79.2437 139.361 79.3419 139.14 79.4852C138.919 79.6284 138.728 79.8138 138.579 80.0308C138.43 80.2479 138.325 80.4922 138.27 80.7498L137.169 85.8944C133.766 87.4391 129.989 88.2978 126.009 88.2978C122.074 88.3035 118.185 87.4468 114.616 85.788L113.514 80.6438C113.459 80.3862 113.354 80.142 113.205 79.9252C113.056 79.7083 112.865 79.5231 112.644 79.3801C112.423 79.2371 112.176 79.1392 111.917 79.0921C111.658 79.0449 111.393 79.0493 111.135 79.1052L106.594 80.0789C105.75 79.2099 104.966 78.2848 104.246 77.3101H126.346C126.596 77.3101 126.765 77.2666 126.765 77.0387V69.2194C126.765 68.9912 126.599 68.9477 126.346 68.9477H119.882V63.9907H126.874C127.511 63.9907 130.286 64.1717 131.172 67.7178C131.45 68.8071 132.059 72.3564 132.477 73.4926C132.892 74.766 134.584 77.3101 136.388 77.3101H147.401C147.535 77.3082 147.668 77.2947 147.8 77.2697C147.037 78.307 146.2 79.2885 145.297 80.2068L140.649 79.2082ZM110.08 86.2375C109.796 86.3035 109.501 86.3122 109.213 86.2631C108.925 86.214 108.65 86.108 108.403 85.9514C108.156 85.7949 107.943 85.5907 107.776 85.351C107.609 85.1113 107.492 84.8407 107.431 84.555C107.369 84.2694 107.365 83.9744 107.419 83.6873C107.473 83.4001 107.583 83.1266 107.744 82.8826C107.905 82.6385 108.112 82.4289 108.355 82.2659C108.597 82.1029 108.87 81.9898 109.156 81.9332C109.723 81.8212 110.311 81.9365 110.793 82.254C111.276 82.5716 111.614 83.0661 111.735 83.6308C111.857 84.1956 111.751 84.7854 111.441 85.273C111.132 85.7606 110.643 86.107 110.08 86.2375ZM101.696 52.2382C101.823 52.5037 101.896 52.7919 101.91 53.0859C101.923 53.3799 101.878 53.6737 101.776 53.9499C101.675 54.2261 101.519 54.4791 101.317 54.6938C101.116 54.9086 100.874 55.0808 100.605 55.2003C100.336 55.3197 100.045 55.384 99.7512 55.3893C99.4569 55.3946 99.1645 55.3408 98.8914 55.2311C98.6183 55.1214 98.3699 54.9581 98.1611 54.7507C97.9522 54.5433 97.7871 54.2961 97.6754 54.0238C97.4589 53.4941 97.4572 52.9009 97.6708 52.3699C97.8844 51.839 98.2964 51.4122 98.8194 51.18C99.3424 50.9477 99.9353 50.9284 100.472 51.126C101.009 51.3236 101.448 51.7224 101.696 52.2382ZM99.1209 58.3473L103.853 56.2432C104.094 56.1363 104.311 55.983 104.492 55.7921C104.674 55.6012 104.816 55.3764 104.91 55.1306C105.005 54.8847 105.05 54.6227 105.043 54.3594C105.036 54.0961 104.978 53.8367 104.87 53.5961L103.897 51.3925H107.73V68.6669H99.9978C99.0443 65.3143 98.7476 61.809 99.124 58.3439L99.1209 58.3473ZM119.885 56.6708V51.5796H129.012C129.484 51.5796 132.339 52.126 132.339 54.2612C132.339 56.0341 130.148 56.6708 128.347 56.6708H119.885ZM153.054 61.2533C153.054 61.9276 153.029 62.5985 152.979 63.2605H150.204C149.926 63.2605 149.814 63.4412 149.814 63.716V64.9894C149.814 67.9894 148.122 68.6419 146.639 68.8071C145.228 68.9666 143.664 68.2173 143.471 67.3527C142.637 62.6704 141.252 61.6683 139.06 59.9423C141.779 58.2159 144.607 55.6688 144.607 52.2601C144.607 48.5799 142.082 46.2606 140.362 45.1213C137.949 43.5294 135.277 43.2112 134.556 43.2112H105.86C109.826 38.7767 115.144 35.7746 120.99 34.6707L124.374 38.2196C124.555 38.4103 124.772 38.5633 125.013 38.6699C125.253 38.7765 125.513 38.8345 125.776 38.8406C126.039 38.8467 126.3 38.8008 126.546 38.7055C126.791 38.6102 127.015 38.4674 127.205 38.2852L130.988 34.6645C134.846 35.3879 138.5 36.942 141.696 39.2187C144.893 41.4955 147.557 44.4405 149.502 47.8494L146.911 53.7022C146.696 54.1883 146.683 54.7397 146.873 55.2357C147.064 55.7317 147.443 56.1321 147.928 56.3493L152.916 58.5656C153.004 59.452 153.047 60.3446 153.047 61.2533H153.054ZM124.377 31.6555C124.799 31.2531 125.363 31.0348 125.946 31.0486C126.234 31.0554 126.519 31.119 126.783 31.2357C127.047 31.3524 127.285 31.52 127.484 31.7288C127.683 31.9377 127.84 32.1837 127.944 32.4529C128.048 32.7221 128.098 33.0092 128.091 33.2977C128.084 33.5863 128.021 33.8707 127.904 34.1346C127.787 34.3986 127.62 34.637 127.411 34.8362C126.983 35.2053 126.43 35.3958 125.866 35.3685C125.302 35.3411 124.77 35.098 124.38 34.6894C123.991 34.2807 123.773 33.7379 123.772 33.1731C123.772 32.6084 123.988 32.065 124.377 31.6555ZM150.088 52.3446C150.205 52.0807 150.372 51.8423 150.581 51.6431C150.79 51.444 151.036 51.288 151.305 51.1842C151.574 51.0803 151.861 51.0307 152.149 51.038C152.438 51.0453 152.722 51.1095 152.985 51.2269C153.384 51.4027 153.721 51.6927 153.954 52.0603C154.188 52.4278 154.307 52.8563 154.297 53.2916C154.287 53.7269 154.147 54.1494 153.897 54.5057C153.647 54.8619 153.296 55.1358 152.89 55.2928C152.484 55.4498 152.04 55.4827 151.616 55.3875C151.191 55.2923 150.804 55.0731 150.503 54.7578C150.203 54.4425 150.003 54.0452 149.929 53.6162C149.854 53.1872 149.909 52.7457 150.085 52.3477L150.088 52.3446Z" fill="#F4F4F4"/>
</g>
<path d="M232.234 27C230.443 27 229 28.4432 229 30.2344V92.7656C229 94.5568 230.443 96 232.234 96H294.766C296.557 96 298 94.5568 298 92.7656V30.2344C298 28.4432 296.557 27 294.766 27H232.234ZM282.153 55.0312C283.913 55.0312 285.471 55.1376 286.831 55.3504C288.113 55.5425 289.372 55.8702 290.585 56.3279V63.3946C290.003 62.9918 289.384 62.6443 288.737 62.3568C288.069 62.0564 287.38 61.8065 286.675 61.6093C285.34 61.2372 283.962 61.0438 282.576 61.0343C281.713 61.0343 280.928 61.1147 280.221 61.2815C279.591 61.4163 278.986 61.6512 278.43 61.9773C277.941 62.2763 277.567 62.6356 277.3 63.0525C277.031 63.4727 276.891 63.9624 276.897 64.4612C276.897 65.0247 277.05 65.5336 277.346 65.9821C277.645 66.4306 278.071 66.8561 278.62 67.2586C279.169 67.6611 279.836 68.0521 280.621 68.4374C281.405 68.8255 282.294 69.2251 283.283 69.6334C284.634 70.1998 285.847 70.8035 286.923 71.4389C287.998 72.0771 288.921 72.7987 289.691 73.6037C290.462 74.4059 291.048 75.323 291.457 76.3551C291.865 77.3872 292.072 78.5861 292.072 79.9575C292.072 81.8464 291.712 83.4363 290.999 84.7185C290.303 85.9831 289.303 87.055 288.09 87.8379C286.782 88.667 285.333 89.2479 283.815 89.5514C282.188 89.8964 280.471 90.0689 278.668 90.0689C276.894 90.0767 275.123 89.9188 273.378 89.5974C271.869 89.3363 270.405 88.8589 269.031 88.18V80.6187C271.63 82.83 274.926 84.0519 278.338 84.0688C279.295 84.0688 280.132 83.9825 280.845 83.81C281.561 83.6375 282.156 83.396 282.636 83.0913C283.113 82.7808 283.47 82.4185 283.708 81.9987C283.972 81.51 284.092 80.9566 284.054 80.4026C284.017 79.8485 283.823 79.3164 283.496 78.8679C283.068 78.3026 282.546 77.8162 281.952 77.4304C281.215 76.9419 280.439 76.5149 279.632 76.1539C278.675 75.717 277.71 75.2991 276.737 74.9004C274.097 73.7992 272.131 72.4509 270.834 70.861C269.54 69.2711 268.891 67.3478 268.891 65.0966C268.891 63.3314 269.244 61.8162 269.952 60.5484C270.659 59.2805 271.619 58.2369 272.838 57.4175C274.127 56.5669 275.559 55.9544 277.064 55.6091C278.732 55.216 280.44 55.022 282.153 55.0312ZM238.703 55.5717H266.197V61.799H256.33V89.5312H248.518V61.799H238.703V55.5717Z" fill="#F4F4F4"/>
<path d="M402 63.8588L419.242 34.7614H409.141L402 47.1008V47.107L394.871 34.7614H384.758L402 63.8588Z" fill="#F4F4F4"/>
<path d="M421.921 34.7737L402 68.3913L382.079 34.7737H371.142L402 88.2387L432.858 34.7737H421.921Z" fill="#F4F4F4"/>
<path d="M564.05 52.1808C561.275 51.2141 558.826 49.476 556.983 47.1657C554.952 44.5916 552.366 42.5216 549.422 41.1139C546.478 39.7063 543.256 38.9983 540 39.0442C535.621 38.7304 531.285 40.0968 527.857 42.871C524.428 45.6453 522.159 49.624 521.5 54.0147C522.797 51.8187 524.75 50.0957 527.077 49.0936C529.404 48.0915 531.986 47.862 534.45 48.4382C537.22 49.433 539.665 51.1813 541.517 53.4907C543.559 56.0443 546.15 58.0929 549.093 59.4808C552.036 60.8687 555.253 61.5593 558.5 61.5C562.879 61.8137 567.215 60.4474 570.643 57.6731C574.072 54.8988 576.341 50.9202 577 46.5294C575.726 48.7517 573.779 50.5008 571.448 51.5184C569.116 52.536 566.522 52.7682 564.05 52.1808ZM515.95 70.8192C518.725 71.7859 521.174 73.524 523.017 75.8343C525.048 78.4084 527.634 80.4784 530.578 81.8861C533.522 83.2937 536.744 84.0017 540 83.9558C544.379 84.2696 548.715 82.9032 552.143 80.129C555.572 77.3547 557.841 73.376 558.5 68.9853C557.203 71.1813 555.25 72.9043 552.923 73.9064C550.596 74.9085 548.014 75.138 545.55 74.5618C542.78 73.567 540.335 71.8187 538.483 69.5092C536.435 66.9621 533.843 64.9179 530.901 63.5306C527.96 62.1433 524.745 61.449 521.5 61.5C517.121 61.1863 512.785 62.5526 509.357 65.3269C505.928 68.1012 503.659 72.0798 503 76.4706C504.274 74.2483 506.221 72.4992 508.552 71.4816C510.884 70.464 513.478 70.2318 515.95 70.8192Z" fill="#F4F4F4"/>
<g clip-path="url(#clip1_724_214)">
<path d="M666.548 57.1155L668.127 30.4231C668.14 30.2142 668.221 30.0155 668.359 29.8581C668.497 29.7007 668.683 29.5936 668.889 29.5536L694.579 24.5185C694.738 24.4873 694.902 24.4975 695.055 24.548C695.209 24.5984 695.347 24.6875 695.456 24.8067C695.566 24.9259 695.642 25.0711 695.679 25.2285C695.716 25.386 695.712 25.5502 695.667 25.7056L690.864 42.3648C690.819 42.5199 690.815 42.6838 690.852 42.8409C690.889 42.998 690.965 43.143 691.074 43.2621C691.183 43.3812 691.321 43.4704 691.474 43.5211C691.627 43.5719 691.791 43.5825 691.949 43.5519L699.312 42.1336C699.485 42.0997 699.665 42.1151 699.829 42.1781C699.994 42.241 700.138 42.3489 700.245 42.4896C700.352 42.6303 700.417 42.7981 700.433 42.9739C700.449 43.1497 700.415 43.3264 700.336 43.4841L679.4 85.2633L679.021 85.8491C678.939 85.9817 678.825 86.0911 678.689 86.1667C678.553 86.2423 678.399 86.2816 678.244 86.2808C677.698 86.2808 677.164 85.8121 677.303 85.143L680.679 68.7983C680.713 68.6382 680.704 68.4722 680.653 68.3166C680.603 68.1611 680.513 68.0213 680.392 67.9109C680.272 67.8005 680.125 67.7234 679.965 67.6871C679.806 67.6508 679.64 67.6565 679.483 67.7037L675.065 69.0449C674.908 69.0926 674.742 69.0988 674.583 69.0629C674.423 69.027 674.276 68.9503 674.155 68.8402C674.034 68.7302 673.943 68.5905 673.893 68.4351C673.842 68.2796 673.832 68.1136 673.865 67.9534L675.993 57.5472C676.025 57.3918 676.018 57.2308 675.971 57.0791C675.925 56.9274 675.841 56.7898 675.727 56.6791C675.613 56.5685 675.473 56.4883 675.32 56.446C675.167 56.4037 675.006 56.4007 674.852 56.4372L667.699 58.0898C667.556 58.1226 667.407 58.1218 667.265 58.0872C667.123 58.0527 666.99 57.9855 666.878 57.891C666.767 57.7965 666.678 57.6772 666.62 57.5426C666.563 57.408 666.537 57.2617 666.545 57.1155H666.548ZM712.724 32.677L694.292 36.0317L692.615 41.8499L699.019 40.6166C699.515 40.5177 700.03 40.5738 700.493 40.7773C700.957 40.9808 701.346 41.3219 701.609 41.7543C701.832 42.114 701.959 42.5249 701.977 42.9478C701.996 43.3706 701.905 43.791 701.714 44.1686L680.775 85.9508L680.735 86.0279L680.689 86.0988L680.312 86.6847C680.09 87.033 679.784 87.32 679.422 87.5193C679.06 87.7186 678.654 87.8239 678.24 87.8255C677.866 87.8235 677.497 87.739 677.159 87.578C676.821 87.4171 676.523 87.1837 676.286 86.8943C676.055 86.6085 675.891 86.2747 675.805 85.9173C675.72 85.5598 675.715 85.1879 675.792 84.8285L678.965 69.4704L675.512 70.5188C675.039 70.6611 674.535 70.6603 674.064 70.5165C673.592 70.3727 673.173 70.0924 672.86 69.7109C672.627 69.4262 672.46 69.0929 672.372 68.7355C672.284 68.3781 672.277 68.0056 672.351 67.6451L674.294 58.1484L668.044 59.5914C667.621 59.6883 667.18 59.673 666.764 59.547C666.349 59.421 665.974 59.1887 665.676 58.873C665.445 58.626 665.267 58.3347 665.152 58.0167C665.037 57.6987 664.987 57.3606 665.007 57.023L666.206 36.7655L643.266 32.6647C642.913 32.6009 642.548 32.6393 642.216 32.7754C641.884 32.9115 641.597 33.1396 641.39 33.4329C641.183 33.7263 641.063 34.0727 641.046 34.4314C641.029 34.7902 641.115 35.1464 641.293 35.4582L676.705 97.5473C676.87 97.8379 677.11 98.0793 677.399 98.2469C677.689 98.4144 678.018 98.502 678.352 98.5008C678.686 98.4995 679.014 98.4094 679.303 98.2397C679.591 98.07 679.829 97.8268 679.992 97.5349L714.71 35.452C714.884 35.1396 714.966 34.7843 714.946 34.4273C714.926 34.0703 714.804 33.7263 714.596 33.4355C714.388 33.1448 714.102 32.9191 713.77 32.7848C713.439 32.6505 713.076 32.6131 712.724 32.677Z" fill="#F4F4F4"/>
</g>
<path d="M835.314 43.74C827.544 43.74 818.738 53.064 816 56.024C813.78 53.582 804.604 43.74 796.686 43.74C786.918 43.74 779 51.732 779 61.5C779 71.268 786.918 79.26 796.686 79.26C804.456 79.26 813.262 69.936 816 66.976C818.22 69.418 827.396 79.26 835.314 79.26C845.082 79.26 853 71.268 853 61.5C853 51.732 845.082 43.74 835.314 43.74ZM796.686 71.934C795.315 71.9356 793.958 71.6668 792.691 71.143C791.425 70.6193 790.274 69.8508 789.304 68.8816C788.335 67.9123 787.567 66.7615 787.043 65.4948C786.519 64.2282 786.25 62.8707 786.252 61.5C786.261 58.7355 787.363 56.0867 789.318 54.1319C791.273 52.1771 793.921 51.0749 796.686 51.066C800.312 51.066 806.676 56.616 811.116 61.5C809.858 62.906 801.422 71.934 796.686 71.934ZM835.314 71.934C831.688 71.934 825.324 66.384 820.884 61.5C822.142 60.094 830.652 51.066 835.314 51.066C836.685 51.0644 838.042 51.3331 839.309 51.8569C840.575 52.3807 841.726 53.1492 842.696 54.1184C843.665 55.0876 844.433 56.2385 844.957 57.5052C845.481 58.7718 845.75 60.1293 845.748 61.5C845.674 67.272 841.012 71.934 835.314 71.934Z" fill="#F4F4F4"/>
<g clip-path="url(#clip2_724_214)">
<path d="M960.114 58.6572H966.648C966.799 58.6572 966.945 58.5972 967.052 58.4903C967.16 58.3834 967.221 58.2383 967.221 58.0867V52.2685C967.221 52.1164 967.161 51.9705 967.053 51.863C966.946 51.7554 966.8 51.695 966.648 51.695H960.114C959.963 51.695 959.818 51.7551 959.711 51.8621C959.604 51.969 959.544 52.1141 959.544 52.2654V58.0867C959.544 58.4012 959.8 58.6572 960.114 58.6572ZM951.006 41.9147H957.537C957.689 41.9147 957.835 41.8542 957.942 41.7467C958.05 41.6391 958.11 41.4933 958.11 41.3412V35.5198C958.109 35.3683 958.048 35.2232 957.941 35.1163C957.834 35.0094 957.688 34.9494 957.537 34.9494H951.006C950.855 34.9494 950.71 35.0095 950.603 35.1165C950.496 35.2234 950.436 35.3685 950.436 35.5198V41.3412C950.436 41.6557 950.688 41.9147 951.006 41.9147ZM951.006 50.2859H957.537C957.688 50.2851 957.834 50.2244 957.941 50.117C958.049 50.0097 958.109 49.8643 958.11 49.7124V43.8942C958.109 43.7426 958.048 43.5975 957.941 43.4906C957.834 43.3837 957.688 43.3237 957.537 43.3237H951.006C950.855 43.3237 950.71 43.3838 950.603 43.4908C950.496 43.5978 950.436 43.7429 950.436 43.8942V49.7124C950.436 50.0269 950.688 50.2828 951.006 50.2859ZM941.972 50.2859H948.509C948.66 50.2843 948.804 50.2231 948.91 50.1158C949.016 50.0084 949.076 49.8634 949.076 49.7124V43.8942C949.076 43.7429 949.016 43.5978 948.909 43.4908C948.802 43.3838 948.657 43.3237 948.505 43.3237H941.975C941.824 43.3237 941.679 43.3838 941.572 43.4908C941.465 43.5978 941.405 43.7429 941.405 43.8942V49.7124C941.405 50.0269 941.66 50.2828 941.975 50.2859M932.836 50.2859H939.37C939.521 50.2851 939.666 50.2243 939.773 50.1168C939.88 50.0094 939.94 49.864 939.94 49.7124V43.8942C939.94 43.7429 939.88 43.5978 939.773 43.4908C939.666 43.3838 939.521 43.3237 939.37 43.3237H932.836C932.684 43.3237 932.539 43.3837 932.432 43.4906C932.324 43.5975 932.263 43.7426 932.262 43.8942V49.7124C932.262 50.0269 932.521 50.2828 932.836 50.2859ZM951.006 58.6572H957.537C957.688 58.6572 957.834 58.5972 957.941 58.4903C958.048 58.3834 958.109 58.2383 958.11 58.0867V52.2685C958.11 52.1164 958.05 51.9705 957.942 51.863C957.835 51.7554 957.689 51.695 957.537 51.695H951.006C950.855 51.695 950.71 51.7551 950.603 51.8621C950.496 51.969 950.436 52.1141 950.436 52.2654V58.0867C950.436 58.4012 950.688 58.6572 951.006 58.6572ZM941.972 58.6572H948.509C948.659 58.6563 948.804 58.5959 948.91 58.489C949.016 58.3821 949.076 58.2375 949.076 58.0867V52.2685C949.076 52.1936 949.062 52.1193 949.034 52.05C949.005 51.9806 948.964 51.9175 948.911 51.8642C948.858 51.811 948.796 51.7686 948.727 51.7396C948.658 51.7105 948.583 51.6954 948.509 51.695H941.972C941.821 51.6958 941.677 51.7563 941.571 51.8631C941.464 51.97 941.405 52.1147 941.405 52.2654V58.0867C941.405 58.4012 941.66 58.6572 941.975 58.6572M932.836 58.6572H939.37C939.521 58.6572 939.666 58.5971 939.773 58.4901C939.88 58.3831 939.94 58.238 939.94 58.0867V52.2685C939.94 52.1936 939.926 52.1193 939.898 52.05C939.869 51.9806 939.828 51.9175 939.775 51.8642C939.722 51.811 939.66 51.7686 939.591 51.7396C939.522 51.7105 939.448 51.6954 939.373 51.695H932.836C932.684 51.695 932.538 51.7554 932.43 51.863C932.323 51.9705 932.262 52.1164 932.262 52.2685V58.0867C932.262 58.4012 932.521 58.6572 932.836 58.6572ZM923.833 58.6572H930.369C930.52 58.6563 930.664 58.5959 930.771 58.489C930.877 58.3821 930.937 58.2375 930.937 58.0867V52.2685C930.937 52.1936 930.923 52.1193 930.894 52.05C930.866 51.9806 930.824 51.9175 930.772 51.8642C930.719 51.811 930.656 51.7686 930.587 51.7396C930.518 51.7105 930.444 51.6954 930.369 51.695H923.833C923.682 51.6958 923.538 51.7563 923.431 51.8631C923.325 51.97 923.265 52.1147 923.265 52.2654V58.0867C923.265 58.4012 923.515 58.6572 923.833 58.6572ZM990.269 54.9942C990.069 54.8369 988.197 53.4217 984.244 53.4217C983.202 53.4247 982.16 53.5142 981.13 53.6899C980.366 48.4482 976.033 45.8891 975.839 45.7781L974.779 45.1645L974.082 46.1727C973.206 47.5232 972.571 49.0156 972.195 50.5819C971.486 53.5727 971.917 56.3847 973.437 58.7867C971.603 59.8103 968.658 60.0601 968.06 60.0817H919.316C918.704 60.0825 918.117 60.3255 917.683 60.7577C917.25 61.1899 917.006 61.776 917.003 62.388C916.946 66.6579 917.669 70.9023 919.137 74.9125C920.817 79.3155 923.315 82.5592 926.568 84.5448C930.206 86.7741 936.126 88.0506 942.832 88.0506C945.863 88.0598 948.885 87.7854 951.866 87.2304C956.007 86.4698 959.991 85.0223 963.654 82.9477C966.676 81.1994 969.389 78.9763 971.701 76.3617C975.562 71.9895 977.862 67.1209 979.573 62.795H980.255C984.485 62.795 987.084 61.1022 988.518 59.6839C989.471 58.7805 990.214 57.6797 990.698 56.4587L991 55.5707L990.269 54.9942Z" fill="#F4F4F4"/>
</g>
</g>
<defs>
<filter id="filter0_b_724_214" x="-10" y="-10" width="1100" height="143" filterUnits="userSpaceOnUse" color-interpolation-filters="sRGB">
<feFlood flood-opacity="0" result="BackgroundImageFix"/>
<feGaussianBlur in="BackgroundImageFix" stdDeviation="5"/>
<feComposite in2="SourceAlpha" operator="in" result="effect1_backgroundBlur_724_214"/>
<feBlend mode="normal" in="SourceGraphic" in2="effect1_backgroundBlur_724_214" result="shape"/>
</filter>
<clipPath id="clip0_724_214">
<rect width="74" height="74" fill="white" transform="translate(89 24.5)"/>
</clipPath>
<clipPath id="clip1_724_214">
<rect width="74" height="74" fill="white" transform="translate(641 24.5)"/>
</clipPath>
<clipPath id="clip2_724_214">
<rect width="74" height="74" fill="white" transform="translate(917 24.5)"/>
</clipPath>
</defs>
</svg>
