<svg width="1080" height="247" viewBox="0 0 1080 247" fill="none" xmlns="http://www.w3.org/2000/svg">
<g clip-path="url(#clip0_724_282)">
<rect width="1080" height="247" rx="32" fill="#1F1F24"/>
<g opacity="0.6">
<ellipse opacity="0.7" cx="406.5" cy="-52" rx="347.5" ry="281" fill="url(#paint0_radial_724_282)"/>
<ellipse opacity="0.7" cx="45.8513" cy="410.766" rx="300.101" ry="490.769" transform="rotate(29.0906 45.8513 410.766)" fill="url(#paint1_radial_724_282)"/>
<ellipse opacity="0.7" cx="936.084" cy="416.988" rx="501.394" ry="531.613" transform="rotate(5.98411 936.084 416.988)" fill="url(#paint2_radial_724_282)"/>
</g>
<g clip-path="url(#clip1_724_282)">
<path d="M994.017 144.981H985.84L995.808 135H981.82L971.912 144.978H957.99L948.075 135H934.087L944.058 144.985L924.078 164.991L934.07 174.995H905.927L895.992 164.991L905.927 154.986H920.025L930.003 144.985L920.085 135H906.097L916.065 144.981H901.983L882 164.991L901.983 185H951.942L971.925 164.991L961.933 154.986H990.077L1000.01 164.991L990.077 174.995H975.978L965.997 185H994.017L1014 164.991L994.017 144.981ZM948.002 174.995L938.067 164.991L948.002 154.986L957.937 164.991L948.002 174.995Z" fill="white"/>
</g>
<path d="M79.8295 65.1818V135H65.0682V65.1818H79.8295ZM106.224 104.727V135H91.7017V82.6364H105.543V91.875H106.156C107.315 88.8295 109.259 86.4205 111.986 84.6477C114.713 82.8523 118.02 81.9545 121.906 81.9545C125.543 81.9545 128.713 82.75 131.418 84.3409C134.122 85.9318 136.224 88.2045 137.724 91.1591C139.224 94.0909 139.974 97.5909 139.974 101.659V135H125.452V104.25C125.474 101.045 124.656 98.5455 122.997 96.75C121.338 94.9318 119.054 94.0227 116.145 94.0227C114.19 94.0227 112.463 94.4432 110.963 95.2841C109.486 96.125 108.327 97.3523 107.486 98.9659C106.668 100.557 106.247 102.477 106.224 104.727ZM179.273 82.6364V93.5455H147.739V82.6364H179.273ZM154.898 70.0909H169.42V118.909C169.42 120.25 169.625 121.295 170.034 122.045C170.443 122.773 171.011 123.284 171.739 123.58C172.489 123.875 173.352 124.023 174.33 124.023C175.011 124.023 175.693 123.966 176.375 123.852C177.057 123.716 177.58 123.614 177.943 123.545L180.227 134.352C179.5 134.58 178.477 134.841 177.159 135.136C175.841 135.455 174.239 135.648 172.352 135.716C168.852 135.852 165.784 135.386 163.148 134.318C160.534 133.25 158.5 131.591 157.045 129.341C155.591 127.091 154.875 124.25 154.898 120.818V70.0909ZM212.034 136.023C206.648 136.023 202.011 134.932 198.125 132.75C194.261 130.545 191.284 127.432 189.193 123.409C187.102 119.364 186.057 114.58 186.057 109.057C186.057 103.67 187.102 98.9432 189.193 94.875C191.284 90.8068 194.227 87.6364 198.023 85.3636C201.841 83.0909 206.318 81.9545 211.455 81.9545C214.909 81.9545 218.125 82.5114 221.102 83.625C224.102 84.7159 226.716 86.3636 228.943 88.5682C231.193 90.7727 232.943 93.5455 234.193 96.8864C235.443 100.205 236.068 104.091 236.068 108.545V112.534H191.852V103.534H222.398C222.398 101.443 221.943 99.5909 221.034 97.9773C220.125 96.3636 218.864 95.1023 217.25 94.1932C215.659 93.2614 213.807 92.7955 211.693 92.7955C209.489 92.7955 207.534 93.3068 205.83 94.3295C204.148 95.3295 202.83 96.6818 201.875 98.3864C200.92 100.068 200.432 101.943 200.409 104.011V112.568C200.409 115.159 200.886 117.398 201.841 119.284C202.818 121.17 204.193 122.625 205.966 123.648C207.739 124.67 209.841 125.182 212.273 125.182C213.886 125.182 215.364 124.955 216.705 124.5C218.045 124.045 219.193 123.364 220.148 122.455C221.102 121.545 221.83 120.432 222.33 119.114L235.761 120C235.08 123.227 233.682 126.045 231.568 128.455C229.477 130.841 226.773 132.705 223.455 134.045C220.159 135.364 216.352 136.023 212.034 136.023ZM245.545 135V82.6364H259.625V91.7727H260.17C261.125 88.5227 262.727 86.0682 264.977 84.4091C267.227 82.7273 269.818 81.8864 272.75 81.8864C273.477 81.8864 274.261 81.9318 275.102 82.0227C275.943 82.1136 276.682 82.2386 277.318 82.3977V95.2841C276.636 95.0795 275.693 94.8977 274.489 94.7386C273.284 94.5795 272.182 94.5 271.182 94.5C269.045 94.5 267.136 94.9659 265.455 95.8977C263.795 96.8068 262.477 98.0795 261.5 99.7159C260.545 101.352 260.068 103.239 260.068 105.375V135H245.545ZM315.611 82.6364V93.5455H283.293V82.6364H315.611ZM290.69 135V78.8523C290.69 75.0568 291.429 71.9091 292.906 69.4091C294.406 66.9091 296.452 65.0341 299.043 63.7841C301.634 62.5341 304.577 61.9091 307.872 61.9091C310.099 61.9091 312.134 62.0795 313.974 62.4205C315.838 62.7614 317.224 63.0682 318.134 63.3409L315.543 74.25C314.974 74.0682 314.27 73.8977 313.429 73.7386C312.611 73.5795 311.77 73.5 310.906 73.5C308.77 73.5 307.281 74 306.44 75C305.599 75.9773 305.179 77.3523 305.179 79.125V135H290.69ZM337.54 135.989C334.199 135.989 331.222 135.409 328.608 134.25C325.994 133.068 323.926 131.33 322.403 129.034C320.903 126.716 320.153 123.83 320.153 120.375C320.153 117.466 320.688 115.023 321.756 113.045C322.824 111.068 324.278 109.477 326.119 108.273C327.96 107.068 330.051 106.159 332.392 105.545C334.756 104.932 337.233 104.5 339.824 104.25C342.869 103.932 345.324 103.636 347.188 103.364C349.051 103.068 350.403 102.636 351.244 102.068C352.085 101.5 352.506 100.659 352.506 99.5455V99.3409C352.506 97.1818 351.824 95.5114 350.46 94.3295C349.119 93.1477 347.21 92.5568 344.733 92.5568C342.119 92.5568 340.04 93.1364 338.494 94.2955C336.949 95.4318 335.926 96.8636 335.426 98.5909L321.994 97.5C322.676 94.3182 324.017 91.5682 326.017 89.25C328.017 86.9091 330.597 85.1136 333.756 83.8636C336.938 82.5909 340.619 81.9545 344.801 81.9545C347.71 81.9545 350.494 82.2955 353.153 82.9773C355.835 83.6591 358.21 84.7159 360.278 86.1477C362.369 87.5795 364.017 89.4205 365.222 91.6705C366.426 93.8977 367.028 96.5682 367.028 99.6818V135H353.256V127.739H352.847C352.006 129.375 350.881 130.818 349.472 132.068C348.062 133.295 346.369 134.261 344.392 134.966C342.415 135.648 340.131 135.989 337.54 135.989ZM341.699 125.966C343.835 125.966 345.722 125.545 347.358 124.705C348.994 123.841 350.278 122.682 351.21 121.227C352.142 119.773 352.608 118.125 352.608 116.284V110.727C352.153 111.023 351.528 111.295 350.733 111.545C349.96 111.773 349.085 111.989 348.108 112.193C347.131 112.375 346.153 112.545 345.176 112.705C344.199 112.841 343.312 112.966 342.517 113.08C340.813 113.33 339.324 113.727 338.051 114.273C336.778 114.818 335.79 115.557 335.085 116.489C334.381 117.398 334.028 118.534 334.028 119.898C334.028 121.875 334.744 123.386 336.176 124.432C337.631 125.455 339.472 125.966 341.699 125.966ZM401.955 136.023C396.591 136.023 391.977 134.886 388.114 132.614C384.273 130.318 381.318 127.136 379.25 123.068C377.205 119 376.182 114.318 376.182 109.023C376.182 103.659 377.216 98.9545 379.284 94.9091C381.375 90.8409 384.341 87.6705 388.182 85.3977C392.023 83.1023 396.591 81.9545 401.886 81.9545C406.455 81.9545 410.455 82.7841 413.886 84.4432C417.318 86.1023 420.034 88.4318 422.034 91.4318C424.034 94.4318 425.136 97.9545 425.341 102H411.636C411.25 99.3864 410.227 97.2841 408.568 95.6932C406.932 94.0795 404.784 93.2727 402.125 93.2727C399.875 93.2727 397.909 93.8864 396.227 95.1136C394.568 96.3182 393.273 98.0795 392.341 100.398C391.409 102.716 390.943 105.523 390.943 108.818C390.943 112.159 391.398 115 392.307 117.341C393.239 119.682 394.545 121.466 396.227 122.693C397.909 123.92 399.875 124.534 402.125 124.534C403.784 124.534 405.273 124.193 406.591 123.511C407.932 122.83 409.034 121.841 409.898 120.545C410.784 119.227 411.364 117.648 411.636 115.807H425.341C425.114 119.807 424.023 123.33 422.068 126.375C420.136 129.398 417.466 131.761 414.057 133.466C410.648 135.17 406.614 136.023 401.955 136.023ZM458.503 136.023C453.116 136.023 448.48 134.932 444.594 132.75C440.73 130.545 437.753 127.432 435.662 123.409C433.571 119.364 432.526 114.58 432.526 109.057C432.526 103.67 433.571 98.9432 435.662 94.875C437.753 90.8068 440.696 87.6364 444.491 85.3636C448.31 83.0909 452.787 81.9545 457.923 81.9545C461.378 81.9545 464.594 82.5114 467.571 83.625C470.571 84.7159 473.185 86.3636 475.412 88.5682C477.662 90.7727 479.412 93.5455 480.662 96.8864C481.912 100.205 482.537 104.091 482.537 108.545V112.534H438.321V103.534H468.866C468.866 101.443 468.412 99.5909 467.503 97.9773C466.594 96.3636 465.332 95.1023 463.719 94.1932C462.128 93.2614 460.276 92.7955 458.162 92.7955C455.957 92.7955 454.003 93.3068 452.298 94.3295C450.616 95.3295 449.298 96.6818 448.344 98.3864C447.389 100.068 446.901 101.943 446.878 104.011V112.568C446.878 115.159 447.355 117.398 448.31 119.284C449.287 121.17 450.662 122.625 452.435 123.648C454.207 124.67 456.31 125.182 458.741 125.182C460.355 125.182 461.832 124.955 463.173 124.5C464.514 124.045 465.662 123.364 466.616 122.455C467.571 121.545 468.298 120.432 468.798 119.114L482.23 120C481.548 123.227 480.151 126.045 478.037 128.455C475.946 130.841 473.241 132.705 469.923 134.045C466.628 135.364 462.821 136.023 458.503 136.023Z" fill="white"/>
<path d="M56.8182 177V153.727H70.7727V156.227H59.6364V164.091H69.7273V166.591H59.6364V177H56.8182ZM75.5994 177V153.727H83.4631C85.2813 153.727 86.7737 154.038 87.9403 154.659C89.107 155.273 89.9706 156.117 90.5312 157.193C91.0919 158.269 91.3722 159.492 91.3722 160.864C91.3722 162.235 91.0919 163.451 90.5312 164.511C89.9706 165.572 89.1108 166.405 87.9517 167.011C86.7926 167.61 85.3116 167.909 83.5085 167.909H77.1449V165.364H83.4176C84.66 165.364 85.66 165.182 86.4176 164.818C87.1828 164.455 87.7358 163.939 88.0767 163.273C88.4252 162.598 88.5994 161.795 88.5994 160.864C88.5994 159.932 88.4252 159.117 88.0767 158.42C87.7282 157.723 87.1714 157.186 86.4062 156.807C85.6411 156.42 84.6297 156.227 83.3722 156.227H78.4176V177H75.5994ZM86.554 166.545L92.2812 177H89.0085L83.3722 166.545H86.554ZM115.705 165.364C115.705 167.818 115.261 169.939 114.375 171.727C113.489 173.515 112.273 174.894 110.727 175.864C109.182 176.833 107.417 177.318 105.432 177.318C103.447 177.318 101.682 176.833 100.136 175.864C98.5909 174.894 97.375 173.515 96.4886 171.727C95.6023 169.939 95.1591 167.818 95.1591 165.364C95.1591 162.909 95.6023 160.788 96.4886 159C97.375 157.212 98.5909 155.833 100.136 154.864C101.682 153.894 103.447 153.409 105.432 153.409C107.417 153.409 109.182 153.894 110.727 154.864C112.273 155.833 113.489 157.212 114.375 159C115.261 160.788 115.705 162.909 115.705 165.364ZM112.977 165.364C112.977 163.348 112.64 161.648 111.966 160.261C111.299 158.875 110.394 157.826 109.25 157.114C108.114 156.402 106.841 156.045 105.432 156.045C104.023 156.045 102.746 156.402 101.602 157.114C100.466 157.826 99.5606 158.875 98.8864 160.261C98.2197 161.648 97.8864 163.348 97.8864 165.364C97.8864 167.379 98.2197 169.08 98.8864 170.466C99.5606 171.852 100.466 172.902 101.602 173.614C102.746 174.326 104.023 174.682 105.432 174.682C106.841 174.682 108.114 174.326 109.25 173.614C110.394 172.902 111.299 171.852 111.966 170.466C112.64 169.08 112.977 167.379 112.977 165.364ZM138.898 153.727V177H136.17L123.489 158.727H123.261V177H120.443V153.727H123.17L135.898 172.045H136.125V153.727H138.898ZM143.264 156.227V153.727H160.719V156.227H153.401V177H150.582V156.227H143.264ZM165.068 177V153.727H179.114V156.227H167.886V164.091H178.386V166.591H167.886V174.5H179.295V177H165.068ZM202.648 153.727V177H199.92L187.239 158.727H187.011V177H184.193V153.727H186.92L199.648 172.045H199.875V153.727H202.648ZM215.469 177H208.287V153.727H215.787C218.045 153.727 219.976 154.193 221.582 155.125C223.188 156.049 224.42 157.379 225.276 159.114C226.132 160.841 226.56 162.909 226.56 165.318C226.56 167.742 226.128 169.83 225.264 171.58C224.401 173.322 223.143 174.663 221.491 175.602C219.84 176.534 217.832 177 215.469 177ZM211.105 174.5H215.287C217.211 174.5 218.806 174.129 220.071 173.386C221.336 172.644 222.279 171.587 222.901 170.216C223.522 168.845 223.832 167.212 223.832 165.318C223.832 163.439 223.526 161.822 222.912 160.466C222.298 159.102 221.382 158.057 220.162 157.33C218.942 156.595 217.423 156.227 215.605 156.227H211.105V174.5Z" fill="white"/>
</g>
<defs>
<radialGradient id="paint0_radial_724_282" cx="0" cy="0" r="1" gradientUnits="userSpaceOnUse" gradientTransform="translate(406.5 -52) rotate(90) scale(281 347.5)">
<stop stop-color="#AF71FF"/>
<stop offset="1" stop-color="#4C3F78" stop-opacity="0"/>
</radialGradient>
<radialGradient id="paint1_radial_724_282" cx="0" cy="0" r="1" gradientUnits="userSpaceOnUse" gradientTransform="translate(45.8513 410.766) rotate(90) scale(490.769 300.101)">
<stop stop-color="#AF71FF"/>
<stop offset="1" stop-color="#4C3F78" stop-opacity="0"/>
</radialGradient>
<radialGradient id="paint2_radial_724_282" cx="0" cy="0" r="1" gradientUnits="userSpaceOnUse" gradientTransform="translate(936.084 416.988) rotate(90) scale(531.613 501.394)">
<stop stop-color="#AF71FF"/>
<stop offset="1" stop-color="#4C3F78" stop-opacity="0"/>
</radialGradient>
<clipPath id="clip0_724_282">
<rect width="1080" height="247" rx="32" fill="white"/>
</clipPath>
<clipPath id="clip1_724_282">
<rect width="132" height="50" fill="white" transform="translate(882 135)"/>
</clipPath>
</defs>
</svg>
