<svg width="1080" height="247" viewBox="0 0 1080 247" fill="none" xmlns="http://www.w3.org/2000/svg">
<g clip-path="url(#clip0_730_339)">
<rect width="1080" height="247" rx="32" fill="#1F1F24"/>
<g opacity="0.6">
<ellipse opacity="0.7" cx="406.5" cy="-52" rx="347.5" ry="281" fill="url(#paint0_radial_730_339)"/>
<ellipse opacity="0.7" cx="45.8513" cy="410.766" rx="300.101" ry="490.769" transform="rotate(29.0906 45.8513 410.766)" fill="url(#paint1_radial_730_339)"/>
<ellipse opacity="0.7" cx="936.084" cy="416.988" rx="501.394" ry="531.613" transform="rotate(5.98411 936.084 416.988)" fill="url(#paint2_radial_730_339)"/>
</g>
<g clip-path="url(#clip1_730_339)">
<path d="M994.017 144.981H985.84L995.808 135H981.82L971.912 144.978H957.99L948.075 135H934.087L944.058 144.985L924.078 164.991L934.07 174.995H905.927L895.992 164.991L905.927 154.986H920.025L930.003 144.985L920.085 135H906.097L916.065 144.981H901.983L882 164.991L901.983 185H951.942L971.925 164.991L961.933 154.986H990.077L1000.01 164.991L990.077 174.995H975.978L965.997 185H994.017L1014 164.991L994.017 144.981ZM948.002 174.995L938.067 164.991L948.002 154.986L957.937 164.991L948.002 174.995Z" fill="white"/>
</g>
<path d="M65.0682 135V65.1818H79.8295V122.83H109.761V135H65.0682ZM119.264 135V82.6364H133.787V135H119.264ZM126.56 75.8864C124.401 75.8864 122.548 75.1705 121.003 73.7386C119.48 72.2841 118.719 70.5455 118.719 68.5227C118.719 66.5227 119.48 64.8068 121.003 63.375C122.548 61.9205 124.401 61.1932 126.56 61.1932C128.719 61.1932 130.56 61.9205 132.082 63.375C133.628 64.8068 134.401 66.5227 134.401 68.5227C134.401 70.5455 133.628 72.2841 132.082 73.7386C130.56 75.1705 128.719 75.8864 126.56 75.8864ZM169.08 136.023C163.716 136.023 159.102 134.886 155.239 132.614C151.398 130.318 148.443 127.136 146.375 123.068C144.33 119 143.307 114.318 143.307 109.023C143.307 103.659 144.341 98.9545 146.409 94.9091C148.5 90.8409 151.466 87.6705 155.307 85.3977C159.148 83.1023 163.716 81.9545 169.011 81.9545C173.58 81.9545 177.58 82.7841 181.011 84.4432C184.443 86.1023 187.159 88.4318 189.159 91.4318C191.159 94.4318 192.261 97.9545 192.466 102H178.761C178.375 99.3864 177.352 97.2841 175.693 95.6932C174.057 94.0795 171.909 93.2727 169.25 93.2727C167 93.2727 165.034 93.8864 163.352 95.1136C161.693 96.3182 160.398 98.0795 159.466 100.398C158.534 102.716 158.068 105.523 158.068 108.818C158.068 112.159 158.523 115 159.432 117.341C160.364 119.682 161.67 121.466 163.352 122.693C165.034 123.92 167 124.534 169.25 124.534C170.909 124.534 172.398 124.193 173.716 123.511C175.057 122.83 176.159 121.841 177.023 120.545C177.909 119.227 178.489 117.648 178.761 115.807H192.466C192.239 119.807 191.148 123.33 189.193 126.375C187.261 129.398 184.591 131.761 181.182 133.466C177.773 135.17 173.739 136.023 169.08 136.023ZM225.628 136.023C220.241 136.023 215.605 134.932 211.719 132.75C207.855 130.545 204.878 127.432 202.787 123.409C200.696 119.364 199.651 114.58 199.651 109.057C199.651 103.67 200.696 98.9432 202.787 94.875C204.878 90.8068 207.821 87.6364 211.616 85.3636C215.435 83.0909 219.912 81.9545 225.048 81.9545C228.503 81.9545 231.719 82.5114 234.696 83.625C237.696 84.7159 240.31 86.3636 242.537 88.5682C244.787 90.7727 246.537 93.5455 247.787 96.8864C249.037 100.205 249.662 104.091 249.662 108.545V112.534H205.446V103.534H235.991C235.991 101.443 235.537 99.5909 234.628 97.9773C233.719 96.3636 232.457 95.1023 230.844 94.1932C229.253 93.2614 227.401 92.7955 225.287 92.7955C223.082 92.7955 221.128 93.3068 219.423 94.3295C217.741 95.3295 216.423 96.6818 215.469 98.3864C214.514 100.068 214.026 101.943 214.003 104.011V112.568C214.003 115.159 214.48 117.398 215.435 119.284C216.412 121.17 217.787 122.625 219.56 123.648C221.332 124.67 223.435 125.182 225.866 125.182C227.48 125.182 228.957 124.955 230.298 124.5C231.639 124.045 232.787 123.364 233.741 122.455C234.696 121.545 235.423 120.432 235.923 119.114L249.355 120C248.673 123.227 247.276 126.045 245.162 128.455C243.071 130.841 240.366 132.705 237.048 134.045C233.753 135.364 229.946 136.023 225.628 136.023ZM273.662 104.727V135H259.139V82.6364H272.98V91.875H273.594C274.753 88.8295 276.696 86.4205 279.423 84.6477C282.151 82.8523 285.457 81.9545 289.344 81.9545C292.98 81.9545 296.151 82.75 298.855 84.3409C301.56 85.9318 303.662 88.2045 305.162 91.1591C306.662 94.0909 307.412 97.5909 307.412 101.659V135H292.889V104.25C292.912 101.045 292.094 98.5455 290.435 96.75C288.776 94.9318 286.491 94.0227 283.582 94.0227C281.628 94.0227 279.901 94.4432 278.401 95.2841C276.923 96.125 275.764 97.3523 274.923 98.9659C274.105 100.557 273.685 102.477 273.662 104.727ZM362.426 97.5682L349.131 98.3864C348.903 97.25 348.415 96.2273 347.665 95.3182C346.915 94.3864 345.926 93.6477 344.699 93.1023C343.494 92.5341 342.051 92.25 340.369 92.25C338.119 92.25 336.222 92.7273 334.676 93.6818C333.131 94.6136 332.358 95.8636 332.358 97.4318C332.358 98.6818 332.858 99.7386 333.858 100.602C334.858 101.466 336.574 102.159 339.006 102.682L348.483 104.591C353.574 105.636 357.369 107.318 359.869 109.636C362.369 111.955 363.619 115 363.619 118.773C363.619 122.205 362.608 125.216 360.585 127.807C358.585 130.398 355.835 132.42 352.335 133.875C348.858 135.307 344.847 136.023 340.301 136.023C333.369 136.023 327.847 134.58 323.733 131.693C319.642 128.784 317.244 124.83 316.54 119.83L330.824 119.08C331.256 121.193 332.301 122.807 333.96 123.92C335.619 125.011 337.744 125.557 340.335 125.557C342.881 125.557 344.926 125.068 346.472 124.091C348.04 123.091 348.835 121.807 348.858 120.239C348.835 118.92 348.278 117.841 347.188 117C346.097 116.136 344.415 115.477 342.142 115.023L333.074 113.216C327.96 112.193 324.153 110.42 321.653 107.898C319.176 105.375 317.938 102.159 317.938 98.25C317.938 94.8864 318.847 91.9886 320.665 89.5568C322.506 87.125 325.085 85.25 328.403 83.9318C331.744 82.6136 335.653 81.9545 340.131 81.9545C346.744 81.9545 351.949 83.3523 355.744 86.1477C359.563 88.9432 361.79 92.75 362.426 97.5682ZM396.628 136.023C391.241 136.023 386.605 134.932 382.719 132.75C378.855 130.545 375.878 127.432 373.787 123.409C371.696 119.364 370.651 114.58 370.651 109.057C370.651 103.67 371.696 98.9432 373.787 94.875C375.878 90.8068 378.821 87.6364 382.616 85.3636C386.435 83.0909 390.912 81.9545 396.048 81.9545C399.503 81.9545 402.719 82.5114 405.696 83.625C408.696 84.7159 411.31 86.3636 413.537 88.5682C415.787 90.7727 417.537 93.5455 418.787 96.8864C420.037 100.205 420.662 104.091 420.662 108.545V112.534H376.446V103.534H406.991C406.991 101.443 406.537 99.5909 405.628 97.9773C404.719 96.3636 403.457 95.1023 401.844 94.1932C400.253 93.2614 398.401 92.7955 396.287 92.7955C394.082 92.7955 392.128 93.3068 390.423 94.3295C388.741 95.3295 387.423 96.6818 386.469 98.3864C385.514 100.068 385.026 101.943 385.003 104.011V112.568C385.003 115.159 385.48 117.398 386.435 119.284C387.412 121.17 388.787 122.625 390.56 123.648C392.332 124.67 394.435 125.182 396.866 125.182C398.48 125.182 399.957 124.955 401.298 124.5C402.639 124.045 403.787 123.364 404.741 122.455C405.696 121.545 406.423 120.432 406.923 119.114L420.355 120C419.673 123.227 418.276 126.045 416.162 128.455C414.071 130.841 411.366 132.705 408.048 134.045C404.753 135.364 400.946 136.023 396.628 136.023Z" fill="white"/>
<path d="M61.8182 185V161.727H69.9545C71.5758 161.727 72.9129 162.008 73.9659 162.568C75.0189 163.121 75.803 163.867 76.3182 164.807C76.8333 165.739 77.0909 166.773 77.0909 167.909C77.0909 168.909 76.9129 169.735 76.5568 170.386C76.2083 171.038 75.7462 171.553 75.1705 171.932C74.6023 172.311 73.9848 172.591 73.3182 172.773V173C74.0303 173.045 74.7462 173.295 75.4659 173.75C76.1856 174.205 76.7879 174.856 77.2727 175.705C77.7576 176.553 78 177.591 78 178.818C78 179.985 77.7348 181.034 77.2045 181.966C76.6742 182.898 75.8371 183.636 74.6932 184.182C73.5492 184.727 72.0606 185 70.2273 185H61.8182ZM64.6364 182.5H70.2273C72.0682 182.5 73.375 182.144 74.1477 181.432C74.928 180.712 75.3182 179.841 75.3182 178.818C75.3182 178.03 75.1174 177.303 74.7159 176.636C74.3144 175.962 73.7424 175.424 73 175.023C72.2576 174.614 71.3788 174.409 70.3636 174.409H64.6364V182.5ZM64.6364 171.955H69.8636C70.7121 171.955 71.4773 171.788 72.1591 171.455C72.8485 171.121 73.3939 170.652 73.7955 170.045C74.2045 169.439 74.4091 168.727 74.4091 167.909C74.4091 166.886 74.053 166.019 73.3409 165.307C72.6288 164.587 71.5 164.227 69.9545 164.227H64.6364V171.955ZM83.5852 185H80.6307L89.1761 161.727H92.0852L100.631 185H97.6761L90.7216 165.409H90.5398L83.5852 185ZM84.6761 175.909H96.5852V178.409H84.6761V175.909ZM121.889 169H119.071C118.904 168.189 118.613 167.477 118.196 166.864C117.787 166.25 117.287 165.735 116.696 165.318C116.113 164.894 115.465 164.576 114.753 164.364C114.041 164.152 113.298 164.045 112.526 164.045C111.116 164.045 109.84 164.402 108.696 165.114C107.56 165.826 106.654 166.875 105.98 168.261C105.313 169.648 104.98 171.348 104.98 173.364C104.98 175.379 105.313 177.08 105.98 178.466C106.654 179.852 107.56 180.902 108.696 181.614C109.84 182.326 111.116 182.682 112.526 182.682C113.298 182.682 114.041 182.576 114.753 182.364C115.465 182.152 116.113 181.837 116.696 181.42C117.287 180.996 117.787 180.477 118.196 179.864C118.613 179.242 118.904 178.53 119.071 177.727H121.889C121.677 178.917 121.291 179.981 120.73 180.92C120.17 181.86 119.473 182.659 118.639 183.318C117.806 183.97 116.87 184.466 115.832 184.807C114.802 185.148 113.7 185.318 112.526 185.318C110.541 185.318 108.776 184.833 107.23 183.864C105.685 182.894 104.469 181.515 103.582 179.727C102.696 177.939 102.253 175.818 102.253 173.364C102.253 170.909 102.696 168.788 103.582 167C104.469 165.212 105.685 163.833 107.23 162.864C108.776 161.894 110.541 161.409 112.526 161.409C113.7 161.409 114.802 161.58 115.832 161.92C116.87 162.261 117.806 162.761 118.639 163.42C119.473 164.072 120.17 164.867 120.73 165.807C121.291 166.739 121.677 167.803 121.889 169ZM126.443 185V161.727H129.261V173.273H129.534L139.989 161.727H143.67L133.898 172.227L143.67 185H140.261L132.17 174.182L129.261 177.455V185H126.443ZM147.318 185V161.727H161.364V164.227H150.136V172.091H160.636V174.591H150.136V182.5H161.545V185H147.318ZM184.898 161.727V185H182.17L169.489 166.727H169.261V185H166.443V161.727H169.17L181.898 180.045H182.125V161.727H184.898ZM197.719 185H190.537V161.727H198.037C200.295 161.727 202.226 162.193 203.832 163.125C205.438 164.049 206.67 165.379 207.526 167.114C208.382 168.841 208.81 170.909 208.81 173.318C208.81 175.742 208.378 177.83 207.514 179.58C206.651 181.322 205.393 182.663 203.741 183.602C202.09 184.534 200.082 185 197.719 185ZM193.355 182.5H197.537C199.461 182.5 201.056 182.129 202.321 181.386C203.586 180.644 204.529 179.587 205.151 178.216C205.772 176.845 206.082 175.212 206.082 173.318C206.082 171.439 205.776 169.822 205.162 168.466C204.548 167.102 203.632 166.057 202.412 165.33C201.192 164.595 199.673 164.227 197.855 164.227H193.355V182.5ZM228.991 180.909V165.909H231.537V180.909H228.991ZM222.764 174.682V172.136H237.764V174.682H222.764ZM252.631 185V161.727H266.585V164.227H255.449V172.091H265.54V174.591H255.449V185H252.631ZM271.412 185V161.727H279.276C281.094 161.727 282.586 162.038 283.753 162.659C284.92 163.273 285.783 164.117 286.344 165.193C286.904 166.269 287.185 167.492 287.185 168.864C287.185 170.235 286.904 171.451 286.344 172.511C285.783 173.572 284.923 174.405 283.764 175.011C282.605 175.61 281.124 175.909 279.321 175.909H272.957V173.364H279.23C280.473 173.364 281.473 173.182 282.23 172.818C282.995 172.455 283.548 171.939 283.889 171.273C284.238 170.598 284.412 169.795 284.412 168.864C284.412 167.932 284.238 167.117 283.889 166.42C283.541 165.723 282.984 165.186 282.219 164.807C281.454 164.42 280.442 164.227 279.185 164.227H274.23V185H271.412ZM282.366 174.545L288.094 185H284.821L279.185 174.545H282.366ZM311.517 173.364C311.517 175.818 311.074 177.939 310.188 179.727C309.301 181.515 308.085 182.894 306.54 183.864C304.994 184.833 303.229 185.318 301.244 185.318C299.259 185.318 297.494 184.833 295.949 183.864C294.403 182.894 293.188 181.515 292.301 179.727C291.415 177.939 290.972 175.818 290.972 173.364C290.972 170.909 291.415 168.788 292.301 167C293.188 165.212 294.403 163.833 295.949 162.864C297.494 161.894 299.259 161.409 301.244 161.409C303.229 161.409 304.994 161.894 306.54 162.864C308.085 163.833 309.301 165.212 310.188 167C311.074 168.788 311.517 170.909 311.517 173.364ZM308.79 173.364C308.79 171.348 308.453 169.648 307.778 168.261C307.112 166.875 306.206 165.826 305.062 165.114C303.926 164.402 302.653 164.045 301.244 164.045C299.835 164.045 298.559 164.402 297.415 165.114C296.278 165.826 295.373 166.875 294.699 168.261C294.032 169.648 293.699 171.348 293.699 173.364C293.699 175.379 294.032 177.08 294.699 178.466C295.373 179.852 296.278 180.902 297.415 181.614C298.559 182.326 299.835 182.682 301.244 182.682C302.653 182.682 303.926 182.326 305.062 181.614C306.206 180.902 307.112 179.852 307.778 178.466C308.453 177.08 308.79 175.379 308.79 173.364ZM334.71 161.727V185H331.983L319.301 166.727H319.074V185H316.256V161.727H318.983L331.71 180.045H331.938V161.727H334.71ZM339.077 164.227V161.727H356.531V164.227H349.213V185H346.395V164.227H339.077ZM360.881 185V161.727H374.926V164.227H363.699V172.091H374.199V174.591H363.699V182.5H375.108V185H360.881ZM398.46 161.727V185H395.733L383.051 166.727H382.824V185H380.006V161.727H382.733L395.46 180.045H395.688V161.727H398.46ZM411.281 185H404.099V161.727H411.599C413.857 161.727 415.789 162.193 417.395 163.125C419.001 164.049 420.232 165.379 421.088 167.114C421.944 168.841 422.372 170.909 422.372 173.318C422.372 175.742 421.94 177.83 421.077 179.58C420.213 181.322 418.955 182.663 417.304 183.602C415.652 184.534 413.645 185 411.281 185ZM406.918 182.5H411.099C413.024 182.5 414.618 182.129 415.884 181.386C417.149 180.644 418.092 179.587 418.713 178.216C419.334 176.845 419.645 175.212 419.645 173.318C419.645 171.439 419.338 169.822 418.724 168.466C418.111 167.102 417.194 166.057 415.974 165.33C414.755 164.595 413.236 164.227 411.418 164.227H406.918V182.5Z" fill="white"/>
</g>
<rect x="1" y="1" width="1078" height="245" rx="31" stroke="#CFCFE7" stroke-opacity="0.1" stroke-width="2"/>
<defs>
<radialGradient id="paint0_radial_730_339" cx="0" cy="0" r="1" gradientUnits="userSpaceOnUse" gradientTransform="translate(406.5 -52) rotate(90) scale(281 347.5)">
<stop stop-color="#AF71FF"/>
<stop offset="1" stop-color="#4C3F78" stop-opacity="0"/>
</radialGradient>
<radialGradient id="paint1_radial_730_339" cx="0" cy="0" r="1" gradientUnits="userSpaceOnUse" gradientTransform="translate(45.8513 410.766) rotate(90) scale(490.769 300.101)">
<stop stop-color="#AF71FF"/>
<stop offset="1" stop-color="#4C3F78" stop-opacity="0"/>
</radialGradient>
<radialGradient id="paint2_radial_730_339" cx="0" cy="0" r="1" gradientUnits="userSpaceOnUse" gradientTransform="translate(936.084 416.988) rotate(90) scale(531.613 501.394)">
<stop stop-color="#AF71FF"/>
<stop offset="1" stop-color="#4C3F78" stop-opacity="0"/>
</radialGradient>
<clipPath id="clip0_730_339">
<rect width="1080" height="247" rx="32" fill="white"/>
</clipPath>
<clipPath id="clip1_730_339">
<rect width="132" height="50" fill="white" transform="translate(882 135)"/>
</clipPath>
</defs>
</svg>
