<svg width="1080" height="247" viewBox="0 0 1080 247" fill="none" xmlns="http://www.w3.org/2000/svg">
<g clip-path="url(#clip0_735_610)">
<rect width="1080" height="247" rx="32" fill="#1F1F24"/>
<g opacity="0.6">
<ellipse opacity="0.7" cx="406.5" cy="-52" rx="347.5" ry="281" fill="url(#paint0_radial_735_610)"/>
<ellipse opacity="0.7" cx="45.8513" cy="410.766" rx="300.101" ry="490.769" transform="rotate(29.0906 45.8513 410.766)" fill="url(#paint1_radial_735_610)"/>
<ellipse opacity="0.7" cx="936.084" cy="416.988" rx="501.394" ry="531.613" transform="rotate(5.98411 936.084 416.988)" fill="url(#paint2_radial_735_610)"/>
</g>
<g clip-path="url(#clip1_735_610)">
<path d="M994.017 144.981H985.84L995.808 135H981.82L971.912 144.978H957.99L948.075 135H934.087L944.058 144.985L924.078 164.991L934.07 174.995H905.927L895.992 164.991L905.927 154.986H920.025L930.003 144.985L920.085 135H906.097L916.065 144.981H901.983L882 164.991L901.983 185H951.942L971.925 164.991L961.933 154.986H990.077L1000.01 164.991L990.077 174.995H975.978L965.997 185H994.017L1014 164.991L994.017 144.981ZM948.002 174.995L938.067 164.991L948.002 154.986L957.937 164.991L948.002 174.995Z" fill="white"/>
</g>
<path d="M123.466 65.1818V135H110.716L80.3409 91.0568H79.8295V135H65.0682V65.1818H78.0227L108.159 109.091H108.773V65.1818H123.466ZM150.321 135.989C146.98 135.989 144.003 135.409 141.389 134.25C138.776 133.068 136.707 131.33 135.185 129.034C133.685 126.716 132.935 123.83 132.935 120.375C132.935 117.466 133.469 115.023 134.537 113.045C135.605 111.068 137.06 109.477 138.901 108.273C140.741 107.068 142.832 106.159 145.173 105.545C147.537 104.932 150.014 104.5 152.605 104.25C155.651 103.932 158.105 103.636 159.969 103.364C161.832 103.068 163.185 102.636 164.026 102.068C164.866 101.5 165.287 100.659 165.287 99.5455V99.3409C165.287 97.1818 164.605 95.5114 163.241 94.3295C161.901 93.1477 159.991 92.5568 157.514 92.5568C154.901 92.5568 152.821 93.1364 151.276 94.2955C149.73 95.4318 148.707 96.8636 148.207 98.5909L134.776 97.5C135.457 94.3182 136.798 91.5682 138.798 89.25C140.798 86.9091 143.378 85.1136 146.537 83.8636C149.719 82.5909 153.401 81.9545 157.582 81.9545C160.491 81.9545 163.276 82.2955 165.935 82.9773C168.616 83.6591 170.991 84.7159 173.06 86.1477C175.151 87.5795 176.798 89.4205 178.003 91.6705C179.207 93.8977 179.81 96.5682 179.81 99.6818V135H166.037V127.739H165.628C164.787 129.375 163.662 130.818 162.253 132.068C160.844 133.295 159.151 134.261 157.173 134.966C155.196 135.648 152.912 135.989 150.321 135.989ZM154.48 125.966C156.616 125.966 158.503 125.545 160.139 124.705C161.776 123.841 163.06 122.682 163.991 121.227C164.923 119.773 165.389 118.125 165.389 116.284V110.727C164.935 111.023 164.31 111.295 163.514 111.545C162.741 111.773 161.866 111.989 160.889 112.193C159.912 112.375 158.935 112.545 157.957 112.705C156.98 112.841 156.094 112.966 155.298 113.08C153.594 113.33 152.105 113.727 150.832 114.273C149.56 114.818 148.571 115.557 147.866 116.489C147.162 117.398 146.81 118.534 146.81 119.898C146.81 121.875 147.526 123.386 148.957 124.432C150.412 125.455 152.253 125.966 154.48 125.966ZM238.02 82.6364L219.713 135H203.349L185.043 82.6364H200.384L211.259 120.102H211.804L222.645 82.6364H238.02ZM245.452 135V82.6364H259.974V135H245.452ZM252.747 75.8864C250.588 75.8864 248.736 75.1705 247.19 73.7386C245.668 72.2841 244.906 70.5455 244.906 68.5227C244.906 66.5227 245.668 64.8068 247.19 63.375C248.736 61.9205 250.588 61.1932 252.747 61.1932C254.906 61.1932 256.747 61.9205 258.27 63.375C259.815 64.8068 260.588 66.5227 260.588 68.5227C260.588 70.5455 259.815 72.2841 258.27 73.7386C256.747 75.1705 254.906 75.8864 252.747 75.8864ZM295.199 155.727C290.494 155.727 286.46 155.08 283.097 153.784C279.756 152.511 277.097 150.773 275.119 148.568C273.142 146.364 271.858 143.886 271.267 141.136L284.699 139.33C285.108 140.375 285.756 141.352 286.642 142.261C287.528 143.17 288.699 143.898 290.153 144.443C291.631 145.011 293.426 145.295 295.54 145.295C298.699 145.295 301.301 144.523 303.347 142.977C305.415 141.455 306.449 138.898 306.449 135.307V125.727H305.835C305.199 127.182 304.244 128.557 302.972 129.852C301.699 131.148 300.062 132.205 298.062 133.023C296.062 133.841 293.676 134.25 290.903 134.25C286.972 134.25 283.392 133.341 280.165 131.523C276.96 129.682 274.403 126.875 272.494 123.102C270.608 119.307 269.665 114.511 269.665 108.716C269.665 102.784 270.631 97.8295 272.562 93.8523C274.494 89.875 277.063 86.8977 280.267 84.9205C283.494 82.9432 287.028 81.9545 290.869 81.9545C293.801 81.9545 296.256 82.4545 298.233 83.4545C300.21 84.4318 301.801 85.6591 303.006 87.1364C304.233 88.5909 305.176 90.0227 305.835 91.4318H306.381V82.6364H320.801V135.511C320.801 139.966 319.71 143.693 317.528 146.693C315.347 149.693 312.324 151.943 308.46 153.443C304.619 154.966 300.199 155.727 295.199 155.727ZM295.506 123.341C297.847 123.341 299.824 122.761 301.438 121.602C303.074 120.42 304.324 118.739 305.188 116.557C306.074 114.352 306.517 111.716 306.517 108.648C306.517 105.58 306.085 102.92 305.222 100.67C304.358 98.3977 303.108 96.6364 301.472 95.3864C299.835 94.1364 297.847 93.5114 295.506 93.5114C293.119 93.5114 291.108 94.1591 289.472 95.4545C287.835 96.7273 286.597 98.5 285.756 100.773C284.915 103.045 284.494 105.67 284.494 108.648C284.494 111.67 284.915 114.284 285.756 116.489C286.619 118.67 287.858 120.364 289.472 121.568C291.108 122.75 293.119 123.341 295.506 123.341ZM347.29 135.989C343.949 135.989 340.972 135.409 338.358 134.25C335.744 133.068 333.676 131.33 332.153 129.034C330.653 126.716 329.903 123.83 329.903 120.375C329.903 117.466 330.438 115.023 331.506 113.045C332.574 111.068 334.028 109.477 335.869 108.273C337.71 107.068 339.801 106.159 342.142 105.545C344.506 104.932 346.983 104.5 349.574 104.25C352.619 103.932 355.074 103.636 356.938 103.364C358.801 103.068 360.153 102.636 360.994 102.068C361.835 101.5 362.256 100.659 362.256 99.5455V99.3409C362.256 97.1818 361.574 95.5114 360.21 94.3295C358.869 93.1477 356.96 92.5568 354.483 92.5568C351.869 92.5568 349.79 93.1364 348.244 94.2955C346.699 95.4318 345.676 96.8636 345.176 98.5909L331.744 97.5C332.426 94.3182 333.767 91.5682 335.767 89.25C337.767 86.9091 340.347 85.1136 343.506 83.8636C346.688 82.5909 350.369 81.9545 354.551 81.9545C357.46 81.9545 360.244 82.2955 362.903 82.9773C365.585 83.6591 367.96 84.7159 370.028 86.1477C372.119 87.5795 373.767 89.4205 374.972 91.6705C376.176 93.8977 376.778 96.5682 376.778 99.6818V135H363.006V127.739H362.597C361.756 129.375 360.631 130.818 359.222 132.068C357.812 133.295 356.119 134.261 354.142 134.966C352.165 135.648 349.881 135.989 347.29 135.989ZM351.449 125.966C353.585 125.966 355.472 125.545 357.108 124.705C358.744 123.841 360.028 122.682 360.96 121.227C361.892 119.773 362.358 118.125 362.358 116.284V110.727C361.903 111.023 361.278 111.295 360.483 111.545C359.71 111.773 358.835 111.989 357.858 112.193C356.881 112.375 355.903 112.545 354.926 112.705C353.949 112.841 353.062 112.966 352.267 113.08C350.563 113.33 349.074 113.727 347.801 114.273C346.528 114.818 345.54 115.557 344.835 116.489C344.131 117.398 343.778 118.534 343.778 119.898C343.778 121.875 344.494 123.386 345.926 124.432C347.381 125.455 349.222 125.966 351.449 125.966ZM415.898 82.6364V93.5455H384.364V82.6364H415.898ZM391.523 70.0909H406.045V118.909C406.045 120.25 406.25 121.295 406.659 122.045C407.068 122.773 407.636 123.284 408.364 123.58C409.114 123.875 409.977 124.023 410.955 124.023C411.636 124.023 412.318 123.966 413 123.852C413.682 123.716 414.205 123.614 414.568 123.545L416.852 134.352C416.125 134.58 415.102 134.841 413.784 135.136C412.466 135.455 410.864 135.648 408.977 135.716C405.477 135.852 402.409 135.386 399.773 134.318C397.159 133.25 395.125 131.591 393.67 129.341C392.216 127.091 391.5 124.25 391.523 120.818V70.0909ZM425.358 135V82.6364H439.881V135H425.358ZM432.653 75.8864C430.494 75.8864 428.642 75.1705 427.097 73.7386C425.574 72.2841 424.812 70.5455 424.812 68.5227C424.812 66.5227 425.574 64.8068 427.097 63.375C428.642 61.9205 430.494 61.1932 432.653 61.1932C434.813 61.1932 436.653 61.9205 438.176 63.375C439.722 64.8068 440.494 66.5227 440.494 68.5227C440.494 70.5455 439.722 72.2841 438.176 73.7386C436.653 75.1705 434.813 75.8864 432.653 75.8864ZM475.173 136.023C469.878 136.023 465.298 134.898 461.435 132.648C457.594 130.375 454.628 127.216 452.537 123.17C450.446 119.102 449.401 114.386 449.401 109.023C449.401 103.614 450.446 98.8864 452.537 94.8409C454.628 90.7727 457.594 87.6136 461.435 85.3636C465.298 83.0909 469.878 81.9545 475.173 81.9545C480.469 81.9545 485.037 83.0909 488.878 85.3636C492.741 87.6136 495.719 90.7727 497.81 94.8409C499.901 98.8864 500.946 103.614 500.946 109.023C500.946 114.386 499.901 119.102 497.81 123.17C495.719 127.216 492.741 130.375 488.878 132.648C485.037 134.898 480.469 136.023 475.173 136.023ZM475.241 124.773C477.651 124.773 479.662 124.091 481.276 122.727C482.889 121.341 484.105 119.455 484.923 117.068C485.764 114.682 486.185 111.966 486.185 108.92C486.185 105.875 485.764 103.159 484.923 100.773C484.105 98.3864 482.889 96.5 481.276 95.1136C479.662 93.7273 477.651 93.0341 475.241 93.0341C472.81 93.0341 470.764 93.7273 469.105 95.1136C467.469 96.5 466.23 98.3864 465.389 100.773C464.571 103.159 464.162 105.875 464.162 108.92C464.162 111.966 464.571 114.682 465.389 117.068C466.23 119.455 467.469 121.341 469.105 122.727C470.764 124.091 472.81 124.773 475.241 124.773ZM524.912 104.727V135H510.389V82.6364H524.23V91.875H524.844C526.003 88.8295 527.946 86.4205 530.673 84.6477C533.401 82.8523 536.707 81.9545 540.594 81.9545C544.23 81.9545 547.401 82.75 550.105 84.3409C552.81 85.9318 554.912 88.2045 556.412 91.1591C557.912 94.0909 558.662 97.5909 558.662 101.659V135H544.139V104.25C544.162 101.045 543.344 98.5455 541.685 96.75C540.026 94.9318 537.741 94.0227 534.832 94.0227C532.878 94.0227 531.151 94.4432 529.651 95.2841C528.173 96.125 527.014 97.3523 526.173 98.9659C525.355 100.557 524.935 102.477 524.912 104.727Z" fill="white"/>
<path d="M61.8182 185V161.727H69.9545C71.5758 161.727 72.9129 162.008 73.9659 162.568C75.0189 163.121 75.803 163.867 76.3182 164.807C76.8333 165.739 77.0909 166.773 77.0909 167.909C77.0909 168.909 76.9129 169.735 76.5568 170.386C76.2083 171.038 75.7462 171.553 75.1705 171.932C74.6023 172.311 73.9848 172.591 73.3182 172.773V173C74.0303 173.045 74.7462 173.295 75.4659 173.75C76.1856 174.205 76.7879 174.856 77.2727 175.705C77.7576 176.553 78 177.591 78 178.818C78 179.985 77.7348 181.034 77.2045 181.966C76.6742 182.898 75.8371 183.636 74.6932 184.182C73.5492 184.727 72.0606 185 70.2273 185H61.8182ZM64.6364 182.5H70.2273C72.0682 182.5 73.375 182.144 74.1477 181.432C74.928 180.712 75.3182 179.841 75.3182 178.818C75.3182 178.03 75.1174 177.303 74.7159 176.636C74.3144 175.962 73.7424 175.424 73 175.023C72.2576 174.614 71.3788 174.409 70.3636 174.409H64.6364V182.5ZM64.6364 171.955H69.8636C70.7121 171.955 71.4773 171.788 72.1591 171.455C72.8485 171.121 73.3939 170.652 73.7955 170.045C74.2045 169.439 74.4091 168.727 74.4091 167.909C74.4091 166.886 74.053 166.019 73.3409 165.307C72.6288 164.587 71.5 164.227 69.9545 164.227H64.6364V171.955ZM83.5852 185H80.6307L89.1761 161.727H92.0852L100.631 185H97.6761L90.7216 165.409H90.5398L83.5852 185ZM84.6761 175.909H96.5852V178.409H84.6761V175.909ZM121.889 169H119.071C118.904 168.189 118.613 167.477 118.196 166.864C117.787 166.25 117.287 165.735 116.696 165.318C116.113 164.894 115.465 164.576 114.753 164.364C114.041 164.152 113.298 164.045 112.526 164.045C111.116 164.045 109.84 164.402 108.696 165.114C107.56 165.826 106.654 166.875 105.98 168.261C105.313 169.648 104.98 171.348 104.98 173.364C104.98 175.379 105.313 177.08 105.98 178.466C106.654 179.852 107.56 180.902 108.696 181.614C109.84 182.326 111.116 182.682 112.526 182.682C113.298 182.682 114.041 182.576 114.753 182.364C115.465 182.152 116.113 181.837 116.696 181.42C117.287 180.996 117.787 180.477 118.196 179.864C118.613 179.242 118.904 178.53 119.071 177.727H121.889C121.677 178.917 121.291 179.981 120.73 180.92C120.17 181.86 119.473 182.659 118.639 183.318C117.806 183.97 116.87 184.466 115.832 184.807C114.802 185.148 113.7 185.318 112.526 185.318C110.541 185.318 108.776 184.833 107.23 183.864C105.685 182.894 104.469 181.515 103.582 179.727C102.696 177.939 102.253 175.818 102.253 173.364C102.253 170.909 102.696 168.788 103.582 167C104.469 165.212 105.685 163.833 107.23 162.864C108.776 161.894 110.541 161.409 112.526 161.409C113.7 161.409 114.802 161.58 115.832 161.92C116.87 162.261 117.806 162.761 118.639 163.42C119.473 164.072 120.17 164.867 120.73 165.807C121.291 166.739 121.677 167.803 121.889 169ZM126.443 185V161.727H129.261V173.273H129.534L139.989 161.727H143.67L133.898 172.227L143.67 185H140.261L132.17 174.182L129.261 177.455V185H126.443ZM147.318 185V161.727H161.364V164.227H150.136V172.091H160.636V174.591H150.136V182.5H161.545V185H147.318ZM184.898 161.727V185H182.17L169.489 166.727H169.261V185H166.443V161.727H169.17L181.898 180.045H182.125V161.727H184.898ZM197.719 185H190.537V161.727H198.037C200.295 161.727 202.226 162.193 203.832 163.125C205.438 164.049 206.67 165.379 207.526 167.114C208.382 168.841 208.81 170.909 208.81 173.318C208.81 175.742 208.378 177.83 207.514 179.58C206.651 181.322 205.393 182.663 203.741 183.602C202.09 184.534 200.082 185 197.719 185ZM193.355 182.5H197.537C199.461 182.5 201.056 182.129 202.321 181.386C203.586 180.644 204.529 179.587 205.151 178.216C205.772 176.845 206.082 175.212 206.082 173.318C206.082 171.439 205.776 169.822 205.162 168.466C204.548 167.102 203.632 166.057 202.412 165.33C201.192 164.595 199.673 164.227 197.855 164.227H193.355V182.5ZM228.991 180.909V165.909H231.537V180.909H228.991ZM222.764 174.682V172.136H237.764V174.682H222.764ZM252.631 185V161.727H266.585V164.227H255.449V172.091H265.54V174.591H255.449V185H252.631ZM271.412 185V161.727H279.276C281.094 161.727 282.586 162.038 283.753 162.659C284.92 163.273 285.783 164.117 286.344 165.193C286.904 166.269 287.185 167.492 287.185 168.864C287.185 170.235 286.904 171.451 286.344 172.511C285.783 173.572 284.923 174.405 283.764 175.011C282.605 175.61 281.124 175.909 279.321 175.909H272.957V173.364H279.23C280.473 173.364 281.473 173.182 282.23 172.818C282.995 172.455 283.548 171.939 283.889 171.273C284.238 170.598 284.412 169.795 284.412 168.864C284.412 167.932 284.238 167.117 283.889 166.42C283.541 165.723 282.984 165.186 282.219 164.807C281.454 164.42 280.442 164.227 279.185 164.227H274.23V185H271.412ZM282.366 174.545L288.094 185H284.821L279.185 174.545H282.366ZM311.517 173.364C311.517 175.818 311.074 177.939 310.188 179.727C309.301 181.515 308.085 182.894 306.54 183.864C304.994 184.833 303.229 185.318 301.244 185.318C299.259 185.318 297.494 184.833 295.949 183.864C294.403 182.894 293.188 181.515 292.301 179.727C291.415 177.939 290.972 175.818 290.972 173.364C290.972 170.909 291.415 168.788 292.301 167C293.188 165.212 294.403 163.833 295.949 162.864C297.494 161.894 299.259 161.409 301.244 161.409C303.229 161.409 304.994 161.894 306.54 162.864C308.085 163.833 309.301 165.212 310.188 167C311.074 168.788 311.517 170.909 311.517 173.364ZM308.79 173.364C308.79 171.348 308.453 169.648 307.778 168.261C307.112 166.875 306.206 165.826 305.062 165.114C303.926 164.402 302.653 164.045 301.244 164.045C299.835 164.045 298.559 164.402 297.415 165.114C296.278 165.826 295.373 166.875 294.699 168.261C294.032 169.648 293.699 171.348 293.699 173.364C293.699 175.379 294.032 177.08 294.699 178.466C295.373 179.852 296.278 180.902 297.415 181.614C298.559 182.326 299.835 182.682 301.244 182.682C302.653 182.682 303.926 182.326 305.062 181.614C306.206 180.902 307.112 179.852 307.778 178.466C308.453 177.08 308.79 175.379 308.79 173.364ZM334.71 161.727V185H331.983L319.301 166.727H319.074V185H316.256V161.727H318.983L331.71 180.045H331.938V161.727H334.71ZM339.077 164.227V161.727H356.531V164.227H349.213V185H346.395V164.227H339.077ZM360.881 185V161.727H374.926V164.227H363.699V172.091H374.199V174.591H363.699V182.5H375.108V185H360.881ZM398.46 161.727V185H395.733L383.051 166.727H382.824V185H380.006V161.727H382.733L395.46 180.045H395.688V161.727H398.46ZM411.281 185H404.099V161.727H411.599C413.857 161.727 415.789 162.193 417.395 163.125C419.001 164.049 420.232 165.379 421.088 167.114C421.944 168.841 422.372 170.909 422.372 173.318C422.372 175.742 421.94 177.83 421.077 179.58C420.213 181.322 418.955 182.663 417.304 183.602C415.652 184.534 413.645 185 411.281 185ZM406.918 182.5H411.099C413.024 182.5 414.618 182.129 415.884 181.386C417.149 180.644 418.092 179.587 418.713 178.216C419.334 176.845 419.645 175.212 419.645 173.318C419.645 171.439 419.338 169.822 418.724 168.466C418.111 167.102 417.194 166.057 415.974 165.33C414.755 164.595 413.236 164.227 411.418 164.227H406.918V182.5Z" fill="white"/>
</g>
<rect x="1" y="1" width="1078" height="245" rx="31" stroke="#CFCFE7" stroke-opacity="0.1" stroke-width="2"/>
<defs>
<radialGradient id="paint0_radial_735_610" cx="0" cy="0" r="1" gradientUnits="userSpaceOnUse" gradientTransform="translate(406.5 -52) rotate(90) scale(281 347.5)">
<stop stop-color="#AF71FF"/>
<stop offset="1" stop-color="#4C3F78" stop-opacity="0"/>
</radialGradient>
<radialGradient id="paint1_radial_735_610" cx="0" cy="0" r="1" gradientUnits="userSpaceOnUse" gradientTransform="translate(45.8513 410.766) rotate(90) scale(490.769 300.101)">
<stop stop-color="#AF71FF"/>
<stop offset="1" stop-color="#4C3F78" stop-opacity="0"/>
</radialGradient>
<radialGradient id="paint2_radial_735_610" cx="0" cy="0" r="1" gradientUnits="userSpaceOnUse" gradientTransform="translate(936.084 416.988) rotate(90) scale(531.613 501.394)">
<stop stop-color="#AF71FF"/>
<stop offset="1" stop-color="#4C3F78" stop-opacity="0"/>
</radialGradient>
<clipPath id="clip0_735_610">
<rect width="1080" height="247" rx="32" fill="white"/>
</clipPath>
<clipPath id="clip1_735_610">
<rect width="132" height="50" fill="white" transform="translate(882 135)"/>
</clipPath>
</defs>
</svg>
