<svg width="1080" height="247" viewBox="0 0 1080 247" fill="none" xmlns="http://www.w3.org/2000/svg">
<g clip-path="url(#clip0_730_327)">
<rect width="1080" height="247" rx="32" fill="#1F1F24"/>
<g opacity="0.6">
<ellipse opacity="0.7" cx="406.5" cy="-52" rx="347.5" ry="281" fill="url(#paint0_radial_730_327)"/>
<ellipse opacity="0.7" cx="45.8513" cy="410.766" rx="300.101" ry="490.769" transform="rotate(29.0906 45.8513 410.766)" fill="url(#paint1_radial_730_327)"/>
<ellipse opacity="0.7" cx="936.084" cy="416.988" rx="501.394" ry="531.613" transform="rotate(5.98411 936.084 416.988)" fill="url(#paint2_radial_730_327)"/>
</g>
<g clip-path="url(#clip1_730_327)">
<path d="M994.017 144.981H985.84L995.808 135H981.82L971.912 144.978H957.99L948.075 135H934.087L944.058 144.985L924.078 164.991L934.07 174.995H905.927L895.992 164.991L905.927 154.986H920.025L930.003 144.985L920.085 135H906.097L916.065 144.981H901.983L882 164.991L901.983 185H951.942L971.925 164.991L961.933 154.986H990.077L1000.01 164.991L990.077 174.995H975.978L965.997 185H994.017L1014 164.991L994.017 144.981ZM948.002 174.995L938.067 164.991L948.002 154.986L957.937 164.991L948.002 174.995Z" fill="white"/>
</g>
<path d="M102.943 85.2614C102.67 82.5114 101.5 80.375 99.4318 78.8523C97.3636 77.3295 94.5568 76.5682 91.0114 76.5682C88.6023 76.5682 86.5682 76.9091 84.9091 77.5909C83.25 78.25 81.9773 79.1705 81.0909 80.3523C80.2273 81.5341 79.7955 82.875 79.7955 84.375C79.75 85.625 80.0114 86.7159 80.5795 87.6477C81.1705 88.5795 81.9773 89.3864 83 90.0682C84.0227 90.7273 85.2045 91.3068 86.5455 91.8068C87.8864 92.2841 89.3182 92.6932 90.8409 93.0341L97.1136 94.5341C100.159 95.2159 102.955 96.125 105.5 97.2614C108.045 98.3977 110.25 99.7955 112.114 101.455C113.977 103.114 115.42 105.068 116.443 107.318C117.489 109.568 118.023 112.148 118.045 115.057C118.023 119.33 116.932 123.034 114.773 126.17C112.636 129.284 109.545 131.705 105.5 133.432C101.477 135.136 96.625 135.989 90.9432 135.989C85.3068 135.989 80.3977 135.125 76.2159 133.398C72.0568 131.67 68.8068 129.114 66.4659 125.727C64.1477 122.318 62.9318 118.102 62.8182 113.08H77.1023C77.2614 115.42 77.9318 117.375 79.1136 118.943C80.3182 120.489 81.9205 121.659 83.9205 122.455C85.9432 123.227 88.2273 123.614 90.7727 123.614C93.2727 123.614 95.4432 123.25 97.2841 122.523C99.1477 121.795 100.591 120.784 101.614 119.489C102.636 118.193 103.148 116.705 103.148 115.023C103.148 113.455 102.682 112.136 101.75 111.068C100.841 110 99.5 109.091 97.7273 108.341C95.9773 107.591 93.8295 106.909 91.2841 106.295L83.6818 104.386C77.7955 102.955 73.1477 100.716 69.7386 97.6705C66.3295 94.625 64.6364 90.5227 64.6591 85.3636C64.6364 81.1364 65.7614 77.4432 68.0341 74.2841C70.3295 71.125 73.4773 68.6591 77.4773 66.8864C81.4773 65.1136 86.0227 64.2273 91.1136 64.2273C96.2955 64.2273 100.818 65.1136 104.682 66.8864C108.568 68.6591 111.591 71.125 113.75 74.2841C115.909 77.4432 117.023 81.1023 117.091 85.2614H102.943ZM151.565 136.023C146.179 136.023 141.543 134.932 137.656 132.75C133.793 130.545 130.815 127.432 128.724 123.409C126.634 119.364 125.588 114.58 125.588 109.057C125.588 103.67 126.634 98.9432 128.724 94.875C130.815 90.8068 133.759 87.6364 137.554 85.3636C141.372 83.0909 145.849 81.9545 150.986 81.9545C154.44 81.9545 157.656 82.5114 160.634 83.625C163.634 84.7159 166.247 86.3636 168.474 88.5682C170.724 90.7727 172.474 93.5455 173.724 96.8864C174.974 100.205 175.599 104.091 175.599 108.545V112.534H131.384V103.534H161.929C161.929 101.443 161.474 99.5909 160.565 97.9773C159.656 96.3636 158.395 95.1023 156.781 94.1932C155.19 93.2614 153.338 92.7955 151.224 92.7955C149.02 92.7955 147.065 93.3068 145.361 94.3295C143.679 95.3295 142.361 96.6818 141.406 98.3864C140.452 100.068 139.963 101.943 139.94 104.011V112.568C139.94 115.159 140.418 117.398 141.372 119.284C142.349 121.17 143.724 122.625 145.497 123.648C147.27 124.67 149.372 125.182 151.804 125.182C153.418 125.182 154.895 124.955 156.236 124.5C157.577 124.045 158.724 123.364 159.679 122.455C160.634 121.545 161.361 120.432 161.861 119.114L175.293 120C174.611 123.227 173.213 126.045 171.099 128.455C169.009 130.841 166.304 132.705 162.986 134.045C159.69 135.364 155.884 136.023 151.565 136.023ZM208.736 136.023C203.372 136.023 198.759 134.886 194.895 132.614C191.054 130.318 188.099 127.136 186.031 123.068C183.986 119 182.963 114.318 182.963 109.023C182.963 103.659 183.997 98.9545 186.065 94.9091C188.156 90.8409 191.122 87.6705 194.963 85.3977C198.804 83.1023 203.372 81.9545 208.668 81.9545C213.236 81.9545 217.236 82.7841 220.668 84.4432C224.099 86.1023 226.815 88.4318 228.815 91.4318C230.815 94.4318 231.918 97.9545 232.122 102H218.418C218.031 99.3864 217.009 97.2841 215.349 95.6932C213.713 94.0795 211.565 93.2727 208.906 93.2727C206.656 93.2727 204.69 93.8864 203.009 95.1136C201.349 96.3182 200.054 98.0795 199.122 100.398C198.19 102.716 197.724 105.523 197.724 108.818C197.724 112.159 198.179 115 199.088 117.341C200.02 119.682 201.327 121.466 203.009 122.693C204.69 123.92 206.656 124.534 208.906 124.534C210.565 124.534 212.054 124.193 213.372 123.511C214.713 122.83 215.815 121.841 216.679 120.545C217.565 119.227 218.145 117.648 218.418 115.807H232.122C231.895 119.807 230.804 123.33 228.849 126.375C226.918 129.398 224.247 131.761 220.838 133.466C217.429 135.17 213.395 136.023 208.736 136.023ZM275 112.705V82.6364H289.523V135H275.58V125.489H275.034C273.852 128.557 271.886 131.023 269.136 132.886C266.409 134.75 263.08 135.682 259.148 135.682C255.648 135.682 252.568 134.886 249.909 133.295C247.25 131.705 245.17 129.443 243.67 126.511C242.193 123.58 241.443 120.068 241.42 115.977V82.6364H255.943V113.386C255.966 116.477 256.795 118.92 258.432 120.716C260.068 122.511 262.261 123.409 265.011 123.409C266.761 123.409 268.398 123.011 269.92 122.216C271.443 121.398 272.67 120.193 273.602 118.602C274.557 117.011 275.023 115.045 275 112.705ZM301.139 135V82.6364H315.219V91.7727H315.764C316.719 88.5227 318.321 86.0682 320.571 84.4091C322.821 82.7273 325.412 81.8864 328.344 81.8864C329.071 81.8864 329.855 81.9318 330.696 82.0227C331.537 82.1136 332.276 82.2386 332.912 82.3977V95.2841C332.23 95.0795 331.287 94.8977 330.082 94.7386C328.878 94.5795 327.776 94.5 326.776 94.5C324.639 94.5 322.73 94.9659 321.048 95.8977C319.389 96.8068 318.071 98.0795 317.094 99.7159C316.139 101.352 315.662 103.239 315.662 105.375V135H301.139ZM340.42 135V82.6364H354.943V135H340.42ZM347.716 75.8864C345.557 75.8864 343.705 75.1705 342.159 73.7386C340.636 72.2841 339.875 70.5455 339.875 68.5227C339.875 66.5227 340.636 64.8068 342.159 63.375C343.705 61.9205 345.557 61.1932 347.716 61.1932C349.875 61.1932 351.716 61.9205 353.239 63.375C354.784 64.8068 355.557 66.5227 355.557 68.5227C355.557 70.5455 354.784 72.2841 353.239 73.7386C351.716 75.1705 349.875 75.8864 347.716 75.8864ZM394.429 82.6364V93.5455H362.895V82.6364H394.429ZM370.054 70.0909H384.577V118.909C384.577 120.25 384.781 121.295 385.19 122.045C385.599 122.773 386.168 123.284 386.895 123.58C387.645 123.875 388.509 124.023 389.486 124.023C390.168 124.023 390.849 123.966 391.531 123.852C392.213 123.716 392.736 123.614 393.099 123.545L395.384 134.352C394.656 134.58 393.634 134.841 392.315 135.136C390.997 135.455 389.395 135.648 387.509 135.716C384.009 135.852 380.94 135.386 378.304 134.318C375.69 133.25 373.656 131.591 372.202 129.341C370.747 127.091 370.031 124.25 370.054 120.818V70.0909ZM412.855 154.636C411.014 154.636 409.287 154.489 407.673 154.193C406.082 153.92 404.764 153.568 403.719 153.136L406.991 142.295C408.696 142.818 410.23 143.102 411.594 143.148C412.98 143.193 414.173 142.875 415.173 142.193C416.196 141.511 417.026 140.352 417.662 138.716L418.514 136.5L399.73 82.6364H415.003L425.844 121.091H426.389L437.332 82.6364H452.707L432.355 140.659C431.378 143.477 430.048 145.932 428.366 148.023C426.707 150.136 424.605 151.761 422.06 152.898C419.514 154.057 416.446 154.636 412.855 154.636Z" fill="white"/>
<path d="M61.8182 185V161.727H69.9545C71.5758 161.727 72.9129 162.008 73.9659 162.568C75.0189 163.121 75.803 163.867 76.3182 164.807C76.8333 165.739 77.0909 166.773 77.0909 167.909C77.0909 168.909 76.9129 169.735 76.5568 170.386C76.2083 171.038 75.7462 171.553 75.1705 171.932C74.6023 172.311 73.9848 172.591 73.3182 172.773V173C74.0303 173.045 74.7462 173.295 75.4659 173.75C76.1856 174.205 76.7879 174.856 77.2727 175.705C77.7576 176.553 78 177.591 78 178.818C78 179.985 77.7348 181.034 77.2045 181.966C76.6742 182.898 75.8371 183.636 74.6932 184.182C73.5492 184.727 72.0606 185 70.2273 185H61.8182ZM64.6364 182.5H70.2273C72.0682 182.5 73.375 182.144 74.1477 181.432C74.928 180.712 75.3182 179.841 75.3182 178.818C75.3182 178.03 75.1174 177.303 74.7159 176.636C74.3144 175.962 73.7424 175.424 73 175.023C72.2576 174.614 71.3788 174.409 70.3636 174.409H64.6364V182.5ZM64.6364 171.955H69.8636C70.7121 171.955 71.4773 171.788 72.1591 171.455C72.8485 171.121 73.3939 170.652 73.7955 170.045C74.2045 169.439 74.4091 168.727 74.4091 167.909C74.4091 166.886 74.053 166.019 73.3409 165.307C72.6288 164.587 71.5 164.227 69.9545 164.227H64.6364V171.955ZM83.5852 185H80.6307L89.1761 161.727H92.0852L100.631 185H97.6761L90.7216 165.409H90.5398L83.5852 185ZM84.6761 175.909H96.5852V178.409H84.6761V175.909ZM121.889 169H119.071C118.904 168.189 118.613 167.477 118.196 166.864C117.787 166.25 117.287 165.735 116.696 165.318C116.113 164.894 115.465 164.576 114.753 164.364C114.041 164.152 113.298 164.045 112.526 164.045C111.116 164.045 109.84 164.402 108.696 165.114C107.56 165.826 106.654 166.875 105.98 168.261C105.313 169.648 104.98 171.348 104.98 173.364C104.98 175.379 105.313 177.08 105.98 178.466C106.654 179.852 107.56 180.902 108.696 181.614C109.84 182.326 111.116 182.682 112.526 182.682C113.298 182.682 114.041 182.576 114.753 182.364C115.465 182.152 116.113 181.837 116.696 181.42C117.287 180.996 117.787 180.477 118.196 179.864C118.613 179.242 118.904 178.53 119.071 177.727H121.889C121.677 178.917 121.291 179.981 120.73 180.92C120.17 181.86 119.473 182.659 118.639 183.318C117.806 183.97 116.87 184.466 115.832 184.807C114.802 185.148 113.7 185.318 112.526 185.318C110.541 185.318 108.776 184.833 107.23 183.864C105.685 182.894 104.469 181.515 103.582 179.727C102.696 177.939 102.253 175.818 102.253 173.364C102.253 170.909 102.696 168.788 103.582 167C104.469 165.212 105.685 163.833 107.23 162.864C108.776 161.894 110.541 161.409 112.526 161.409C113.7 161.409 114.802 161.58 115.832 161.92C116.87 162.261 117.806 162.761 118.639 163.42C119.473 164.072 120.17 164.867 120.73 165.807C121.291 166.739 121.677 167.803 121.889 169ZM126.443 185V161.727H129.261V173.273H129.534L139.989 161.727H143.67L133.898 172.227L143.67 185H140.261L132.17 174.182L129.261 177.455V185H126.443ZM147.318 185V161.727H161.364V164.227H150.136V172.091H160.636V174.591H150.136V182.5H161.545V185H147.318ZM184.898 161.727V185H182.17L169.489 166.727H169.261V185H166.443V161.727H169.17L181.898 180.045H182.125V161.727H184.898ZM197.719 185H190.537V161.727H198.037C200.295 161.727 202.226 162.193 203.832 163.125C205.438 164.049 206.67 165.379 207.526 167.114C208.382 168.841 208.81 170.909 208.81 173.318C208.81 175.742 208.378 177.83 207.514 179.58C206.651 181.322 205.393 182.663 203.741 183.602C202.09 184.534 200.082 185 197.719 185ZM193.355 182.5H197.537C199.461 182.5 201.056 182.129 202.321 181.386C203.586 180.644 204.529 179.587 205.151 178.216C205.772 176.845 206.082 175.212 206.082 173.318C206.082 171.439 205.776 169.822 205.162 168.466C204.548 167.102 203.632 166.057 202.412 165.33C201.192 164.595 199.673 164.227 197.855 164.227H193.355V182.5ZM228.991 180.909V165.909H231.537V180.909H228.991ZM222.764 174.682V172.136H237.764V174.682H222.764ZM252.631 185V161.727H266.585V164.227H255.449V172.091H265.54V174.591H255.449V185H252.631ZM271.412 185V161.727H279.276C281.094 161.727 282.586 162.038 283.753 162.659C284.92 163.273 285.783 164.117 286.344 165.193C286.904 166.269 287.185 167.492 287.185 168.864C287.185 170.235 286.904 171.451 286.344 172.511C285.783 173.572 284.923 174.405 283.764 175.011C282.605 175.61 281.124 175.909 279.321 175.909H272.957V173.364H279.23C280.473 173.364 281.473 173.182 282.23 172.818C282.995 172.455 283.548 171.939 283.889 171.273C284.238 170.598 284.412 169.795 284.412 168.864C284.412 167.932 284.238 167.117 283.889 166.42C283.541 165.723 282.984 165.186 282.219 164.807C281.454 164.42 280.442 164.227 279.185 164.227H274.23V185H271.412ZM282.366 174.545L288.094 185H284.821L279.185 174.545H282.366ZM311.517 173.364C311.517 175.818 311.074 177.939 310.188 179.727C309.301 181.515 308.085 182.894 306.54 183.864C304.994 184.833 303.229 185.318 301.244 185.318C299.259 185.318 297.494 184.833 295.949 183.864C294.403 182.894 293.188 181.515 292.301 179.727C291.415 177.939 290.972 175.818 290.972 173.364C290.972 170.909 291.415 168.788 292.301 167C293.188 165.212 294.403 163.833 295.949 162.864C297.494 161.894 299.259 161.409 301.244 161.409C303.229 161.409 304.994 161.894 306.54 162.864C308.085 163.833 309.301 165.212 310.188 167C311.074 168.788 311.517 170.909 311.517 173.364ZM308.79 173.364C308.79 171.348 308.453 169.648 307.778 168.261C307.112 166.875 306.206 165.826 305.062 165.114C303.926 164.402 302.653 164.045 301.244 164.045C299.835 164.045 298.559 164.402 297.415 165.114C296.278 165.826 295.373 166.875 294.699 168.261C294.032 169.648 293.699 171.348 293.699 173.364C293.699 175.379 294.032 177.08 294.699 178.466C295.373 179.852 296.278 180.902 297.415 181.614C298.559 182.326 299.835 182.682 301.244 182.682C302.653 182.682 303.926 182.326 305.062 181.614C306.206 180.902 307.112 179.852 307.778 178.466C308.453 177.08 308.79 175.379 308.79 173.364ZM334.71 161.727V185H331.983L319.301 166.727H319.074V185H316.256V161.727H318.983L331.71 180.045H331.938V161.727H334.71ZM339.077 164.227V161.727H356.531V164.227H349.213V185H346.395V164.227H339.077ZM360.881 185V161.727H374.926V164.227H363.699V172.091H374.199V174.591H363.699V182.5H375.108V185H360.881ZM398.46 161.727V185H395.733L383.051 166.727H382.824V185H380.006V161.727H382.733L395.46 180.045H395.688V161.727H398.46ZM411.281 185H404.099V161.727H411.599C413.857 161.727 415.789 162.193 417.395 163.125C419.001 164.049 420.232 165.379 421.088 167.114C421.944 168.841 422.372 170.909 422.372 173.318C422.372 175.742 421.94 177.83 421.077 179.58C420.213 181.322 418.955 182.663 417.304 183.602C415.652 184.534 413.645 185 411.281 185ZM406.918 182.5H411.099C413.024 182.5 414.618 182.129 415.884 181.386C417.149 180.644 418.092 179.587 418.713 178.216C419.334 176.845 419.645 175.212 419.645 173.318C419.645 171.439 419.338 169.822 418.724 168.466C418.111 167.102 417.194 166.057 415.974 165.33C414.755 164.595 413.236 164.227 411.418 164.227H406.918V182.5Z" fill="white"/>
</g>
<rect x="1" y="1" width="1078" height="245" rx="31" stroke="#CFCFE7" stroke-opacity="0.1" stroke-width="2"/>
<defs>
<radialGradient id="paint0_radial_730_327" cx="0" cy="0" r="1" gradientUnits="userSpaceOnUse" gradientTransform="translate(406.5 -52) rotate(90) scale(281 347.5)">
<stop stop-color="#AF71FF"/>
<stop offset="1" stop-color="#4C3F78" stop-opacity="0"/>
</radialGradient>
<radialGradient id="paint1_radial_730_327" cx="0" cy="0" r="1" gradientUnits="userSpaceOnUse" gradientTransform="translate(45.8513 410.766) rotate(90) scale(490.769 300.101)">
<stop stop-color="#AF71FF"/>
<stop offset="1" stop-color="#4C3F78" stop-opacity="0"/>
</radialGradient>
<radialGradient id="paint2_radial_730_327" cx="0" cy="0" r="1" gradientUnits="userSpaceOnUse" gradientTransform="translate(936.084 416.988) rotate(90) scale(531.613 501.394)">
<stop stop-color="#AF71FF"/>
<stop offset="1" stop-color="#4C3F78" stop-opacity="0"/>
</radialGradient>
<clipPath id="clip0_730_327">
<rect width="1080" height="247" rx="32" fill="white"/>
</clipPath>
<clipPath id="clip1_730_327">
<rect width="132" height="50" fill="white" transform="translate(882 135)"/>
</clipPath>
</defs>
</svg>
