<svg width="1080" height="247" viewBox="0 0 1080 247" fill="none" xmlns="http://www.w3.org/2000/svg">
<g clip-path="url(#clip0_724_291)">
<rect width="1080" height="247" rx="32" fill="#1F1F24"/>
<g opacity="0.6">
<ellipse opacity="0.7" cx="406.5" cy="-52" rx="347.5" ry="281" fill="url(#paint0_radial_724_291)"/>
<ellipse opacity="0.7" cx="45.8513" cy="410.766" rx="300.101" ry="490.769" transform="rotate(29.0906 45.8513 410.766)" fill="url(#paint1_radial_724_291)"/>
<ellipse opacity="0.7" cx="936.084" cy="416.988" rx="501.394" ry="531.613" transform="rotate(5.98411 936.084 416.988)" fill="url(#paint2_radial_724_291)"/>
</g>
<g clip-path="url(#clip1_724_291)">
<path d="M994.017 144.981H985.84L995.808 135H981.82L971.912 144.978H957.99L948.075 135H934.087L944.058 144.985L924.078 164.991L934.07 174.995H905.927L895.992 164.991L905.927 154.986H920.025L930.003 144.985L920.085 135H906.097L916.065 144.981H901.983L882 164.991L901.983 185H951.942L971.925 164.991L961.933 154.986H990.077L1000.01 164.991L990.077 174.995H975.978L965.997 185H994.017L1014 164.991L994.017 144.981ZM948.002 174.995L938.067 164.991L948.002 154.986L957.937 164.991L948.002 174.995Z" fill="white"/>
</g>
<path d="M65.0682 65.1818H83.2727L102.5 112.091H103.318L122.545 65.1818H140.75V135H126.432V89.5568H125.852L107.784 134.659H98.0341L79.9659 89.3864H79.3864V135H65.0682V65.1818ZM176.503 136.023C171.116 136.023 166.48 134.932 162.594 132.75C158.73 130.545 155.753 127.432 153.662 123.409C151.571 119.364 150.526 114.58 150.526 109.057C150.526 103.67 151.571 98.9432 153.662 94.875C155.753 90.8068 158.696 87.6364 162.491 85.3636C166.31 83.0909 170.787 81.9545 175.923 81.9545C179.378 81.9545 182.594 82.5114 185.571 83.625C188.571 84.7159 191.185 86.3636 193.412 88.5682C195.662 90.7727 197.412 93.5455 198.662 96.8864C199.912 100.205 200.537 104.091 200.537 108.545V112.534H156.321V103.534H186.866C186.866 101.443 186.412 99.5909 185.503 97.9773C184.594 96.3636 183.332 95.1023 181.719 94.1932C180.128 93.2614 178.276 92.7955 176.162 92.7955C173.957 92.7955 172.003 93.3068 170.298 94.3295C168.616 95.3295 167.298 96.6818 166.344 98.3864C165.389 100.068 164.901 101.943 164.878 104.011V112.568C164.878 115.159 165.355 117.398 166.31 119.284C167.287 121.17 168.662 122.625 170.435 123.648C172.207 124.67 174.31 125.182 176.741 125.182C178.355 125.182 179.832 124.955 181.173 124.5C182.514 124.045 183.662 123.364 184.616 122.455C185.571 121.545 186.298 120.432 186.798 119.114L200.23 120C199.548 123.227 198.151 126.045 196.037 128.455C193.946 130.841 191.241 132.705 187.923 134.045C184.628 135.364 180.821 136.023 176.503 136.023ZM253.582 97.5682L240.287 98.3864C240.06 97.25 239.571 96.2273 238.821 95.3182C238.071 94.3864 237.082 93.6477 235.855 93.1023C234.651 92.5341 233.207 92.25 231.526 92.25C229.276 92.25 227.378 92.7273 225.832 93.6818C224.287 94.6136 223.514 95.8636 223.514 97.4318C223.514 98.6818 224.014 99.7386 225.014 100.602C226.014 101.466 227.73 102.159 230.162 102.682L239.639 104.591C244.73 105.636 248.526 107.318 251.026 109.636C253.526 111.955 254.776 115 254.776 118.773C254.776 122.205 253.764 125.216 251.741 127.807C249.741 130.398 246.991 132.42 243.491 133.875C240.014 135.307 236.003 136.023 231.457 136.023C224.526 136.023 219.003 134.58 214.889 131.693C210.798 128.784 208.401 124.83 207.696 119.83L221.98 119.08C222.412 121.193 223.457 122.807 225.116 123.92C226.776 125.011 228.901 125.557 231.491 125.557C234.037 125.557 236.082 125.068 237.628 124.091C239.196 123.091 239.991 121.807 240.014 120.239C239.991 118.92 239.435 117.841 238.344 117C237.253 116.136 235.571 115.477 233.298 115.023L224.23 113.216C219.116 112.193 215.31 110.42 212.81 107.898C210.332 105.375 209.094 102.159 209.094 98.25C209.094 94.8864 210.003 91.9886 211.821 89.5568C213.662 87.125 216.241 85.25 219.56 83.9318C222.901 82.6136 226.81 81.9545 231.287 81.9545C237.901 81.9545 243.105 83.3523 246.901 86.1477C250.719 88.9432 252.946 92.75 253.582 97.5682ZM307.489 97.5682L294.193 98.3864C293.966 97.25 293.477 96.2273 292.727 95.3182C291.977 94.3864 290.989 93.6477 289.761 93.1023C288.557 92.5341 287.114 92.25 285.432 92.25C283.182 92.25 281.284 92.7273 279.739 93.6818C278.193 94.6136 277.42 95.8636 277.42 97.4318C277.42 98.6818 277.92 99.7386 278.92 100.602C279.92 101.466 281.636 102.159 284.068 102.682L293.545 104.591C298.636 105.636 302.432 107.318 304.932 109.636C307.432 111.955 308.682 115 308.682 118.773C308.682 122.205 307.67 125.216 305.648 127.807C303.648 130.398 300.898 132.42 297.398 133.875C293.92 135.307 289.909 136.023 285.364 136.023C278.432 136.023 272.909 134.58 268.795 131.693C264.705 128.784 262.307 124.83 261.602 119.83L275.886 119.08C276.318 121.193 277.364 122.807 279.023 123.92C280.682 125.011 282.807 125.557 285.398 125.557C287.943 125.557 289.989 125.068 291.534 124.091C293.102 123.091 293.898 121.807 293.92 120.239C293.898 118.92 293.341 117.841 292.25 117C291.159 116.136 289.477 115.477 287.205 115.023L278.136 113.216C273.023 112.193 269.216 110.42 266.716 107.898C264.239 105.375 263 102.159 263 98.25C263 94.8864 263.909 91.9886 265.727 89.5568C267.568 87.125 270.148 85.25 273.466 83.9318C276.807 82.6136 280.716 81.9545 285.193 81.9545C291.807 81.9545 297.011 83.3523 300.807 86.1477C304.625 88.9432 306.852 92.75 307.489 97.5682ZM332.759 135.989C329.418 135.989 326.44 135.409 323.827 134.25C321.213 133.068 319.145 131.33 317.622 129.034C316.122 126.716 315.372 123.83 315.372 120.375C315.372 117.466 315.906 115.023 316.974 113.045C318.043 111.068 319.497 109.477 321.338 108.273C323.179 107.068 325.27 106.159 327.611 105.545C329.974 104.932 332.452 104.5 335.043 104.25C338.088 103.932 340.543 103.636 342.406 103.364C344.27 103.068 345.622 102.636 346.463 102.068C347.304 101.5 347.724 100.659 347.724 99.5455V99.3409C347.724 97.1818 347.043 95.5114 345.679 94.3295C344.338 93.1477 342.429 92.5568 339.952 92.5568C337.338 92.5568 335.259 93.1364 333.713 94.2955C332.168 95.4318 331.145 96.8636 330.645 98.5909L317.213 97.5C317.895 94.3182 319.236 91.5682 321.236 89.25C323.236 86.9091 325.815 85.1136 328.974 83.8636C332.156 82.5909 335.838 81.9545 340.02 81.9545C342.929 81.9545 345.713 82.2955 348.372 82.9773C351.054 83.6591 353.429 84.7159 355.497 86.1477C357.588 87.5795 359.236 89.4205 360.44 91.6705C361.645 93.8977 362.247 96.5682 362.247 99.6818V135H348.474V127.739H348.065C347.224 129.375 346.099 130.818 344.69 132.068C343.281 133.295 341.588 134.261 339.611 134.966C337.634 135.648 335.349 135.989 332.759 135.989ZM336.918 125.966C339.054 125.966 340.94 125.545 342.577 124.705C344.213 123.841 345.497 122.682 346.429 121.227C347.361 119.773 347.827 118.125 347.827 116.284V110.727C347.372 111.023 346.747 111.295 345.952 111.545C345.179 111.773 344.304 111.989 343.327 112.193C342.349 112.375 341.372 112.545 340.395 112.705C339.418 112.841 338.531 112.966 337.736 113.08C336.031 113.33 334.543 113.727 333.27 114.273C331.997 114.818 331.009 115.557 330.304 116.489C329.599 117.398 329.247 118.534 329.247 119.898C329.247 121.875 329.963 123.386 331.395 124.432C332.849 125.455 334.69 125.966 336.918 125.966ZM397.105 155.727C392.401 155.727 388.366 155.08 385.003 153.784C381.662 152.511 379.003 150.773 377.026 148.568C375.048 146.364 373.764 143.886 373.173 141.136L386.605 139.33C387.014 140.375 387.662 141.352 388.548 142.261C389.435 143.17 390.605 143.898 392.06 144.443C393.537 145.011 395.332 145.295 397.446 145.295C400.605 145.295 403.207 144.523 405.253 142.977C407.321 141.455 408.355 138.898 408.355 135.307V125.727H407.741C407.105 127.182 406.151 128.557 404.878 129.852C403.605 131.148 401.969 132.205 399.969 133.023C397.969 133.841 395.582 134.25 392.81 134.25C388.878 134.25 385.298 133.341 382.071 131.523C378.866 129.682 376.31 126.875 374.401 123.102C372.514 119.307 371.571 114.511 371.571 108.716C371.571 102.784 372.537 97.8295 374.469 93.8523C376.401 89.875 378.969 86.8977 382.173 84.9205C385.401 82.9432 388.935 81.9545 392.776 81.9545C395.707 81.9545 398.162 82.4545 400.139 83.4545C402.116 84.4318 403.707 85.6591 404.912 87.1364C406.139 88.5909 407.082 90.0227 407.741 91.4318H408.287V82.6364H422.707V135.511C422.707 139.966 421.616 143.693 419.435 146.693C417.253 149.693 414.23 151.943 410.366 153.443C406.526 154.966 402.105 155.727 397.105 155.727ZM397.412 123.341C399.753 123.341 401.73 122.761 403.344 121.602C404.98 120.42 406.23 118.739 407.094 116.557C407.98 114.352 408.423 111.716 408.423 108.648C408.423 105.58 407.991 102.92 407.128 100.67C406.264 98.3977 405.014 96.6364 403.378 95.3864C401.741 94.1364 399.753 93.5114 397.412 93.5114C395.026 93.5114 393.014 94.1591 391.378 95.4545C389.741 96.7273 388.503 98.5 387.662 100.773C386.821 103.045 386.401 105.67 386.401 108.648C386.401 111.67 386.821 114.284 387.662 116.489C388.526 118.67 389.764 120.364 391.378 121.568C393.014 122.75 395.026 123.341 397.412 123.341ZM458.128 136.023C452.741 136.023 448.105 134.932 444.219 132.75C440.355 130.545 437.378 127.432 435.287 123.409C433.196 119.364 432.151 114.58 432.151 109.057C432.151 103.67 433.196 98.9432 435.287 94.875C437.378 90.8068 440.321 87.6364 444.116 85.3636C447.935 83.0909 452.412 81.9545 457.548 81.9545C461.003 81.9545 464.219 82.5114 467.196 83.625C470.196 84.7159 472.81 86.3636 475.037 88.5682C477.287 90.7727 479.037 93.5455 480.287 96.8864C481.537 100.205 482.162 104.091 482.162 108.545V112.534H437.946V103.534H468.491C468.491 101.443 468.037 99.5909 467.128 97.9773C466.219 96.3636 464.957 95.1023 463.344 94.1932C461.753 93.2614 459.901 92.7955 457.787 92.7955C455.582 92.7955 453.628 93.3068 451.923 94.3295C450.241 95.3295 448.923 96.6818 447.969 98.3864C447.014 100.068 446.526 101.943 446.503 104.011V112.568C446.503 115.159 446.98 117.398 447.935 119.284C448.912 121.17 450.287 122.625 452.06 123.648C453.832 124.67 455.935 125.182 458.366 125.182C459.98 125.182 461.457 124.955 462.798 124.5C464.139 124.045 465.287 123.364 466.241 122.455C467.196 121.545 467.923 120.432 468.423 119.114L481.855 120C481.173 123.227 479.776 126.045 477.662 128.455C475.571 130.841 472.866 132.705 469.548 134.045C466.253 135.364 462.446 136.023 458.128 136.023ZM557.426 97.5682L544.131 98.3864C543.903 97.25 543.415 96.2273 542.665 95.3182C541.915 94.3864 540.926 93.6477 539.699 93.1023C538.494 92.5341 537.051 92.25 535.369 92.25C533.119 92.25 531.222 92.7273 529.676 93.6818C528.131 94.6136 527.358 95.8636 527.358 97.4318C527.358 98.6818 527.858 99.7386 528.858 100.602C529.858 101.466 531.574 102.159 534.006 102.682L543.483 104.591C548.574 105.636 552.369 107.318 554.869 109.636C557.369 111.955 558.619 115 558.619 118.773C558.619 122.205 557.608 125.216 555.585 127.807C553.585 130.398 550.835 132.42 547.335 133.875C543.858 135.307 539.847 136.023 535.301 136.023C528.369 136.023 522.847 134.58 518.733 131.693C514.642 128.784 512.244 124.83 511.54 119.83L525.824 119.08C526.256 121.193 527.301 122.807 528.96 123.92C530.619 125.011 532.744 125.557 535.335 125.557C537.881 125.557 539.926 125.068 541.472 124.091C543.04 123.091 543.835 121.807 543.858 120.239C543.835 118.92 543.278 117.841 542.188 117C541.097 116.136 539.415 115.477 537.142 115.023L528.074 113.216C522.96 112.193 519.153 110.42 516.653 107.898C514.176 105.375 512.938 102.159 512.938 98.25C512.938 94.8864 513.847 91.9886 515.665 89.5568C517.506 87.125 520.085 85.25 523.403 83.9318C526.744 82.6136 530.653 81.9545 535.131 81.9545C541.744 81.9545 546.949 83.3523 550.744 86.1477C554.563 88.9432 556.79 92.75 557.426 97.5682ZM591.628 136.023C586.241 136.023 581.605 134.932 577.719 132.75C573.855 130.545 570.878 127.432 568.787 123.409C566.696 119.364 565.651 114.58 565.651 109.057C565.651 103.67 566.696 98.9432 568.787 94.875C570.878 90.8068 573.821 87.6364 577.616 85.3636C581.435 83.0909 585.912 81.9545 591.048 81.9545C594.503 81.9545 597.719 82.5114 600.696 83.625C603.696 84.7159 606.31 86.3636 608.537 88.5682C610.787 90.7727 612.537 93.5455 613.787 96.8864C615.037 100.205 615.662 104.091 615.662 108.545V112.534H571.446V103.534H601.991C601.991 101.443 601.537 99.5909 600.628 97.9773C599.719 96.3636 598.457 95.1023 596.844 94.1932C595.253 93.2614 593.401 92.7955 591.287 92.7955C589.082 92.7955 587.128 93.3068 585.423 94.3295C583.741 95.3295 582.423 96.6818 581.469 98.3864C580.514 100.068 580.026 101.943 580.003 104.011V112.568C580.003 115.159 580.48 117.398 581.435 119.284C582.412 121.17 583.787 122.625 585.56 123.648C587.332 124.67 589.435 125.182 591.866 125.182C593.48 125.182 594.957 124.955 596.298 124.5C597.639 124.045 598.787 123.364 599.741 122.455C600.696 121.545 601.423 120.432 601.923 119.114L615.355 120C614.673 123.227 613.276 126.045 611.162 128.455C609.071 130.841 606.366 132.705 603.048 134.045C599.753 135.364 595.946 136.023 591.628 136.023ZM625.139 135V82.6364H639.219V91.7727H639.764C640.719 88.5227 642.321 86.0682 644.571 84.4091C646.821 82.7273 649.412 81.8864 652.344 81.8864C653.071 81.8864 653.855 81.9318 654.696 82.0227C655.537 82.1136 656.276 82.2386 656.912 82.3977V95.2841C656.23 95.0795 655.287 94.8977 654.082 94.7386C652.878 94.5795 651.776 94.5 650.776 94.5C648.639 94.5 646.73 94.9659 645.048 95.8977C643.389 96.8068 642.071 98.0795 641.094 99.7159C640.139 101.352 639.662 103.239 639.662 105.375V135H625.139ZM714.832 82.6364L696.526 135H680.162L661.855 82.6364H677.196L688.071 120.102H688.616L699.457 82.6364H714.832ZM722.264 135V82.6364H736.787V135H722.264ZM729.56 75.8864C727.401 75.8864 725.548 75.1705 724.003 73.7386C722.48 72.2841 721.719 70.5455 721.719 68.5227C721.719 66.5227 722.48 64.8068 724.003 63.375C725.548 61.9205 727.401 61.1932 729.56 61.1932C731.719 61.1932 733.56 61.9205 735.082 63.375C736.628 64.8068 737.401 66.5227 737.401 68.5227C737.401 70.5455 736.628 72.2841 735.082 73.7386C733.56 75.1705 731.719 75.8864 729.56 75.8864ZM772.08 136.023C766.716 136.023 762.102 134.886 758.239 132.614C754.398 130.318 751.443 127.136 749.375 123.068C747.33 119 746.307 114.318 746.307 109.023C746.307 103.659 747.341 98.9545 749.409 94.9091C751.5 90.8409 754.466 87.6705 758.307 85.3977C762.148 83.1023 766.716 81.9545 772.011 81.9545C776.58 81.9545 780.58 82.7841 784.011 84.4432C787.443 86.1023 790.159 88.4318 792.159 91.4318C794.159 94.4318 795.261 97.9545 795.466 102H781.761C781.375 99.3864 780.352 97.2841 778.693 95.6932C777.057 94.0795 774.909 93.2727 772.25 93.2727C770 93.2727 768.034 93.8864 766.352 95.1136C764.693 96.3182 763.398 98.0795 762.466 100.398C761.534 102.716 761.068 105.523 761.068 108.818C761.068 112.159 761.523 115 762.432 117.341C763.364 119.682 764.67 121.466 766.352 122.693C768.034 123.92 770 124.534 772.25 124.534C773.909 124.534 775.398 124.193 776.716 123.511C778.057 122.83 779.159 121.841 780.023 120.545C780.909 119.227 781.489 117.648 781.761 115.807H795.466C795.239 119.807 794.148 123.33 792.193 126.375C790.261 129.398 787.591 131.761 784.182 133.466C780.773 135.17 776.739 136.023 772.08 136.023ZM828.628 136.023C823.241 136.023 818.605 134.932 814.719 132.75C810.855 130.545 807.878 127.432 805.787 123.409C803.696 119.364 802.651 114.58 802.651 109.057C802.651 103.67 803.696 98.9432 805.787 94.875C807.878 90.8068 810.821 87.6364 814.616 85.3636C818.435 83.0909 822.912 81.9545 828.048 81.9545C831.503 81.9545 834.719 82.5114 837.696 83.625C840.696 84.7159 843.31 86.3636 845.537 88.5682C847.787 90.7727 849.537 93.5455 850.787 96.8864C852.037 100.205 852.662 104.091 852.662 108.545V112.534H808.446V103.534H838.991C838.991 101.443 838.537 99.5909 837.628 97.9773C836.719 96.3636 835.457 95.1023 833.844 94.1932C832.253 93.2614 830.401 92.7955 828.287 92.7955C826.082 92.7955 824.128 93.3068 822.423 94.3295C820.741 95.3295 819.423 96.6818 818.469 98.3864C817.514 100.068 817.026 101.943 817.003 104.011V112.568C817.003 115.159 817.48 117.398 818.435 119.284C819.412 121.17 820.787 122.625 822.56 123.648C824.332 124.67 826.435 125.182 828.866 125.182C830.48 125.182 831.957 124.955 833.298 124.5C834.639 124.045 835.787 123.364 836.741 122.455C837.696 121.545 838.423 120.432 838.923 119.114L852.355 120C851.673 123.227 850.276 126.045 848.162 128.455C846.071 130.841 843.366 132.705 840.048 134.045C836.753 135.364 832.946 136.023 828.628 136.023Z" fill="white"/>
<path d="M61.8182 185V161.727H69.9545C71.5758 161.727 72.9129 162.008 73.9659 162.568C75.0189 163.121 75.803 163.867 76.3182 164.807C76.8333 165.739 77.0909 166.773 77.0909 167.909C77.0909 168.909 76.9129 169.735 76.5568 170.386C76.2083 171.038 75.7462 171.553 75.1705 171.932C74.6023 172.311 73.9848 172.591 73.3182 172.773V173C74.0303 173.045 74.7462 173.295 75.4659 173.75C76.1856 174.205 76.7879 174.856 77.2727 175.705C77.7576 176.553 78 177.591 78 178.818C78 179.985 77.7348 181.034 77.2045 181.966C76.6742 182.898 75.8371 183.636 74.6932 184.182C73.5492 184.727 72.0606 185 70.2273 185H61.8182ZM64.6364 182.5H70.2273C72.0682 182.5 73.375 182.144 74.1477 181.432C74.928 180.712 75.3182 179.841 75.3182 178.818C75.3182 178.03 75.1174 177.303 74.7159 176.636C74.3144 175.962 73.7424 175.424 73 175.023C72.2576 174.614 71.3788 174.409 70.3636 174.409H64.6364V182.5ZM64.6364 171.955H69.8636C70.7121 171.955 71.4773 171.788 72.1591 171.455C72.8485 171.121 73.3939 170.652 73.7955 170.045C74.2045 169.439 74.4091 168.727 74.4091 167.909C74.4091 166.886 74.053 166.019 73.3409 165.307C72.6288 164.587 71.5 164.227 69.9545 164.227H64.6364V171.955ZM83.5852 185H80.6307L89.1761 161.727H92.0852L100.631 185H97.6761L90.7216 165.409H90.5398L83.5852 185ZM84.6761 175.909H96.5852V178.409H84.6761V175.909ZM121.889 169H119.071C118.904 168.189 118.613 167.477 118.196 166.864C117.787 166.25 117.287 165.735 116.696 165.318C116.113 164.894 115.465 164.576 114.753 164.364C114.041 164.152 113.298 164.045 112.526 164.045C111.116 164.045 109.84 164.402 108.696 165.114C107.56 165.826 106.654 166.875 105.98 168.261C105.313 169.648 104.98 171.348 104.98 173.364C104.98 175.379 105.313 177.08 105.98 178.466C106.654 179.852 107.56 180.902 108.696 181.614C109.84 182.326 111.116 182.682 112.526 182.682C113.298 182.682 114.041 182.576 114.753 182.364C115.465 182.152 116.113 181.837 116.696 181.42C117.287 180.996 117.787 180.477 118.196 179.864C118.613 179.242 118.904 178.53 119.071 177.727H121.889C121.677 178.917 121.291 179.981 120.73 180.92C120.17 181.86 119.473 182.659 118.639 183.318C117.806 183.97 116.87 184.466 115.832 184.807C114.802 185.148 113.7 185.318 112.526 185.318C110.541 185.318 108.776 184.833 107.23 183.864C105.685 182.894 104.469 181.515 103.582 179.727C102.696 177.939 102.253 175.818 102.253 173.364C102.253 170.909 102.696 168.788 103.582 167C104.469 165.212 105.685 163.833 107.23 162.864C108.776 161.894 110.541 161.409 112.526 161.409C113.7 161.409 114.802 161.58 115.832 161.92C116.87 162.261 117.806 162.761 118.639 163.42C119.473 164.072 120.17 164.867 120.73 165.807C121.291 166.739 121.677 167.803 121.889 169ZM126.443 185V161.727H129.261V173.273H129.534L139.989 161.727H143.67L133.898 172.227L143.67 185H140.261L132.17 174.182L129.261 177.455V185H126.443ZM147.318 185V161.727H161.364V164.227H150.136V172.091H160.636V174.591H150.136V182.5H161.545V185H147.318ZM184.898 161.727V185H182.17L169.489 166.727H169.261V185H166.443V161.727H169.17L181.898 180.045H182.125V161.727H184.898ZM197.719 185H190.537V161.727H198.037C200.295 161.727 202.226 162.193 203.832 163.125C205.438 164.049 206.67 165.379 207.526 167.114C208.382 168.841 208.81 170.909 208.81 173.318C208.81 175.742 208.378 177.83 207.514 179.58C206.651 181.322 205.393 182.663 203.741 183.602C202.09 184.534 200.082 185 197.719 185ZM193.355 182.5H197.537C199.461 182.5 201.056 182.129 202.321 181.386C203.586 180.644 204.529 179.587 205.151 178.216C205.772 176.845 206.082 175.212 206.082 173.318C206.082 171.439 205.776 169.822 205.162 168.466C204.548 167.102 203.632 166.057 202.412 165.33C201.192 164.595 199.673 164.227 197.855 164.227H193.355V182.5Z" fill="white"/>
</g>
<rect x="1" y="1" width="1078" height="245" rx="31" stroke="#CFCFE7" stroke-opacity="0.1" stroke-width="2"/>
<defs>
<radialGradient id="paint0_radial_724_291" cx="0" cy="0" r="1" gradientUnits="userSpaceOnUse" gradientTransform="translate(406.5 -52) rotate(90) scale(281 347.5)">
<stop stop-color="#AF71FF"/>
<stop offset="1" stop-color="#4C3F78" stop-opacity="0"/>
</radialGradient>
<radialGradient id="paint1_radial_724_291" cx="0" cy="0" r="1" gradientUnits="userSpaceOnUse" gradientTransform="translate(45.8513 410.766) rotate(90) scale(490.769 300.101)">
<stop stop-color="#AF71FF"/>
<stop offset="1" stop-color="#4C3F78" stop-opacity="0"/>
</radialGradient>
<radialGradient id="paint2_radial_724_291" cx="0" cy="0" r="1" gradientUnits="userSpaceOnUse" gradientTransform="translate(936.084 416.988) rotate(90) scale(531.613 501.394)">
<stop stop-color="#AF71FF"/>
<stop offset="1" stop-color="#4C3F78" stop-opacity="0"/>
</radialGradient>
<clipPath id="clip0_724_291">
<rect width="1080" height="247" rx="32" fill="white"/>
</clipPath>
<clipPath id="clip1_724_291">
<rect width="132" height="50" fill="white" transform="translate(882 135)"/>
</clipPath>
</defs>
</svg>
