<svg width="1080" height="247" viewBox="0 0 1080 247" fill="none" xmlns="http://www.w3.org/2000/svg">
<g clip-path="url(#clip0_730_412)">
<rect width="1080" height="247" rx="32" fill="#1F1F24"/>
<g opacity="0.6">
<ellipse opacity="0.7" cx="406.5" cy="-52" rx="347.5" ry="281" fill="url(#paint0_radial_730_412)"/>
<ellipse opacity="0.7" cx="45.8513" cy="410.766" rx="300.101" ry="490.769" transform="rotate(29.0906 45.8513 410.766)" fill="url(#paint1_radial_730_412)"/>
<ellipse opacity="0.7" cx="936.084" cy="416.988" rx="501.394" ry="531.613" transform="rotate(5.98411 936.084 416.988)" fill="url(#paint2_radial_730_412)"/>
</g>
<g clip-path="url(#clip1_730_412)">
<path d="M994.017 144.981H985.84L995.808 135H981.82L971.912 144.978H957.99L948.075 135H934.087L944.058 144.985L924.078 164.991L934.07 174.995H905.927L895.992 164.991L905.927 154.986H920.025L930.003 144.985L920.085 135H906.097L916.065 144.981H901.983L882 164.991L901.983 185H951.942L971.925 164.991L961.933 154.986H990.077L1000.01 164.991L990.077 174.995H975.978L965.997 185H994.017L1014 164.991L994.017 144.981ZM948.002 174.995L938.067 164.991L948.002 154.986L957.937 164.991L948.002 174.995Z" fill="white"/>
</g>
<path d="M65.0682 135V65.1818H92.6136C97.9091 65.1818 102.42 66.1932 106.148 68.2159C109.875 70.2159 112.716 73 114.67 76.5682C116.648 80.1136 117.636 84.2045 117.636 88.8409C117.636 93.4773 116.636 97.5682 114.636 101.114C112.636 104.659 109.739 107.42 105.943 109.398C102.17 111.375 97.6023 112.364 92.2386 112.364H74.6818V100.534H89.8523C92.6932 100.534 95.0341 100.045 96.875 99.0682C98.7386 98.0682 100.125 96.6932 101.034 94.9432C101.966 93.1705 102.432 91.1364 102.432 88.8409C102.432 86.5227 101.966 84.5 101.034 82.7727C100.125 81.0227 98.7386 79.6705 96.875 78.7159C95.0114 77.7386 92.6477 77.25 89.7841 77.25H79.8295V135H65.0682ZM126.952 135V82.6364H141.031V91.7727H141.577C142.531 88.5227 144.134 86.0682 146.384 84.4091C148.634 82.7273 151.224 81.8864 154.156 81.8864C154.884 81.8864 155.668 81.9318 156.509 82.0227C157.349 82.1136 158.088 82.2386 158.724 82.3977V95.2841C158.043 95.0795 157.099 94.8977 155.895 94.7386C154.69 94.5795 153.588 94.5 152.588 94.5C150.452 94.5 148.543 94.9659 146.861 95.8977C145.202 96.8068 143.884 98.0795 142.906 99.7159C141.952 101.352 141.474 103.239 141.474 105.375V135H126.952ZM187.455 136.023C182.159 136.023 177.58 134.898 173.716 132.648C169.875 130.375 166.909 127.216 164.818 123.17C162.727 119.102 161.682 114.386 161.682 109.023C161.682 103.614 162.727 98.8864 164.818 94.8409C166.909 90.7727 169.875 87.6136 173.716 85.3636C177.58 83.0909 182.159 81.9545 187.455 81.9545C192.75 81.9545 197.318 83.0909 201.159 85.3636C205.023 87.6136 208 90.7727 210.091 94.8409C212.182 98.8864 213.227 103.614 213.227 109.023C213.227 114.386 212.182 119.102 210.091 123.17C208 127.216 205.023 130.375 201.159 132.648C197.318 134.898 192.75 136.023 187.455 136.023ZM187.523 124.773C189.932 124.773 191.943 124.091 193.557 122.727C195.17 121.341 196.386 119.455 197.205 117.068C198.045 114.682 198.466 111.966 198.466 108.92C198.466 105.875 198.045 103.159 197.205 100.773C196.386 98.3864 195.17 96.5 193.557 95.1136C191.943 93.7273 189.932 93.0341 187.523 93.0341C185.091 93.0341 183.045 93.7273 181.386 95.1136C179.75 96.5 178.511 98.3864 177.67 100.773C176.852 103.159 176.443 105.875 176.443 108.92C176.443 111.966 176.852 114.682 177.67 117.068C178.511 119.455 179.75 121.341 181.386 122.727C183.045 124.091 185.091 124.773 187.523 124.773ZM222.67 82.6364H237.193V137.591C237.193 141.636 236.398 144.909 234.807 147.409C233.216 149.909 230.932 151.739 227.955 152.898C225 154.057 221.466 154.636 217.352 154.636C216.852 154.636 216.375 154.625 215.92 154.602C215.443 154.602 214.943 154.591 214.42 154.568V143.216C214.807 143.239 215.148 143.25 215.443 143.25C215.716 143.273 216.011 143.284 216.33 143.284C218.67 143.284 220.307 142.784 221.239 141.784C222.193 140.807 222.67 139.33 222.67 137.352V82.6364ZM229.898 75.8864C227.761 75.8864 225.92 75.1705 224.375 73.7386C222.83 72.2841 222.057 70.5455 222.057 68.5227C222.057 66.5227 222.83 64.8068 224.375 63.375C225.92 61.9205 227.761 61.1932 229.898 61.1932C232.08 61.1932 233.932 61.9205 235.455 63.375C237 64.8068 237.773 66.5227 237.773 68.5227C237.773 70.5455 237 72.2841 235.455 73.7386C233.932 75.1705 232.08 75.8864 229.898 75.8864ZM272.69 136.023C267.304 136.023 262.668 134.932 258.781 132.75C254.918 130.545 251.94 127.432 249.849 123.409C247.759 119.364 246.713 114.58 246.713 109.057C246.713 103.67 247.759 98.9432 249.849 94.875C251.94 90.8068 254.884 87.6364 258.679 85.3636C262.497 83.0909 266.974 81.9545 272.111 81.9545C275.565 81.9545 278.781 82.5114 281.759 83.625C284.759 84.7159 287.372 86.3636 289.599 88.5682C291.849 90.7727 293.599 93.5455 294.849 96.8864C296.099 100.205 296.724 104.091 296.724 108.545V112.534H252.509V103.534H283.054C283.054 101.443 282.599 99.5909 281.69 97.9773C280.781 96.3636 279.52 95.1023 277.906 94.1932C276.315 93.2614 274.463 92.7955 272.349 92.7955C270.145 92.7955 268.19 93.3068 266.486 94.3295C264.804 95.3295 263.486 96.6818 262.531 98.3864C261.577 100.068 261.088 101.943 261.065 104.011V112.568C261.065 115.159 261.543 117.398 262.497 119.284C263.474 121.17 264.849 122.625 266.622 123.648C268.395 124.67 270.497 125.182 272.929 125.182C274.543 125.182 276.02 124.955 277.361 124.5C278.702 124.045 279.849 123.364 280.804 122.455C281.759 121.545 282.486 120.432 282.986 119.114L296.418 120C295.736 123.227 294.338 126.045 292.224 128.455C290.134 130.841 287.429 132.705 284.111 134.045C280.815 135.364 277.009 136.023 272.69 136.023ZM329.861 136.023C324.497 136.023 319.884 134.886 316.02 132.614C312.179 130.318 309.224 127.136 307.156 123.068C305.111 119 304.088 114.318 304.088 109.023C304.088 103.659 305.122 98.9545 307.19 94.9091C309.281 90.8409 312.247 87.6705 316.088 85.3977C319.929 83.1023 324.497 81.9545 329.793 81.9545C334.361 81.9545 338.361 82.7841 341.793 84.4432C345.224 86.1023 347.94 88.4318 349.94 91.4318C351.94 94.4318 353.043 97.9545 353.247 102H339.543C339.156 99.3864 338.134 97.2841 336.474 95.6932C334.838 94.0795 332.69 93.2727 330.031 93.2727C327.781 93.2727 325.815 93.8864 324.134 95.1136C322.474 96.3182 321.179 98.0795 320.247 100.398C319.315 102.716 318.849 105.523 318.849 108.818C318.849 112.159 319.304 115 320.213 117.341C321.145 119.682 322.452 121.466 324.134 122.693C325.815 123.92 327.781 124.534 330.031 124.534C331.69 124.534 333.179 124.193 334.497 123.511C335.838 122.83 336.94 121.841 337.804 120.545C338.69 119.227 339.27 117.648 339.543 115.807H353.247C353.02 119.807 351.929 123.33 349.974 126.375C348.043 129.398 345.372 131.761 341.963 133.466C338.554 135.17 334.52 136.023 329.861 136.023ZM390.398 82.6364V93.5455H358.864V82.6364H390.398ZM366.023 70.0909H380.545V118.909C380.545 120.25 380.75 121.295 381.159 122.045C381.568 122.773 382.136 123.284 382.864 123.58C383.614 123.875 384.477 124.023 385.455 124.023C386.136 124.023 386.818 123.966 387.5 123.852C388.182 123.716 388.705 123.614 389.068 123.545L391.352 134.352C390.625 134.58 389.602 134.841 388.284 135.136C386.966 135.455 385.364 135.648 383.477 135.716C379.977 135.852 376.909 135.386 374.273 134.318C371.659 133.25 369.625 131.591 368.17 129.341C366.716 127.091 366 124.25 366.023 120.818V70.0909ZM465.645 97.5682L452.349 98.3864C452.122 97.25 451.634 96.2273 450.884 95.3182C450.134 94.3864 449.145 93.6477 447.918 93.1023C446.713 92.5341 445.27 92.25 443.588 92.25C441.338 92.25 439.44 92.7273 437.895 93.6818C436.349 94.6136 435.577 95.8636 435.577 97.4318C435.577 98.6818 436.077 99.7386 437.077 100.602C438.077 101.466 439.793 102.159 442.224 102.682L451.702 104.591C456.793 105.636 460.588 107.318 463.088 109.636C465.588 111.955 466.838 115 466.838 118.773C466.838 122.205 465.827 125.216 463.804 127.807C461.804 130.398 459.054 132.42 455.554 133.875C452.077 135.307 448.065 136.023 443.52 136.023C436.588 136.023 431.065 134.58 426.952 131.693C422.861 128.784 420.463 124.83 419.759 119.83L434.043 119.08C434.474 121.193 435.52 122.807 437.179 123.92C438.838 125.011 440.963 125.557 443.554 125.557C446.099 125.557 448.145 125.068 449.69 124.091C451.259 123.091 452.054 121.807 452.077 120.239C452.054 118.92 451.497 117.841 450.406 117C449.315 116.136 447.634 115.477 445.361 115.023L436.293 113.216C431.179 112.193 427.372 110.42 424.872 107.898C422.395 105.375 421.156 102.159 421.156 98.25C421.156 94.8864 422.065 91.9886 423.884 89.5568C425.724 87.125 428.304 85.25 431.622 83.9318C434.963 82.6136 438.872 81.9545 443.349 81.9545C449.963 81.9545 455.168 83.3523 458.963 86.1477C462.781 88.9432 465.009 92.75 465.645 97.5682ZM499.847 136.023C494.46 136.023 489.824 134.932 485.938 132.75C482.074 130.545 479.097 127.432 477.006 123.409C474.915 119.364 473.869 114.58 473.869 109.057C473.869 103.67 474.915 98.9432 477.006 94.875C479.097 90.8068 482.04 87.6364 485.835 85.3636C489.653 83.0909 494.131 81.9545 499.267 81.9545C502.722 81.9545 505.938 82.5114 508.915 83.625C511.915 84.7159 514.528 86.3636 516.756 88.5682C519.006 90.7727 520.756 93.5455 522.006 96.8864C523.256 100.205 523.881 104.091 523.881 108.545V112.534H479.665V103.534H510.21C510.21 101.443 509.756 99.5909 508.847 97.9773C507.938 96.3636 506.676 95.1023 505.062 94.1932C503.472 93.2614 501.619 92.7955 499.506 92.7955C497.301 92.7955 495.347 93.3068 493.642 94.3295C491.96 95.3295 490.642 96.6818 489.688 98.3864C488.733 100.068 488.244 101.943 488.222 104.011V112.568C488.222 115.159 488.699 117.398 489.653 119.284C490.631 121.17 492.006 122.625 493.778 123.648C495.551 124.67 497.653 125.182 500.085 125.182C501.699 125.182 503.176 124.955 504.517 124.5C505.858 124.045 507.006 123.364 507.96 122.455C508.915 121.545 509.642 120.432 510.142 119.114L523.574 120C522.892 123.227 521.494 126.045 519.381 128.455C517.29 130.841 514.585 132.705 511.267 134.045C507.972 135.364 504.165 136.023 499.847 136.023ZM561.21 82.6364V93.5455H529.676V82.6364H561.21ZM536.835 70.0909H551.358V118.909C551.358 120.25 551.563 121.295 551.972 122.045C552.381 122.773 552.949 123.284 553.676 123.58C554.426 123.875 555.29 124.023 556.267 124.023C556.949 124.023 557.631 123.966 558.312 123.852C558.994 123.716 559.517 123.614 559.881 123.545L562.165 134.352C561.438 134.58 560.415 134.841 559.097 135.136C557.778 135.455 556.176 135.648 554.29 135.716C550.79 135.852 547.722 135.386 545.085 134.318C542.472 133.25 540.438 131.591 538.983 129.341C537.528 127.091 536.813 124.25 536.835 120.818V70.0909ZM604.25 112.705V82.6364H618.773V135H604.83V125.489H604.284C603.102 128.557 601.136 131.023 598.386 132.886C595.659 134.75 592.33 135.682 588.398 135.682C584.898 135.682 581.818 134.886 579.159 133.295C576.5 131.705 574.42 129.443 572.92 126.511C571.443 123.58 570.693 120.068 570.67 115.977V82.6364H585.193V113.386C585.216 116.477 586.045 118.92 587.682 120.716C589.318 122.511 591.511 123.409 594.261 123.409C596.011 123.409 597.648 123.011 599.17 122.216C600.693 121.398 601.92 120.193 602.852 118.602C603.807 117.011 604.273 115.045 604.25 112.705ZM630.389 154.636V82.6364H644.707V91.4318H645.355C645.991 90.0227 646.912 88.5909 648.116 87.1364C649.344 85.6591 650.935 84.4318 652.889 83.4545C654.866 82.4545 657.321 81.9545 660.253 81.9545C664.071 81.9545 667.594 82.9545 670.821 84.9545C674.048 86.9318 676.628 89.9205 678.56 93.9205C680.491 97.8977 681.457 102.886 681.457 108.886C681.457 114.727 680.514 119.659 678.628 123.682C676.764 127.682 674.219 130.716 670.991 132.784C667.787 134.83 664.196 135.852 660.219 135.852C657.401 135.852 655.003 135.386 653.026 134.455C651.071 133.523 649.469 132.352 648.219 130.943C646.969 129.511 646.014 128.068 645.355 126.614H644.912V154.636H630.389ZM644.605 108.818C644.605 111.932 645.037 114.648 645.901 116.966C646.764 119.284 648.014 121.091 649.651 122.386C651.287 123.659 653.276 124.295 655.616 124.295C657.98 124.295 659.98 123.648 661.616 122.352C663.253 121.034 664.491 119.216 665.332 116.898C666.196 114.557 666.628 111.864 666.628 108.818C666.628 105.795 666.207 103.136 665.366 100.841C664.526 98.5455 663.287 96.75 661.651 95.4545C660.014 94.1591 658.003 93.5114 655.616 93.5114C653.253 93.5114 651.253 94.1364 649.616 95.3864C648.003 96.6364 646.764 98.4091 645.901 100.705C645.037 103 644.605 105.705 644.605 108.818Z" fill="white"/>
<path d="M61.8182 185V161.727H69.9545C71.5758 161.727 72.9129 162.008 73.9659 162.568C75.0189 163.121 75.803 163.867 76.3182 164.807C76.8333 165.739 77.0909 166.773 77.0909 167.909C77.0909 168.909 76.9129 169.735 76.5568 170.386C76.2083 171.038 75.7462 171.553 75.1705 171.932C74.6023 172.311 73.9848 172.591 73.3182 172.773V173C74.0303 173.045 74.7462 173.295 75.4659 173.75C76.1856 174.205 76.7879 174.856 77.2727 175.705C77.7576 176.553 78 177.591 78 178.818C78 179.985 77.7348 181.034 77.2045 181.966C76.6742 182.898 75.8371 183.636 74.6932 184.182C73.5492 184.727 72.0606 185 70.2273 185H61.8182ZM64.6364 182.5H70.2273C72.0682 182.5 73.375 182.144 74.1477 181.432C74.928 180.712 75.3182 179.841 75.3182 178.818C75.3182 178.03 75.1174 177.303 74.7159 176.636C74.3144 175.962 73.7424 175.424 73 175.023C72.2576 174.614 71.3788 174.409 70.3636 174.409H64.6364V182.5ZM64.6364 171.955H69.8636C70.7121 171.955 71.4773 171.788 72.1591 171.455C72.8485 171.121 73.3939 170.652 73.7955 170.045C74.2045 169.439 74.4091 168.727 74.4091 167.909C74.4091 166.886 74.053 166.019 73.3409 165.307C72.6288 164.587 71.5 164.227 69.9545 164.227H64.6364V171.955ZM83.5852 185H80.6307L89.1761 161.727H92.0852L100.631 185H97.6761L90.7216 165.409H90.5398L83.5852 185ZM84.6761 175.909H96.5852V178.409H84.6761V175.909ZM121.889 169H119.071C118.904 168.189 118.613 167.477 118.196 166.864C117.787 166.25 117.287 165.735 116.696 165.318C116.113 164.894 115.465 164.576 114.753 164.364C114.041 164.152 113.298 164.045 112.526 164.045C111.116 164.045 109.84 164.402 108.696 165.114C107.56 165.826 106.654 166.875 105.98 168.261C105.313 169.648 104.98 171.348 104.98 173.364C104.98 175.379 105.313 177.08 105.98 178.466C106.654 179.852 107.56 180.902 108.696 181.614C109.84 182.326 111.116 182.682 112.526 182.682C113.298 182.682 114.041 182.576 114.753 182.364C115.465 182.152 116.113 181.837 116.696 181.42C117.287 180.996 117.787 180.477 118.196 179.864C118.613 179.242 118.904 178.53 119.071 177.727H121.889C121.677 178.917 121.291 179.981 120.73 180.92C120.17 181.86 119.473 182.659 118.639 183.318C117.806 183.97 116.87 184.466 115.832 184.807C114.802 185.148 113.7 185.318 112.526 185.318C110.541 185.318 108.776 184.833 107.23 183.864C105.685 182.894 104.469 181.515 103.582 179.727C102.696 177.939 102.253 175.818 102.253 173.364C102.253 170.909 102.696 168.788 103.582 167C104.469 165.212 105.685 163.833 107.23 162.864C108.776 161.894 110.541 161.409 112.526 161.409C113.7 161.409 114.802 161.58 115.832 161.92C116.87 162.261 117.806 162.761 118.639 163.42C119.473 164.072 120.17 164.867 120.73 165.807C121.291 166.739 121.677 167.803 121.889 169ZM126.443 185V161.727H129.261V173.273H129.534L139.989 161.727H143.67L133.898 172.227L143.67 185H140.261L132.17 174.182L129.261 177.455V185H126.443ZM147.318 185V161.727H161.364V164.227H150.136V172.091H160.636V174.591H150.136V182.5H161.545V185H147.318ZM184.898 161.727V185H182.17L169.489 166.727H169.261V185H166.443V161.727H169.17L181.898 180.045H182.125V161.727H184.898ZM197.719 185H190.537V161.727H198.037C200.295 161.727 202.226 162.193 203.832 163.125C205.438 164.049 206.67 165.379 207.526 167.114C208.382 168.841 208.81 170.909 208.81 173.318C208.81 175.742 208.378 177.83 207.514 179.58C206.651 181.322 205.393 182.663 203.741 183.602C202.09 184.534 200.082 185 197.719 185ZM193.355 182.5H197.537C199.461 182.5 201.056 182.129 202.321 181.386C203.586 180.644 204.529 179.587 205.151 178.216C205.772 176.845 206.082 175.212 206.082 173.318C206.082 171.439 205.776 169.822 205.162 168.466C204.548 167.102 203.632 166.057 202.412 165.33C201.192 164.595 199.673 164.227 197.855 164.227H193.355V182.5ZM228.991 180.909V165.909H231.537V180.909H228.991ZM222.764 174.682V172.136H237.764V174.682H222.764ZM252.631 185V161.727H266.585V164.227H255.449V172.091H265.54V174.591H255.449V185H252.631ZM271.412 185V161.727H279.276C281.094 161.727 282.586 162.038 283.753 162.659C284.92 163.273 285.783 164.117 286.344 165.193C286.904 166.269 287.185 167.492 287.185 168.864C287.185 170.235 286.904 171.451 286.344 172.511C285.783 173.572 284.923 174.405 283.764 175.011C282.605 175.61 281.124 175.909 279.321 175.909H272.957V173.364H279.23C280.473 173.364 281.473 173.182 282.23 172.818C282.995 172.455 283.548 171.939 283.889 171.273C284.238 170.598 284.412 169.795 284.412 168.864C284.412 167.932 284.238 167.117 283.889 166.42C283.541 165.723 282.984 165.186 282.219 164.807C281.454 164.42 280.442 164.227 279.185 164.227H274.23V185H271.412ZM282.366 174.545L288.094 185H284.821L279.185 174.545H282.366ZM311.517 173.364C311.517 175.818 311.074 177.939 310.188 179.727C309.301 181.515 308.085 182.894 306.54 183.864C304.994 184.833 303.229 185.318 301.244 185.318C299.259 185.318 297.494 184.833 295.949 183.864C294.403 182.894 293.188 181.515 292.301 179.727C291.415 177.939 290.972 175.818 290.972 173.364C290.972 170.909 291.415 168.788 292.301 167C293.188 165.212 294.403 163.833 295.949 162.864C297.494 161.894 299.259 161.409 301.244 161.409C303.229 161.409 304.994 161.894 306.54 162.864C308.085 163.833 309.301 165.212 310.188 167C311.074 168.788 311.517 170.909 311.517 173.364ZM308.79 173.364C308.79 171.348 308.453 169.648 307.778 168.261C307.112 166.875 306.206 165.826 305.062 165.114C303.926 164.402 302.653 164.045 301.244 164.045C299.835 164.045 298.559 164.402 297.415 165.114C296.278 165.826 295.373 166.875 294.699 168.261C294.032 169.648 293.699 171.348 293.699 173.364C293.699 175.379 294.032 177.08 294.699 178.466C295.373 179.852 296.278 180.902 297.415 181.614C298.559 182.326 299.835 182.682 301.244 182.682C302.653 182.682 303.926 182.326 305.062 181.614C306.206 180.902 307.112 179.852 307.778 178.466C308.453 177.08 308.79 175.379 308.79 173.364ZM334.71 161.727V185H331.983L319.301 166.727H319.074V185H316.256V161.727H318.983L331.71 180.045H331.938V161.727H334.71ZM339.077 164.227V161.727H356.531V164.227H349.213V185H346.395V164.227H339.077ZM360.881 185V161.727H374.926V164.227H363.699V172.091H374.199V174.591H363.699V182.5H375.108V185H360.881ZM398.46 161.727V185H395.733L383.051 166.727H382.824V185H380.006V161.727H382.733L395.46 180.045H395.688V161.727H398.46ZM411.281 185H404.099V161.727H411.599C413.857 161.727 415.789 162.193 417.395 163.125C419.001 164.049 420.232 165.379 421.088 167.114C421.944 168.841 422.372 170.909 422.372 173.318C422.372 175.742 421.94 177.83 421.077 179.58C420.213 181.322 418.955 182.663 417.304 183.602C415.652 184.534 413.645 185 411.281 185ZM406.918 182.5H411.099C413.024 182.5 414.618 182.129 415.884 181.386C417.149 180.644 418.092 179.587 418.713 178.216C419.334 176.845 419.645 175.212 419.645 173.318C419.645 171.439 419.338 169.822 418.724 168.466C418.111 167.102 417.194 166.057 415.974 165.33C414.755 164.595 413.236 164.227 411.418 164.227H406.918V182.5Z" fill="white"/>
</g>
<rect x="1" y="1" width="1078" height="245" rx="31" stroke="#CFCFE7" stroke-opacity="0.1" stroke-width="2"/>
<defs>
<radialGradient id="paint0_radial_730_412" cx="0" cy="0" r="1" gradientUnits="userSpaceOnUse" gradientTransform="translate(406.5 -52) rotate(90) scale(281 347.5)">
<stop stop-color="#AF71FF"/>
<stop offset="1" stop-color="#4C3F78" stop-opacity="0"/>
</radialGradient>
<radialGradient id="paint1_radial_730_412" cx="0" cy="0" r="1" gradientUnits="userSpaceOnUse" gradientTransform="translate(45.8513 410.766) rotate(90) scale(490.769 300.101)">
<stop stop-color="#AF71FF"/>
<stop offset="1" stop-color="#4C3F78" stop-opacity="0"/>
</radialGradient>
<radialGradient id="paint2_radial_730_412" cx="0" cy="0" r="1" gradientUnits="userSpaceOnUse" gradientTransform="translate(936.084 416.988) rotate(90) scale(531.613 501.394)">
<stop stop-color="#AF71FF"/>
<stop offset="1" stop-color="#4C3F78" stop-opacity="0"/>
</radialGradient>
<clipPath id="clip0_730_412">
<rect width="1080" height="247" rx="32" fill="white"/>
</clipPath>
<clipPath id="clip1_730_412">
<rect width="132" height="50" fill="white" transform="translate(882 135)"/>
</clipPath>
</defs>
</svg>
