<svg width="1080" height="247" viewBox="0 0 1080 247" fill="none" xmlns="http://www.w3.org/2000/svg">
<g clip-path="url(#clip0_730_309)">
<rect width="1080" height="247" rx="32" fill="#1F1F24"/>
<g opacity="0.6">
<ellipse opacity="0.7" cx="406.5" cy="-52" rx="347.5" ry="281" fill="url(#paint0_radial_730_309)"/>
<ellipse opacity="0.7" cx="45.8513" cy="410.766" rx="300.101" ry="490.769" transform="rotate(29.0906 45.8513 410.766)" fill="url(#paint1_radial_730_309)"/>
<ellipse opacity="0.7" cx="936.084" cy="416.988" rx="501.394" ry="531.613" transform="rotate(5.98411 936.084 416.988)" fill="url(#paint2_radial_730_309)"/>
</g>
<g clip-path="url(#clip1_730_309)">
<path d="M994.017 144.981H985.84L995.808 135H981.82L971.912 144.978H957.99L948.075 135H934.087L944.058 144.985L924.078 164.991L934.07 174.995H905.927L895.992 164.991L905.927 154.986H920.025L930.003 144.985L920.085 135H906.097L916.065 144.981H901.983L882 164.991L901.983 185H951.942L971.925 164.991L961.933 154.986H990.077L1000.01 164.991L990.077 174.995H975.978L965.997 185H994.017L1014 164.991L994.017 144.981ZM948.002 174.995L938.067 164.991L948.002 154.986L957.937 164.991L948.002 174.995Z" fill="white"/>
</g>
<path d="M62.4091 77.3523V65.1818H119.75V77.3523H98.375V135H83.7841V77.3523H62.4091ZM145.19 136.023C139.804 136.023 135.168 134.932 131.281 132.75C127.418 130.545 124.44 127.432 122.349 123.409C120.259 119.364 119.213 114.58 119.213 109.057C119.213 103.67 120.259 98.9432 122.349 94.875C124.44 90.8068 127.384 87.6364 131.179 85.3636C134.997 83.0909 139.474 81.9545 144.611 81.9545C148.065 81.9545 151.281 82.5114 154.259 83.625C157.259 84.7159 159.872 86.3636 162.099 88.5682C164.349 90.7727 166.099 93.5455 167.349 96.8864C168.599 100.205 169.224 104.091 169.224 108.545V112.534H125.009V103.534H155.554C155.554 101.443 155.099 99.5909 154.19 97.9773C153.281 96.3636 152.02 95.1023 150.406 94.1932C148.815 93.2614 146.963 92.7955 144.849 92.7955C142.645 92.7955 140.69 93.3068 138.986 94.3295C137.304 95.3295 135.986 96.6818 135.031 98.3864C134.077 100.068 133.588 101.943 133.565 104.011V112.568C133.565 115.159 134.043 117.398 134.997 119.284C135.974 121.17 137.349 122.625 139.122 123.648C140.895 124.67 142.997 125.182 145.429 125.182C147.043 125.182 148.52 124.955 149.861 124.5C151.202 124.045 152.349 123.364 153.304 122.455C154.259 121.545 154.986 120.432 155.486 119.114L168.918 120C168.236 123.227 166.838 126.045 164.724 128.455C162.634 130.841 159.929 132.705 156.611 134.045C153.315 135.364 149.509 136.023 145.19 136.023ZM202.361 136.023C196.997 136.023 192.384 134.886 188.52 132.614C184.679 130.318 181.724 127.136 179.656 123.068C177.611 119 176.588 114.318 176.588 109.023C176.588 103.659 177.622 98.9545 179.69 94.9091C181.781 90.8409 184.747 87.6705 188.588 85.3977C192.429 83.1023 196.997 81.9545 202.293 81.9545C206.861 81.9545 210.861 82.7841 214.293 84.4432C217.724 86.1023 220.44 88.4318 222.44 91.4318C224.44 94.4318 225.543 97.9545 225.747 102H212.043C211.656 99.3864 210.634 97.2841 208.974 95.6932C207.338 94.0795 205.19 93.2727 202.531 93.2727C200.281 93.2727 198.315 93.8864 196.634 95.1136C194.974 96.3182 193.679 98.0795 192.747 100.398C191.815 102.716 191.349 105.523 191.349 108.818C191.349 112.159 191.804 115 192.713 117.341C193.645 119.682 194.952 121.466 196.634 122.693C198.315 123.92 200.281 124.534 202.531 124.534C204.19 124.534 205.679 124.193 206.997 123.511C208.338 122.83 209.44 121.841 210.304 120.545C211.19 119.227 211.77 117.648 212.043 115.807H225.747C225.52 119.807 224.429 123.33 222.474 126.375C220.543 129.398 217.872 131.761 214.463 133.466C211.054 135.17 207.02 136.023 202.361 136.023ZM249.568 104.727V135H235.045V65.1818H249.159V91.875H249.773C250.955 88.7841 252.864 86.3636 255.5 84.6136C258.136 82.8409 261.443 81.9545 265.42 81.9545C269.057 81.9545 272.227 82.75 274.932 84.3409C277.659 85.9091 279.773 88.1705 281.273 91.125C282.795 94.0568 283.545 97.5682 283.523 101.659V135H269V104.25C269.023 101.023 268.205 98.5114 266.545 96.7159C264.909 94.9205 262.614 94.0227 259.659 94.0227C257.682 94.0227 255.932 94.4432 254.409 95.2841C252.909 96.125 251.727 97.3523 250.864 98.9659C250.023 100.557 249.591 102.477 249.568 104.727ZM309.474 104.727V135H294.952V82.6364H308.793V91.875H309.406C310.565 88.8295 312.509 86.4205 315.236 84.6477C317.963 82.8523 321.27 81.9545 325.156 81.9545C328.793 81.9545 331.963 82.75 334.668 84.3409C337.372 85.9318 339.474 88.2045 340.974 91.1591C342.474 94.0909 343.224 97.5909 343.224 101.659V135H328.702V104.25C328.724 101.045 327.906 98.5455 326.247 96.75C324.588 94.9318 322.304 94.0227 319.395 94.0227C317.44 94.0227 315.713 94.4432 314.213 95.2841C312.736 96.125 311.577 97.3523 310.736 98.9659C309.918 100.557 309.497 102.477 309.474 104.727ZM378.33 136.023C373.034 136.023 368.455 134.898 364.591 132.648C360.75 130.375 357.784 127.216 355.693 123.17C353.602 119.102 352.557 114.386 352.557 109.023C352.557 103.614 353.602 98.8864 355.693 94.8409C357.784 90.7727 360.75 87.6136 364.591 85.3636C368.455 83.0909 373.034 81.9545 378.33 81.9545C383.625 81.9545 388.193 83.0909 392.034 85.3636C395.898 87.6136 398.875 90.7727 400.966 94.8409C403.057 98.8864 404.102 103.614 404.102 109.023C404.102 114.386 403.057 119.102 400.966 123.17C398.875 127.216 395.898 130.375 392.034 132.648C388.193 134.898 383.625 136.023 378.33 136.023ZM378.398 124.773C380.807 124.773 382.818 124.091 384.432 122.727C386.045 121.341 387.261 119.455 388.08 117.068C388.92 114.682 389.341 111.966 389.341 108.92C389.341 105.875 388.92 103.159 388.08 100.773C387.261 98.3864 386.045 96.5 384.432 95.1136C382.818 93.7273 380.807 93.0341 378.398 93.0341C375.966 93.0341 373.92 93.7273 372.261 95.1136C370.625 96.5 369.386 98.3864 368.545 100.773C367.727 103.159 367.318 105.875 367.318 108.92C367.318 111.966 367.727 114.682 368.545 117.068C369.386 119.455 370.625 121.341 372.261 122.727C373.92 124.091 375.966 124.773 378.398 124.773ZM428.068 65.1818V135H413.545V65.1818H428.068ZM463.361 136.023C458.065 136.023 453.486 134.898 449.622 132.648C445.781 130.375 442.815 127.216 440.724 123.17C438.634 119.102 437.588 114.386 437.588 109.023C437.588 103.614 438.634 98.8864 440.724 94.8409C442.815 90.7727 445.781 87.6136 449.622 85.3636C453.486 83.0909 458.065 81.9545 463.361 81.9545C468.656 81.9545 473.224 83.0909 477.065 85.3636C480.929 87.6136 483.906 90.7727 485.997 94.8409C488.088 98.8864 489.134 103.614 489.134 109.023C489.134 114.386 488.088 119.102 485.997 123.17C483.906 127.216 480.929 130.375 477.065 132.648C473.224 134.898 468.656 136.023 463.361 136.023ZM463.429 124.773C465.838 124.773 467.849 124.091 469.463 122.727C471.077 121.341 472.293 119.455 473.111 117.068C473.952 114.682 474.372 111.966 474.372 108.92C474.372 105.875 473.952 103.159 473.111 100.773C472.293 98.3864 471.077 96.5 469.463 95.1136C467.849 93.7273 465.838 93.0341 463.429 93.0341C460.997 93.0341 458.952 93.7273 457.293 95.1136C455.656 96.5 454.418 98.3864 453.577 100.773C452.759 103.159 452.349 105.875 452.349 108.92C452.349 111.966 452.759 114.682 453.577 117.068C454.418 119.455 455.656 121.341 457.293 122.727C458.952 124.091 460.997 124.773 463.429 124.773ZM522.168 155.727C517.463 155.727 513.429 155.08 510.065 153.784C506.724 152.511 504.065 150.773 502.088 148.568C500.111 146.364 498.827 143.886 498.236 141.136L511.668 139.33C512.077 140.375 512.724 141.352 513.611 142.261C514.497 143.17 515.668 143.898 517.122 144.443C518.599 145.011 520.395 145.295 522.509 145.295C525.668 145.295 528.27 144.523 530.315 142.977C532.384 141.455 533.418 138.898 533.418 135.307V125.727H532.804C532.168 127.182 531.213 128.557 529.94 129.852C528.668 131.148 527.031 132.205 525.031 133.023C523.031 133.841 520.645 134.25 517.872 134.25C513.94 134.25 510.361 133.341 507.134 131.523C503.929 129.682 501.372 126.875 499.463 123.102C497.577 119.307 496.634 114.511 496.634 108.716C496.634 102.784 497.599 97.8295 499.531 93.8523C501.463 89.875 504.031 86.8977 507.236 84.9205C510.463 82.9432 513.997 81.9545 517.838 81.9545C520.77 81.9545 523.224 82.4545 525.202 83.4545C527.179 84.4318 528.77 85.6591 529.974 87.1364C531.202 88.5909 532.145 90.0227 532.804 91.4318H533.349V82.6364H547.77V135.511C547.77 139.966 546.679 143.693 544.497 146.693C542.315 149.693 539.293 151.943 535.429 153.443C531.588 154.966 527.168 155.727 522.168 155.727ZM522.474 123.341C524.815 123.341 526.793 122.761 528.406 121.602C530.043 120.42 531.293 118.739 532.156 116.557C533.043 114.352 533.486 111.716 533.486 108.648C533.486 105.58 533.054 102.92 532.19 100.67C531.327 98.3977 530.077 96.6364 528.44 95.3864C526.804 94.1364 524.815 93.5114 522.474 93.5114C520.088 93.5114 518.077 94.1591 516.44 95.4545C514.804 96.7273 513.565 98.5 512.724 100.773C511.884 103.045 511.463 105.67 511.463 108.648C511.463 111.67 511.884 114.284 512.724 116.489C513.588 118.67 514.827 120.364 516.44 121.568C518.077 122.75 520.088 123.341 522.474 123.341ZM559.327 135V82.6364H573.849V135H559.327ZM566.622 75.8864C564.463 75.8864 562.611 75.1705 561.065 73.7386C559.543 72.2841 558.781 70.5455 558.781 68.5227C558.781 66.5227 559.543 64.8068 561.065 63.375C562.611 61.9205 564.463 61.1932 566.622 61.1932C568.781 61.1932 570.622 61.9205 572.145 63.375C573.69 64.8068 574.463 66.5227 574.463 68.5227C574.463 70.5455 573.69 72.2841 572.145 73.7386C570.622 75.1705 568.781 75.8864 566.622 75.8864ZM609.347 136.023C603.96 136.023 599.324 134.932 595.438 132.75C591.574 130.545 588.597 127.432 586.506 123.409C584.415 119.364 583.369 114.58 583.369 109.057C583.369 103.67 584.415 98.9432 586.506 94.875C588.597 90.8068 591.54 87.6364 595.335 85.3636C599.153 83.0909 603.631 81.9545 608.767 81.9545C612.222 81.9545 615.438 82.5114 618.415 83.625C621.415 84.7159 624.028 86.3636 626.256 88.5682C628.506 90.7727 630.256 93.5455 631.506 96.8864C632.756 100.205 633.381 104.091 633.381 108.545V112.534H589.165V103.534H619.71C619.71 101.443 619.256 99.5909 618.347 97.9773C617.438 96.3636 616.176 95.1023 614.562 94.1932C612.972 93.2614 611.119 92.7955 609.006 92.7955C606.801 92.7955 604.847 93.3068 603.142 94.3295C601.46 95.3295 600.142 96.6818 599.188 98.3864C598.233 100.068 597.744 101.943 597.722 104.011V112.568C597.722 115.159 598.199 117.398 599.153 119.284C600.131 121.17 601.506 122.625 603.278 123.648C605.051 124.67 607.153 125.182 609.585 125.182C611.199 125.182 612.676 124.955 614.017 124.5C615.358 124.045 616.506 123.364 617.46 122.455C618.415 121.545 619.142 120.432 619.642 119.114L633.074 120C632.392 123.227 630.994 126.045 628.881 128.455C626.79 130.841 624.085 132.705 620.767 134.045C617.472 135.364 613.665 136.023 609.347 136.023ZM686.426 97.5682L673.131 98.3864C672.903 97.25 672.415 96.2273 671.665 95.3182C670.915 94.3864 669.926 93.6477 668.699 93.1023C667.494 92.5341 666.051 92.25 664.369 92.25C662.119 92.25 660.222 92.7273 658.676 93.6818C657.131 94.6136 656.358 95.8636 656.358 97.4318C656.358 98.6818 656.858 99.7386 657.858 100.602C658.858 101.466 660.574 102.159 663.006 102.682L672.483 104.591C677.574 105.636 681.369 107.318 683.869 109.636C686.369 111.955 687.619 115 687.619 118.773C687.619 122.205 686.608 125.216 684.585 127.807C682.585 130.398 679.835 132.42 676.335 133.875C672.858 135.307 668.847 136.023 664.301 136.023C657.369 136.023 651.847 134.58 647.733 131.693C643.642 128.784 641.244 124.83 640.54 119.83L654.824 119.08C655.256 121.193 656.301 122.807 657.96 123.92C659.619 125.011 661.744 125.557 664.335 125.557C666.881 125.557 668.926 125.068 670.472 124.091C672.04 123.091 672.835 121.807 672.858 120.239C672.835 118.92 672.278 117.841 671.188 117C670.097 116.136 668.415 115.477 666.142 115.023L657.074 113.216C651.96 112.193 648.153 110.42 645.653 107.898C643.176 105.375 641.938 102.159 641.938 98.25C641.938 94.8864 642.847 91.9886 644.665 89.5568C646.506 87.125 649.085 85.25 652.403 83.9318C655.744 82.6136 659.653 81.9545 664.131 81.9545C670.744 81.9545 675.949 83.3523 679.744 86.1477C683.563 88.9432 685.79 92.75 686.426 97.5682Z" fill="white"/>
<path d="M61.8182 185V161.727H69.9545C71.5758 161.727 72.9129 162.008 73.9659 162.568C75.0189 163.121 75.803 163.867 76.3182 164.807C76.8333 165.739 77.0909 166.773 77.0909 167.909C77.0909 168.909 76.9129 169.735 76.5568 170.386C76.2083 171.038 75.7462 171.553 75.1705 171.932C74.6023 172.311 73.9848 172.591 73.3182 172.773V173C74.0303 173.045 74.7462 173.295 75.4659 173.75C76.1856 174.205 76.7879 174.856 77.2727 175.705C77.7576 176.553 78 177.591 78 178.818C78 179.985 77.7348 181.034 77.2045 181.966C76.6742 182.898 75.8371 183.636 74.6932 184.182C73.5492 184.727 72.0606 185 70.2273 185H61.8182ZM64.6364 182.5H70.2273C72.0682 182.5 73.375 182.144 74.1477 181.432C74.928 180.712 75.3182 179.841 75.3182 178.818C75.3182 178.03 75.1174 177.303 74.7159 176.636C74.3144 175.962 73.7424 175.424 73 175.023C72.2576 174.614 71.3788 174.409 70.3636 174.409H64.6364V182.5ZM64.6364 171.955H69.8636C70.7121 171.955 71.4773 171.788 72.1591 171.455C72.8485 171.121 73.3939 170.652 73.7955 170.045C74.2045 169.439 74.4091 168.727 74.4091 167.909C74.4091 166.886 74.053 166.019 73.3409 165.307C72.6288 164.587 71.5 164.227 69.9545 164.227H64.6364V171.955ZM83.5852 185H80.6307L89.1761 161.727H92.0852L100.631 185H97.6761L90.7216 165.409H90.5398L83.5852 185ZM84.6761 175.909H96.5852V178.409H84.6761V175.909ZM121.889 169H119.071C118.904 168.189 118.613 167.477 118.196 166.864C117.787 166.25 117.287 165.735 116.696 165.318C116.113 164.894 115.465 164.576 114.753 164.364C114.041 164.152 113.298 164.045 112.526 164.045C111.116 164.045 109.84 164.402 108.696 165.114C107.56 165.826 106.654 166.875 105.98 168.261C105.313 169.648 104.98 171.348 104.98 173.364C104.98 175.379 105.313 177.08 105.98 178.466C106.654 179.852 107.56 180.902 108.696 181.614C109.84 182.326 111.116 182.682 112.526 182.682C113.298 182.682 114.041 182.576 114.753 182.364C115.465 182.152 116.113 181.837 116.696 181.42C117.287 180.996 117.787 180.477 118.196 179.864C118.613 179.242 118.904 178.53 119.071 177.727H121.889C121.677 178.917 121.291 179.981 120.73 180.92C120.17 181.86 119.473 182.659 118.639 183.318C117.806 183.97 116.87 184.466 115.832 184.807C114.802 185.148 113.7 185.318 112.526 185.318C110.541 185.318 108.776 184.833 107.23 183.864C105.685 182.894 104.469 181.515 103.582 179.727C102.696 177.939 102.253 175.818 102.253 173.364C102.253 170.909 102.696 168.788 103.582 167C104.469 165.212 105.685 163.833 107.23 162.864C108.776 161.894 110.541 161.409 112.526 161.409C113.7 161.409 114.802 161.58 115.832 161.92C116.87 162.261 117.806 162.761 118.639 163.42C119.473 164.072 120.17 164.867 120.73 165.807C121.291 166.739 121.677 167.803 121.889 169ZM126.443 185V161.727H129.261V173.273H129.534L139.989 161.727H143.67L133.898 172.227L143.67 185H140.261L132.17 174.182L129.261 177.455V185H126.443ZM147.318 185V161.727H161.364V164.227H150.136V172.091H160.636V174.591H150.136V182.5H161.545V185H147.318ZM184.898 161.727V185H182.17L169.489 166.727H169.261V185H166.443V161.727H169.17L181.898 180.045H182.125V161.727H184.898ZM197.719 185H190.537V161.727H198.037C200.295 161.727 202.226 162.193 203.832 163.125C205.438 164.049 206.67 165.379 207.526 167.114C208.382 168.841 208.81 170.909 208.81 173.318C208.81 175.742 208.378 177.83 207.514 179.58C206.651 181.322 205.393 182.663 203.741 183.602C202.09 184.534 200.082 185 197.719 185ZM193.355 182.5H197.537C199.461 182.5 201.056 182.129 202.321 181.386C203.586 180.644 204.529 179.587 205.151 178.216C205.772 176.845 206.082 175.212 206.082 173.318C206.082 171.439 205.776 169.822 205.162 168.466C204.548 167.102 203.632 166.057 202.412 165.33C201.192 164.595 199.673 164.227 197.855 164.227H193.355V182.5ZM228.991 180.909V165.909H231.537V180.909H228.991ZM222.764 174.682V172.136H237.764V174.682H222.764ZM252.631 185V161.727H266.585V164.227H255.449V172.091H265.54V174.591H255.449V185H252.631ZM271.412 185V161.727H279.276C281.094 161.727 282.586 162.038 283.753 162.659C284.92 163.273 285.783 164.117 286.344 165.193C286.904 166.269 287.185 167.492 287.185 168.864C287.185 170.235 286.904 171.451 286.344 172.511C285.783 173.572 284.923 174.405 283.764 175.011C282.605 175.61 281.124 175.909 279.321 175.909H272.957V173.364H279.23C280.473 173.364 281.473 173.182 282.23 172.818C282.995 172.455 283.548 171.939 283.889 171.273C284.238 170.598 284.412 169.795 284.412 168.864C284.412 167.932 284.238 167.117 283.889 166.42C283.541 165.723 282.984 165.186 282.219 164.807C281.454 164.42 280.442 164.227 279.185 164.227H274.23V185H271.412ZM282.366 174.545L288.094 185H284.821L279.185 174.545H282.366ZM311.517 173.364C311.517 175.818 311.074 177.939 310.188 179.727C309.301 181.515 308.085 182.894 306.54 183.864C304.994 184.833 303.229 185.318 301.244 185.318C299.259 185.318 297.494 184.833 295.949 183.864C294.403 182.894 293.188 181.515 292.301 179.727C291.415 177.939 290.972 175.818 290.972 173.364C290.972 170.909 291.415 168.788 292.301 167C293.188 165.212 294.403 163.833 295.949 162.864C297.494 161.894 299.259 161.409 301.244 161.409C303.229 161.409 304.994 161.894 306.54 162.864C308.085 163.833 309.301 165.212 310.188 167C311.074 168.788 311.517 170.909 311.517 173.364ZM308.79 173.364C308.79 171.348 308.453 169.648 307.778 168.261C307.112 166.875 306.206 165.826 305.062 165.114C303.926 164.402 302.653 164.045 301.244 164.045C299.835 164.045 298.559 164.402 297.415 165.114C296.278 165.826 295.373 166.875 294.699 168.261C294.032 169.648 293.699 171.348 293.699 173.364C293.699 175.379 294.032 177.08 294.699 178.466C295.373 179.852 296.278 180.902 297.415 181.614C298.559 182.326 299.835 182.682 301.244 182.682C302.653 182.682 303.926 182.326 305.062 181.614C306.206 180.902 307.112 179.852 307.778 178.466C308.453 177.08 308.79 175.379 308.79 173.364ZM334.71 161.727V185H331.983L319.301 166.727H319.074V185H316.256V161.727H318.983L331.71 180.045H331.938V161.727H334.71ZM339.077 164.227V161.727H356.531V164.227H349.213V185H346.395V164.227H339.077ZM360.881 185V161.727H374.926V164.227H363.699V172.091H374.199V174.591H363.699V182.5H375.108V185H360.881ZM398.46 161.727V185H395.733L383.051 166.727H382.824V185H380.006V161.727H382.733L395.46 180.045H395.688V161.727H398.46ZM411.281 185H404.099V161.727H411.599C413.857 161.727 415.789 162.193 417.395 163.125C419.001 164.049 420.232 165.379 421.088 167.114C421.944 168.841 422.372 170.909 422.372 173.318C422.372 175.742 421.94 177.83 421.077 179.58C420.213 181.322 418.955 182.663 417.304 183.602C415.652 184.534 413.645 185 411.281 185ZM406.918 182.5H411.099C413.024 182.5 414.618 182.129 415.884 181.386C417.149 180.644 418.092 179.587 418.713 178.216C419.334 176.845 419.645 175.212 419.645 173.318C419.645 171.439 419.338 169.822 418.724 168.466C418.111 167.102 417.194 166.057 415.974 165.33C414.755 164.595 413.236 164.227 411.418 164.227H406.918V182.5Z" fill="white"/>
</g>
<rect x="1" y="1" width="1078" height="245" rx="31" stroke="#CFCFE7" stroke-opacity="0.1" stroke-width="2"/>
<defs>
<radialGradient id="paint0_radial_730_309" cx="0" cy="0" r="1" gradientUnits="userSpaceOnUse" gradientTransform="translate(406.5 -52) rotate(90) scale(281 347.5)">
<stop stop-color="#AF71FF"/>
<stop offset="1" stop-color="#4C3F78" stop-opacity="0"/>
</radialGradient>
<radialGradient id="paint1_radial_730_309" cx="0" cy="0" r="1" gradientUnits="userSpaceOnUse" gradientTransform="translate(45.8513 410.766) rotate(90) scale(490.769 300.101)">
<stop stop-color="#AF71FF"/>
<stop offset="1" stop-color="#4C3F78" stop-opacity="0"/>
</radialGradient>
<radialGradient id="paint2_radial_730_309" cx="0" cy="0" r="1" gradientUnits="userSpaceOnUse" gradientTransform="translate(936.084 416.988) rotate(90) scale(531.613 501.394)">
<stop stop-color="#AF71FF"/>
<stop offset="1" stop-color="#4C3F78" stop-opacity="0"/>
</radialGradient>
<clipPath id="clip0_730_309">
<rect width="1080" height="247" rx="32" fill="white"/>
</clipPath>
<clipPath id="clip1_730_309">
<rect width="132" height="50" fill="white" transform="translate(882 135)"/>
</clipPath>
</defs>
</svg>
