<svg width="1080" height="145" viewBox="0 0 1080 145" fill="none" xmlns="http://www.w3.org/2000/svg">
<g filter="url(#filter0_b_766_51)">
<rect width="1080" height="145" rx="32" fill="#CFCFE7" fill-opacity="0.1"/>
<rect x="1" y="1" width="1078" height="143" rx="31" stroke="#CFCFE7" stroke-opacity="0.1" stroke-width="2"/>
<g clip-path="url(#clip0_766_51)">
<rect x="9" y="8.5" width="342" height="128" rx="23" fill="#1F1F24"/>
<g opacity="0.6">
<ellipse opacity="0.7" cx="415.5" cy="-43.5" rx="347.5" ry="281" fill="url(#paint0_radial_766_51)"/>
<ellipse opacity="0.7" cx="54.8513" cy="419.266" rx="300.101" ry="490.769" transform="rotate(29.0906 54.8513 419.266)" fill="url(#paint1_radial_766_51)"/>
</g>
<path d="M63.4545 57.0227L59.0227 57.2955C58.947 56.9167 58.7841 56.5758 58.5341 56.2727C58.2841 55.9621 57.9545 55.7159 57.5455 55.5341C57.1439 55.3447 56.6629 55.25 56.1023 55.25C55.3523 55.25 54.7197 55.4091 54.2045 55.7273C53.6894 56.0379 53.4318 56.4545 53.4318 56.9773C53.4318 57.3939 53.5985 57.7462 53.9318 58.0341C54.2652 58.322 54.8371 58.553 55.6477 58.7273L58.8068 59.3636C60.5038 59.7121 61.7689 60.2727 62.6023 61.0455C63.4356 61.8182 63.8523 62.8333 63.8523 64.0909C63.8523 65.2348 63.5152 66.2386 62.8409 67.1023C62.1742 67.9659 61.2576 68.6402 60.0909 69.125C58.9318 69.6023 57.5947 69.8409 56.0795 69.8409C53.7689 69.8409 51.928 69.3598 50.5568 68.3977C49.1932 67.428 48.3939 66.1098 48.1591 64.4432L52.9205 64.1932C53.0644 64.8977 53.4129 65.4356 53.9659 65.8068C54.5189 66.1705 55.2273 66.3523 56.0909 66.3523C56.9394 66.3523 57.6212 66.1894 58.1364 65.8636C58.6591 65.5303 58.9242 65.1023 58.9318 64.5795C58.9242 64.1402 58.7386 63.7803 58.375 63.5C58.0114 63.2121 57.4508 62.9924 56.6932 62.8409L53.6705 62.2386C51.9659 61.8977 50.697 61.3068 49.8636 60.4659C49.0379 59.625 48.625 58.553 48.625 57.25C48.625 56.1288 48.928 55.1629 49.5341 54.3523C50.1477 53.5417 51.0076 52.9167 52.1136 52.4773C53.2273 52.0379 54.5303 51.8182 56.0227 51.8182C58.2273 51.8182 59.9621 52.2841 61.2273 53.2159C62.5 54.1477 63.2424 55.4167 63.4545 57.0227ZM74.8551 69.8409C73.0597 69.8409 71.5142 69.4773 70.2188 68.75C68.9309 68.0152 67.9384 66.9773 67.2415 65.6364C66.5445 64.2879 66.196 62.6932 66.196 60.8523C66.196 59.0568 66.5445 57.4811 67.2415 56.125C67.9384 54.7689 68.9195 53.7121 70.1847 52.9545C71.4574 52.197 72.9498 51.8182 74.6619 51.8182C75.8134 51.8182 76.8854 52.0038 77.8778 52.375C78.8778 52.7386 79.7491 53.2879 80.4915 54.0227C81.2415 54.7576 81.8248 55.6818 82.2415 56.7955C82.6581 57.9015 82.8665 59.197 82.8665 60.6818V62.0114H68.1278V59.0114H78.3097C78.3097 58.3144 78.1581 57.697 77.8551 57.1591C77.5521 56.6212 77.1316 56.2008 76.5938 55.8977C76.0634 55.5871 75.446 55.4318 74.7415 55.4318C74.0066 55.4318 73.3551 55.6023 72.7869 55.9432C72.2263 56.2765 71.7869 56.7273 71.4688 57.2955C71.1506 57.8561 70.9877 58.4811 70.9801 59.1705V62.0227C70.9801 62.8864 71.1392 63.6326 71.4574 64.2614C71.7831 64.8902 72.2415 65.375 72.8324 65.7159C73.4233 66.0568 74.1241 66.2273 74.9347 66.2273C75.4725 66.2273 75.965 66.1515 76.4119 66C76.8589 65.8485 77.2415 65.6212 77.5597 65.3182C77.8778 65.0152 78.1203 64.6439 78.2869 64.2045L82.7642 64.5C82.5369 65.5758 82.071 66.5152 81.3665 67.3182C80.6695 68.1136 79.768 68.7348 78.6619 69.1818C77.5634 69.6212 76.2945 69.8409 74.8551 69.8409ZM90.8665 59.4091V69.5H86.0256V52.0455H90.6392V55.125H90.8438C91.2301 54.1098 91.8778 53.3068 92.7869 52.7159C93.696 52.1174 94.7983 51.8182 96.0938 51.8182C97.3059 51.8182 98.3627 52.0833 99.2642 52.6136C100.166 53.1439 100.866 53.9015 101.366 54.8864C101.866 55.8636 102.116 57.0303 102.116 58.3864V69.5H97.2756V59.25C97.2831 58.1818 97.0104 57.3485 96.4574 56.75C95.9044 56.1439 95.143 55.8409 94.1733 55.8409C93.5218 55.8409 92.946 55.9811 92.446 56.2614C91.9536 56.5417 91.5672 56.9508 91.2869 57.4886C91.0142 58.0189 90.8741 58.6591 90.8665 59.4091ZM112.364 69.7841C111.038 69.7841 109.837 69.4432 108.761 68.7614C107.693 68.072 106.845 67.0606 106.216 65.7273C105.595 64.3864 105.284 62.7424 105.284 60.7955C105.284 58.7955 105.606 57.1326 106.25 55.8068C106.894 54.4735 107.75 53.4773 108.818 52.8182C109.894 52.1515 111.072 51.8182 112.352 51.8182C113.33 51.8182 114.144 51.9848 114.795 52.3182C115.455 52.6439 115.985 53.053 116.386 53.5455C116.795 54.0303 117.106 54.5076 117.318 54.9773H117.466V46.2273H122.295V69.5H117.523V66.7045H117.318C117.091 67.1894 116.769 67.6705 116.352 68.1477C115.943 68.6174 115.409 69.0076 114.75 69.3182C114.098 69.6288 113.303 69.7841 112.364 69.7841ZM113.898 65.9318C114.678 65.9318 115.337 65.7197 115.875 65.2955C116.42 64.8636 116.837 64.2614 117.125 63.4886C117.42 62.7159 117.568 61.8106 117.568 60.7727C117.568 59.7348 117.424 58.8333 117.136 58.0682C116.848 57.303 116.432 56.7121 115.886 56.2955C115.341 55.8788 114.678 55.6705 113.898 55.6705C113.102 55.6705 112.432 55.8864 111.886 56.3182C111.341 56.75 110.928 57.3485 110.648 58.1136C110.367 58.8788 110.227 59.7652 110.227 60.7727C110.227 61.7879 110.367 62.6856 110.648 63.4659C110.936 64.2386 111.348 64.8447 111.886 65.2841C112.432 65.7159 113.102 65.9318 113.898 65.9318ZM140.699 69.5V73.1705H125.415V69.5H140.699ZM144.088 69.5V52.0455H148.702V55.125H148.906C149.27 54.1023 149.876 53.2955 150.724 52.7045C151.573 52.1136 152.588 51.8182 153.77 51.8182C154.967 51.8182 155.986 52.1174 156.827 52.7159C157.668 53.3068 158.228 54.1098 158.509 55.125H158.69C159.046 54.125 159.69 53.3258 160.622 52.7273C161.562 52.1212 162.671 51.8182 163.952 51.8182C165.58 51.8182 166.902 52.3371 167.918 53.375C168.94 54.4053 169.452 55.8674 169.452 57.7614V69.5H164.622V58.7159C164.622 57.7462 164.365 57.0189 163.849 56.5341C163.334 56.0492 162.69 55.8068 161.918 55.8068C161.039 55.8068 160.353 56.0871 159.861 56.6477C159.368 57.2008 159.122 57.9318 159.122 58.8409V69.5H154.429V58.6136C154.429 57.7576 154.183 57.0758 153.69 56.5682C153.205 56.0606 152.565 55.8068 151.77 55.8068C151.232 55.8068 150.747 55.9432 150.315 56.2159C149.891 56.4811 149.554 56.8561 149.304 57.3409C149.054 57.8182 148.929 58.3788 148.929 59.0227V69.5H144.088ZM181.23 69.8409C179.435 69.8409 177.889 69.4773 176.594 68.75C175.306 68.0152 174.313 66.9773 173.616 65.6364C172.92 64.2879 172.571 62.6932 172.571 60.8523C172.571 59.0568 172.92 57.4811 173.616 56.125C174.313 54.7689 175.295 53.7121 176.56 52.9545C177.832 52.197 179.325 51.8182 181.037 51.8182C182.188 51.8182 183.26 52.0038 184.253 52.375C185.253 52.7386 186.124 53.2879 186.866 54.0227C187.616 54.7576 188.2 55.6818 188.616 56.7955C189.033 57.9015 189.241 59.197 189.241 60.6818V62.0114H174.503V59.0114H184.685C184.685 58.3144 184.533 57.697 184.23 57.1591C183.927 56.6212 183.507 56.2008 182.969 55.8977C182.438 55.5871 181.821 55.4318 181.116 55.4318C180.382 55.4318 179.73 55.6023 179.162 55.9432C178.601 56.2765 178.162 56.7273 177.844 57.2955C177.526 57.8561 177.363 58.4811 177.355 59.1705V62.0227C177.355 62.8864 177.514 63.6326 177.832 64.2614C178.158 64.8902 178.616 65.375 179.207 65.7159C179.798 66.0568 180.499 66.2273 181.31 66.2273C181.848 66.2273 182.34 66.1515 182.787 66C183.234 65.8485 183.616 65.6212 183.935 65.3182C184.253 65.0152 184.495 64.6439 184.662 64.2045L189.139 64.5C188.912 65.5758 188.446 66.5152 187.741 67.3182C187.045 68.1136 186.143 68.7348 185.037 69.1818C183.938 69.6212 182.67 69.8409 181.23 69.8409ZM206.923 57.0227L202.491 57.2955C202.416 56.9167 202.253 56.5758 202.003 56.2727C201.753 55.9621 201.423 55.7159 201.014 55.5341C200.613 55.3447 200.132 55.25 199.571 55.25C198.821 55.25 198.188 55.4091 197.673 55.7273C197.158 56.0379 196.901 56.4545 196.901 56.9773C196.901 57.3939 197.067 57.7462 197.401 58.0341C197.734 58.322 198.306 58.553 199.116 58.7273L202.276 59.3636C203.973 59.7121 205.238 60.2727 206.071 61.0455C206.904 61.8182 207.321 62.8333 207.321 64.0909C207.321 65.2348 206.984 66.2386 206.31 67.1023C205.643 67.9659 204.726 68.6402 203.56 69.125C202.401 69.6023 201.063 69.8409 199.548 69.8409C197.238 69.8409 195.397 69.3598 194.026 68.3977C192.662 67.428 191.863 66.1098 191.628 64.4432L196.389 64.1932C196.533 64.8977 196.882 65.4356 197.435 65.8068C197.988 66.1705 198.696 66.3523 199.56 66.3523C200.408 66.3523 201.09 66.1894 201.605 65.8636C202.128 65.5303 202.393 65.1023 202.401 64.5795C202.393 64.1402 202.207 63.7803 201.844 63.5C201.48 63.2121 200.92 62.9924 200.162 62.8409L197.139 62.2386C195.435 61.8977 194.166 61.3068 193.332 60.4659C192.507 59.625 192.094 58.553 192.094 57.25C192.094 56.1288 192.397 55.1629 193.003 54.3523C193.616 53.5417 194.476 52.9167 195.582 52.4773C196.696 52.0379 197.999 51.8182 199.491 51.8182C201.696 51.8182 203.431 52.2841 204.696 53.2159C205.969 54.1477 206.711 55.4167 206.923 57.0227ZM224.892 57.0227L220.46 57.2955C220.384 56.9167 220.222 56.5758 219.972 56.2727C219.722 55.9621 219.392 55.7159 218.983 55.5341C218.581 55.3447 218.1 55.25 217.54 55.25C216.79 55.25 216.157 55.4091 215.642 55.7273C215.127 56.0379 214.869 56.4545 214.869 56.9773C214.869 57.3939 215.036 57.7462 215.369 58.0341C215.703 58.322 216.275 58.553 217.085 58.7273L220.244 59.3636C221.941 59.7121 223.206 60.2727 224.04 61.0455C224.873 61.8182 225.29 62.8333 225.29 64.0909C225.29 65.2348 224.953 66.2386 224.278 67.1023C223.612 67.9659 222.695 68.6402 221.528 69.125C220.369 69.6023 219.032 69.8409 217.517 69.8409C215.206 69.8409 213.366 69.3598 211.994 68.3977C210.631 67.428 209.831 66.1098 209.597 64.4432L214.358 64.1932C214.502 64.8977 214.85 65.4356 215.403 65.8068C215.956 66.1705 216.665 66.3523 217.528 66.3523C218.377 66.3523 219.059 66.1894 219.574 65.8636C220.097 65.5303 220.362 65.1023 220.369 64.5795C220.362 64.1402 220.176 63.7803 219.812 63.5C219.449 63.2121 218.888 62.9924 218.131 62.8409L215.108 62.2386C213.403 61.8977 212.134 61.3068 211.301 60.4659C210.475 59.625 210.062 58.553 210.062 57.25C210.062 56.1288 210.366 55.1629 210.972 54.3523C211.585 53.5417 212.445 52.9167 213.551 52.4773C214.665 52.0379 215.968 51.8182 217.46 51.8182C219.665 51.8182 221.4 52.2841 222.665 53.2159C223.938 54.1477 224.68 55.4167 224.892 57.0227ZM233.315 69.8295C232.202 69.8295 231.209 69.6364 230.338 69.25C229.467 68.8561 228.777 68.2765 228.27 67.5114C227.77 66.7386 227.52 65.7765 227.52 64.625C227.52 63.6553 227.698 62.8409 228.054 62.1818C228.41 61.5227 228.895 60.9924 229.509 60.5909C230.122 60.1894 230.819 59.8864 231.599 59.6818C232.387 59.4773 233.213 59.3333 234.077 59.25C235.092 59.1439 235.91 59.0455 236.531 58.9545C237.152 58.8561 237.603 58.7121 237.884 58.5227C238.164 58.3333 238.304 58.053 238.304 57.6818V57.6136C238.304 56.8939 238.077 56.3371 237.622 55.9432C237.175 55.5492 236.539 55.3523 235.713 55.3523C234.842 55.3523 234.149 55.5455 233.634 55.9318C233.118 56.3106 232.777 56.7879 232.611 57.3636L228.134 57C228.361 55.9394 228.808 55.0227 229.474 54.25C230.141 53.4697 231.001 52.8712 232.054 52.4545C233.115 52.0303 234.342 51.8182 235.736 51.8182C236.705 51.8182 237.634 51.9318 238.52 52.1591C239.414 52.3864 240.205 52.7386 240.895 53.2159C241.592 53.6932 242.141 54.3068 242.543 55.0568C242.944 55.7992 243.145 56.6894 243.145 57.7273V69.5H238.554V67.0795H238.418C238.137 67.625 237.762 68.1061 237.293 68.5227C236.823 68.9318 236.259 69.2538 235.599 69.4886C234.94 69.7159 234.179 69.8295 233.315 69.8295ZM234.702 66.4886C235.414 66.4886 236.043 66.3485 236.588 66.0682C237.134 65.7803 237.562 65.3939 237.872 64.9091C238.183 64.4242 238.338 63.875 238.338 63.2614V61.4091C238.187 61.5076 237.978 61.5985 237.713 61.6818C237.455 61.7576 237.164 61.8295 236.838 61.8977C236.512 61.9583 236.187 62.0152 235.861 62.0682C235.535 62.1136 235.24 62.1553 234.974 62.1932C234.406 62.2765 233.91 62.4091 233.486 62.5909C233.062 62.7727 232.732 63.0189 232.497 63.3295C232.262 63.6326 232.145 64.0114 232.145 64.4659C232.145 65.125 232.384 65.6288 232.861 65.9773C233.346 66.3182 233.959 66.4886 234.702 66.4886ZM254.764 76.4091C253.196 76.4091 251.851 76.1932 250.73 75.7614C249.616 75.3371 248.73 74.7576 248.071 74.0227C247.412 73.2879 246.984 72.4621 246.787 71.5455L251.264 70.9432C251.401 71.2917 251.616 71.6174 251.912 71.9205C252.207 72.2235 252.598 72.4659 253.082 72.6477C253.575 72.8371 254.173 72.9318 254.878 72.9318C255.931 72.9318 256.798 72.6742 257.48 72.1591C258.17 71.6515 258.514 70.7992 258.514 69.6023V66.4091H258.31C258.098 66.8939 257.779 67.3523 257.355 67.7841C256.931 68.2159 256.385 68.5682 255.719 68.8409C255.052 69.1136 254.257 69.25 253.332 69.25C252.022 69.25 250.829 68.947 249.753 68.3409C248.685 67.7273 247.832 66.7917 247.196 65.5341C246.567 64.2689 246.253 62.6705 246.253 60.7386C246.253 58.7614 246.575 57.1098 247.219 55.7841C247.863 54.4583 248.719 53.4659 249.787 52.8068C250.863 52.1477 252.041 51.8182 253.321 51.8182C254.298 51.8182 255.116 51.9848 255.776 52.3182C256.435 52.6439 256.965 53.053 257.366 53.5455C257.776 54.0303 258.09 54.5076 258.31 54.9773H258.491V52.0455H263.298V69.6705C263.298 71.1553 262.935 72.3977 262.207 73.3977C261.48 74.3977 260.473 75.1477 259.185 75.6477C257.904 76.1553 256.431 76.4091 254.764 76.4091ZM254.866 65.6136C255.647 65.6136 256.306 65.4205 256.844 65.0341C257.389 64.6402 257.806 64.0795 258.094 63.3523C258.389 62.6174 258.537 61.7386 258.537 60.7159C258.537 59.6932 258.393 58.8068 258.105 58.0568C257.817 57.2992 257.401 56.7121 256.855 56.2955C256.31 55.8788 255.647 55.6705 254.866 55.6705C254.071 55.6705 253.401 55.8864 252.855 56.3182C252.31 56.7424 251.897 57.3333 251.616 58.0909C251.336 58.8485 251.196 59.7235 251.196 60.7159C251.196 61.7235 251.336 62.5947 251.616 63.3295C251.904 64.0568 252.317 64.6212 252.855 65.0227C253.401 65.4167 254.071 65.6136 254.866 65.6136ZM275.105 69.8409C273.31 69.8409 271.764 69.4773 270.469 68.75C269.181 68.0152 268.188 66.9773 267.491 65.6364C266.795 64.2879 266.446 62.6932 266.446 60.8523C266.446 59.0568 266.795 57.4811 267.491 56.125C268.188 54.7689 269.17 53.7121 270.435 52.9545C271.707 52.197 273.2 51.8182 274.912 51.8182C276.063 51.8182 277.135 52.0038 278.128 52.375C279.128 52.7386 279.999 53.2879 280.741 54.0227C281.491 54.7576 282.075 55.6818 282.491 56.7955C282.908 57.9015 283.116 59.197 283.116 60.6818V62.0114H268.378V59.0114H278.56C278.56 58.3144 278.408 57.697 278.105 57.1591C277.802 56.6212 277.382 56.2008 276.844 55.8977C276.313 55.5871 275.696 55.4318 274.991 55.4318C274.257 55.4318 273.605 55.6023 273.037 55.9432C272.476 56.2765 272.037 56.7273 271.719 57.2955C271.401 57.8561 271.238 58.4811 271.23 59.1705V62.0227C271.23 62.8864 271.389 63.6326 271.707 64.2614C272.033 64.8902 272.491 65.375 273.082 65.7159C273.673 66.0568 274.374 66.2273 275.185 66.2273C275.723 66.2273 276.215 66.1515 276.662 66C277.109 65.8485 277.491 65.6212 277.81 65.3182C278.128 65.0152 278.37 64.6439 278.537 64.2045L283.014 64.5C282.787 65.5758 282.321 66.5152 281.616 67.3182C280.92 68.1136 280.018 68.7348 278.912 69.1818C277.813 69.6212 276.545 69.8409 275.105 69.8409ZM287.344 60.1705C287.344 57.3523 287.719 54.7576 288.469 52.3864C289.226 50.0152 290.382 47.8182 291.935 45.7955H296.56C295.969 46.5455 295.42 47.4621 294.912 48.5455C294.404 49.6212 293.961 50.803 293.582 52.0909C293.204 53.3788 292.908 54.7121 292.696 56.0909C292.484 57.4621 292.378 58.822 292.378 60.1705C292.378 61.9659 292.56 63.7803 292.923 65.6136C293.295 67.4394 293.795 69.1364 294.423 70.7045C295.06 72.2727 295.772 73.5568 296.56 74.5568H291.935C290.382 72.5341 289.226 70.3371 288.469 67.9659C287.719 65.5947 287.344 62.9962 287.344 60.1705ZM307.528 60.1705C307.528 62.9962 307.15 65.5947 306.392 67.9659C305.642 70.3371 304.491 72.5341 302.938 74.5568H298.312C298.903 73.8068 299.453 72.8902 299.96 71.8068C300.468 70.7235 300.911 69.5417 301.29 68.2614C301.669 66.9735 301.964 65.6402 302.176 64.2614C302.388 62.8826 302.494 61.5189 302.494 60.1705C302.494 58.375 302.309 56.5644 301.938 54.7386C301.574 52.9053 301.074 51.2083 300.438 49.6477C299.809 48.0795 299.1 46.7955 298.312 45.7955H302.938C304.491 47.8182 305.642 50.0152 306.392 52.3864C307.15 54.7576 307.528 57.3523 307.528 60.1705Z" fill="white"/>
<path d="M49.1136 100.5V83.0455H59.5795V84.9205H51.2273V90.8182H58.7955V92.6932H51.2273V100.5H49.1136ZM63.1996 100.5V83.0455H69.0973C70.4609 83.0455 71.5803 83.2784 72.4553 83.7443C73.3303 84.2045 73.978 84.8381 74.3984 85.6449C74.8189 86.4517 75.0291 87.3693 75.0291 88.3977C75.0291 89.4261 74.8189 90.3381 74.3984 91.1335C73.978 91.929 73.3331 92.554 72.4638 93.0085C71.5945 93.4574 70.4837 93.6818 69.1314 93.6818H64.3587V91.7727H69.0632C69.995 91.7727 70.745 91.6364 71.3132 91.3636C71.8871 91.0909 72.3018 90.7045 72.5575 90.2045C72.8189 89.6989 72.9496 89.0966 72.9496 88.3977C72.9496 87.6989 72.8189 87.0881 72.5575 86.5653C72.2962 86.0426 71.8786 85.6392 71.3047 85.3551C70.7308 85.0653 69.9723 84.9205 69.0291 84.9205H65.3132V100.5H63.1996ZM71.4155 92.6591L75.7109 100.5H73.2564L69.0291 92.6591H71.4155ZM93.2784 91.7727C93.2784 93.6136 92.946 95.2045 92.2812 96.5455C91.6165 97.8864 90.7045 98.9205 89.5455 99.6477C88.3864 100.375 87.0625 100.739 85.5739 100.739C84.0852 100.739 82.7614 100.375 81.6023 99.6477C80.4432 98.9205 79.5313 97.8864 78.8665 96.5455C78.2017 95.2045 77.8693 93.6136 77.8693 91.7727C77.8693 89.9318 78.2017 88.3409 78.8665 87C79.5313 85.6591 80.4432 84.625 81.6023 83.8977C82.7614 83.1705 84.0852 82.8068 85.5739 82.8068C87.0625 82.8068 88.3864 83.1705 89.5455 83.8977C90.7045 84.625 91.6165 85.6591 92.2812 87C92.946 88.3409 93.2784 89.9318 93.2784 91.7727ZM91.233 91.7727C91.233 90.2614 90.9801 88.9858 90.4744 87.946C89.9744 86.9062 89.2955 86.1193 88.4375 85.5852C87.5852 85.0511 86.6307 84.7841 85.5739 84.7841C84.517 84.7841 83.5597 85.0511 82.7017 85.5852C81.8494 86.1193 81.1705 86.9062 80.6648 87.946C80.1648 88.9858 79.9148 90.2614 79.9148 91.7727C79.9148 93.2841 80.1648 94.5597 80.6648 95.5994C81.1705 96.6392 81.8494 97.4261 82.7017 97.9602C83.5597 98.4943 84.517 98.7614 85.5739 98.7614C86.6307 98.7614 87.5852 98.4943 88.4375 97.9602C89.2955 97.4261 89.9744 96.6392 90.4744 95.5994C90.9801 94.5597 91.233 93.2841 91.233 91.7727ZM110.673 83.0455V100.5H108.628L99.1165 86.7955H98.946V100.5H96.8324V83.0455H98.8778L108.423 96.7841H108.594V83.0455H110.673ZM113.948 84.9205V83.0455H127.039V84.9205H121.55V100.5H119.437V84.9205H113.948ZM130.301 100.5V83.0455H140.835V84.9205H132.415V90.8182H140.29V92.6932H132.415V98.625H140.972V100.5H130.301ZM158.486 83.0455V100.5H156.44L146.929 86.7955H146.759V100.5H144.645V83.0455H146.69L156.236 96.7841H156.406V83.0455H158.486ZM168.102 100.5H162.715V83.0455H168.34C170.033 83.0455 171.482 83.3949 172.687 84.0938C173.891 84.7869 174.815 85.7841 175.457 87.0852C176.099 88.3807 176.42 89.9318 176.42 91.7386C176.42 93.5568 176.096 95.1222 175.448 96.4347C174.8 97.7415 173.857 98.7472 172.619 99.4517C171.38 100.151 169.874 100.5 168.102 100.5ZM164.829 98.625H167.965C169.408 98.625 170.604 98.3466 171.553 97.7898C172.502 97.233 173.21 96.4403 173.675 95.4119C174.141 94.3835 174.374 93.1591 174.374 91.7386C174.374 90.3295 174.144 89.1165 173.684 88.0994C173.224 87.0767 172.536 86.2926 171.621 85.7472C170.707 85.196 169.567 84.9205 168.204 84.9205H164.829V98.625Z" fill="white"/>
</g>
<rect x="10" y="9.5" width="340" height="126" rx="22" stroke="#CFCFE7" stroke-opacity="0.1" stroke-width="2"/>
<g clip-path="url(#clip1_766_51)">
<rect x="369" y="8.5" width="342" height="128" rx="23" fill="#1F1F24"/>
<g opacity="0.6">
<ellipse opacity="0.7" cx="775.5" cy="-43.5" rx="347.5" ry="281" fill="url(#paint2_radial_766_51)"/>
<ellipse opacity="0.7" cx="414.851" cy="419.266" rx="300.101" ry="490.769" transform="rotate(29.0906 414.851 419.266)" fill="url(#paint3_radial_766_51)"/>
</g>
<path d="M408.932 69.5V52.0455H413.625V55.0909H413.807C414.125 54.0076 414.659 53.1894 415.409 52.6364C416.159 52.0758 417.023 51.7955 418 51.7955C418.242 51.7955 418.504 51.8106 418.784 51.8409C419.064 51.8712 419.311 51.9129 419.523 51.9659V56.2614C419.295 56.1932 418.981 56.1326 418.58 56.0795C418.178 56.0265 417.811 56 417.477 56C416.765 56 416.129 56.1553 415.568 56.4659C415.015 56.7689 414.576 57.1932 414.25 57.7386C413.932 58.2841 413.773 58.9129 413.773 59.625V69.5H408.932ZM429.168 69.8409C427.372 69.8409 425.827 69.4773 424.531 68.75C423.243 68.0152 422.251 66.9773 421.554 65.6364C420.857 64.2879 420.509 62.6932 420.509 60.8523C420.509 59.0568 420.857 57.4811 421.554 56.125C422.251 54.7689 423.232 53.7121 424.497 52.9545C425.77 52.197 427.262 51.8182 428.974 51.8182C430.126 51.8182 431.198 52.0038 432.19 52.375C433.19 52.7386 434.062 53.2879 434.804 54.0227C435.554 54.7576 436.137 55.6818 436.554 56.7955C436.971 57.9015 437.179 59.197 437.179 60.6818V62.0114H422.44V59.0114H432.622C432.622 58.3144 432.471 57.697 432.168 57.1591C431.865 56.6212 431.444 56.2008 430.906 55.8977C430.376 55.5871 429.759 55.4318 429.054 55.4318C428.319 55.4318 427.668 55.6023 427.099 55.9432C426.539 56.2765 426.099 56.7273 425.781 57.2955C425.463 57.8561 425.3 58.4811 425.293 59.1705V62.0227C425.293 62.8864 425.452 63.6326 425.77 64.2614C426.096 64.8902 426.554 65.375 427.145 65.7159C427.736 66.0568 428.437 66.2273 429.247 66.2273C429.785 66.2273 430.277 66.1515 430.724 66C431.171 65.8485 431.554 65.6212 431.872 65.3182C432.19 65.0152 432.433 64.6439 432.599 64.2045L437.077 64.5C436.849 65.5758 436.384 66.5152 435.679 67.3182C434.982 68.1136 434.08 68.7348 432.974 69.1818C431.876 69.6212 430.607 69.8409 429.168 69.8409ZM454.861 57.0227L450.429 57.2955C450.353 56.9167 450.19 56.5758 449.94 56.2727C449.69 55.9621 449.361 55.7159 448.952 55.5341C448.55 55.3447 448.069 55.25 447.509 55.25C446.759 55.25 446.126 55.4091 445.611 55.7273C445.096 56.0379 444.838 56.4545 444.838 56.9773C444.838 57.3939 445.005 57.7462 445.338 58.0341C445.671 58.322 446.243 58.553 447.054 58.7273L450.213 59.3636C451.91 59.7121 453.175 60.2727 454.009 61.0455C454.842 61.8182 455.259 62.8333 455.259 64.0909C455.259 65.2348 454.921 66.2386 454.247 67.1023C453.58 67.9659 452.664 68.6402 451.497 69.125C450.338 69.6023 449.001 69.8409 447.486 69.8409C445.175 69.8409 443.334 69.3598 441.963 68.3977C440.599 67.428 439.8 66.1098 439.565 64.4432L444.327 64.1932C444.471 64.8977 444.819 65.4356 445.372 65.8068C445.925 66.1705 446.634 66.3523 447.497 66.3523C448.346 66.3523 449.027 66.1894 449.543 65.8636C450.065 65.5303 450.33 65.1023 450.338 64.5795C450.33 64.1402 450.145 63.7803 449.781 63.5C449.418 63.2121 448.857 62.9924 448.099 62.8409L445.077 62.2386C443.372 61.8977 442.103 61.3068 441.27 60.4659C440.444 59.625 440.031 58.553 440.031 57.25C440.031 56.1288 440.334 55.1629 440.94 54.3523C441.554 53.5417 442.414 52.9167 443.52 52.4773C444.634 52.0379 445.937 51.8182 447.429 51.8182C449.634 51.8182 451.368 52.2841 452.634 53.2159C453.906 54.1477 454.649 55.4167 454.861 57.0227ZM458.307 76.0455V52.0455H463.08V54.9773H463.295C463.508 54.5076 463.814 54.0303 464.216 53.5455C464.625 53.053 465.155 52.6439 465.807 52.3182C466.466 51.9848 467.284 51.8182 468.261 51.8182C469.534 51.8182 470.708 52.1515 471.784 52.8182C472.86 53.4773 473.72 54.4735 474.364 55.8068C475.008 57.1326 475.33 58.7955 475.33 60.7955C475.33 62.7424 475.015 64.3864 474.386 65.7273C473.765 67.0606 472.917 68.072 471.841 68.7614C470.773 69.4432 469.576 69.7841 468.25 69.7841C467.311 69.7841 466.511 69.6288 465.852 69.3182C465.201 69.0076 464.667 68.6174 464.25 68.1477C463.833 67.6705 463.515 67.1894 463.295 66.7045H463.148V76.0455H458.307ZM463.045 60.7727C463.045 61.8106 463.189 62.7159 463.477 63.4886C463.765 64.2614 464.182 64.8636 464.727 65.2955C465.273 65.7197 465.936 65.9318 466.716 65.9318C467.504 65.9318 468.17 65.7159 468.716 65.2841C469.261 64.8447 469.674 64.2386 469.955 63.4659C470.242 62.6856 470.386 61.7879 470.386 60.7727C470.386 59.7652 470.246 58.8788 469.966 58.1136C469.686 57.3485 469.273 56.75 468.727 56.3182C468.182 55.8864 467.511 55.6705 466.716 55.6705C465.928 55.6705 465.261 55.8788 464.716 56.2955C464.178 56.7121 463.765 57.303 463.477 58.0682C463.189 58.8333 463.045 59.7348 463.045 60.7727ZM486.443 69.8409C484.678 69.8409 483.152 69.4659 481.864 68.7159C480.583 67.9583 479.595 66.9053 478.898 65.5568C478.201 64.2008 477.852 62.6288 477.852 60.8409C477.852 59.0379 478.201 57.4621 478.898 56.1136C479.595 54.7576 480.583 53.7045 481.864 52.9545C483.152 52.197 484.678 51.8182 486.443 51.8182C488.208 51.8182 489.731 52.197 491.011 52.9545C492.299 53.7045 493.292 54.7576 493.989 56.1136C494.686 57.4621 495.034 59.0379 495.034 60.8409C495.034 62.6288 494.686 64.2008 493.989 65.5568C493.292 66.9053 492.299 67.9583 491.011 68.7159C489.731 69.4659 488.208 69.8409 486.443 69.8409ZM486.466 66.0909C487.269 66.0909 487.939 65.8636 488.477 65.4091C489.015 64.947 489.42 64.3182 489.693 63.5227C489.973 62.7273 490.114 61.822 490.114 60.8068C490.114 59.7917 489.973 58.8864 489.693 58.0909C489.42 57.2955 489.015 56.6667 488.477 56.2045C487.939 55.7424 487.269 55.5114 486.466 55.5114C485.655 55.5114 484.973 55.7424 484.42 56.2045C483.875 56.6667 483.462 57.2955 483.182 58.0909C482.909 58.8864 482.773 59.7917 482.773 60.8068C482.773 61.822 482.909 62.7273 483.182 63.5227C483.462 64.3182 483.875 64.947 484.42 65.4091C484.973 65.8636 485.655 66.0909 486.466 66.0909ZM503.023 59.4091V69.5H498.182V52.0455H502.795V55.125H503C503.386 54.1098 504.034 53.3068 504.943 52.7159C505.852 52.1174 506.955 51.8182 508.25 51.8182C509.462 51.8182 510.519 52.0833 511.42 52.6136C512.322 53.1439 513.023 53.9015 513.523 54.8864C514.023 55.8636 514.273 57.0303 514.273 58.3864V69.5H509.432V59.25C509.439 58.1818 509.167 57.3485 508.614 56.75C508.061 56.1439 507.299 55.8409 506.33 55.8409C505.678 55.8409 505.102 55.9811 504.602 56.2614C504.11 56.5417 503.723 56.9508 503.443 57.4886C503.17 58.0189 503.03 58.6591 503.023 59.4091ZM532.611 57.0227L528.179 57.2955C528.103 56.9167 527.94 56.5758 527.69 56.2727C527.44 55.9621 527.111 55.7159 526.702 55.5341C526.3 55.3447 525.819 55.25 525.259 55.25C524.509 55.25 523.876 55.4091 523.361 55.7273C522.846 56.0379 522.588 56.4545 522.588 56.9773C522.588 57.3939 522.755 57.7462 523.088 58.0341C523.421 58.322 523.993 58.553 524.804 58.7273L527.963 59.3636C529.66 59.7121 530.925 60.2727 531.759 61.0455C532.592 61.8182 533.009 62.8333 533.009 64.0909C533.009 65.2348 532.671 66.2386 531.997 67.1023C531.33 67.9659 530.414 68.6402 529.247 69.125C528.088 69.6023 526.751 69.8409 525.236 69.8409C522.925 69.8409 521.084 69.3598 519.713 68.3977C518.349 67.428 517.55 66.1098 517.315 64.4432L522.077 64.1932C522.221 64.8977 522.569 65.4356 523.122 65.8068C523.675 66.1705 524.384 66.3523 525.247 66.3523C526.096 66.3523 526.777 66.1894 527.293 65.8636C527.815 65.5303 528.08 65.1023 528.088 64.5795C528.08 64.1402 527.895 63.7803 527.531 63.5C527.168 63.2121 526.607 62.9924 525.849 62.8409L522.827 62.2386C521.122 61.8977 519.853 61.3068 519.02 60.4659C518.194 59.625 517.781 58.553 517.781 57.25C517.781 56.1288 518.084 55.1629 518.69 54.3523C519.304 53.5417 520.164 52.9167 521.27 52.4773C522.384 52.0379 523.687 51.8182 525.179 51.8182C527.384 51.8182 529.118 52.2841 530.384 53.2159C531.656 54.1477 532.399 55.4167 532.611 57.0227ZM544.011 69.8409C542.216 69.8409 540.67 69.4773 539.375 68.75C538.087 68.0152 537.095 66.9773 536.398 65.6364C535.701 64.2879 535.352 62.6932 535.352 60.8523C535.352 59.0568 535.701 57.4811 536.398 56.125C537.095 54.7689 538.076 53.7121 539.341 52.9545C540.614 52.197 542.106 51.8182 543.818 51.8182C544.97 51.8182 546.042 52.0038 547.034 52.375C548.034 52.7386 548.905 53.2879 549.648 54.0227C550.398 54.7576 550.981 55.6818 551.398 56.7955C551.814 57.9015 552.023 59.197 552.023 60.6818V62.0114H537.284V59.0114H547.466C547.466 58.3144 547.314 57.697 547.011 57.1591C546.708 56.6212 546.288 56.2008 545.75 55.8977C545.22 55.5871 544.602 55.4318 543.898 55.4318C543.163 55.4318 542.511 55.6023 541.943 55.9432C541.383 56.2765 540.943 56.7273 540.625 57.2955C540.307 57.8561 540.144 58.4811 540.136 59.1705V62.0227C540.136 62.8864 540.295 63.6326 540.614 64.2614C540.939 64.8902 541.398 65.375 541.989 65.7159C542.58 66.0568 543.28 66.2273 544.091 66.2273C544.629 66.2273 545.121 66.1515 545.568 66C546.015 65.8485 546.398 65.6212 546.716 65.3182C547.034 65.0152 547.277 64.6439 547.443 64.2045L551.92 64.5C551.693 65.5758 551.227 66.5152 550.523 67.3182C549.826 68.1136 548.924 68.7348 547.818 69.1818C546.72 69.6212 545.451 69.8409 544.011 69.8409ZM556.25 60.1705C556.25 57.3523 556.625 54.7576 557.375 52.3864C558.133 50.0152 559.288 47.8182 560.841 45.7955H565.466C564.875 46.5455 564.326 47.4621 563.818 48.5455C563.311 49.6212 562.867 50.803 562.489 52.0909C562.11 53.3788 561.814 54.7121 561.602 56.0909C561.39 57.4621 561.284 58.822 561.284 60.1705C561.284 61.9659 561.466 63.7803 561.83 65.6136C562.201 67.4394 562.701 69.1364 563.33 70.7045C563.966 72.2727 564.678 73.5568 565.466 74.5568H560.841C559.288 72.5341 558.133 70.3371 557.375 67.9659C556.625 65.5947 556.25 62.9962 556.25 60.1705ZM576.435 60.1705C576.435 62.9962 576.056 65.5947 575.298 67.9659C574.548 70.3371 573.397 72.5341 571.844 74.5568H567.219C567.81 73.8068 568.359 72.8902 568.866 71.8068C569.374 70.7235 569.817 69.5417 570.196 68.2614C570.575 66.9735 570.87 65.6402 571.082 64.2614C571.295 62.8826 571.401 61.5189 571.401 60.1705C571.401 58.375 571.215 56.5644 570.844 54.7386C570.48 52.9053 569.98 51.2083 569.344 49.6477C568.715 48.0795 568.007 46.7955 567.219 45.7955H571.844C573.397 47.8182 574.548 50.0152 575.298 52.3864C576.056 54.7576 576.435 57.3523 576.435 60.1705Z" fill="white"/>
<path d="M409.114 100.5V83.0455H415.216C416.432 83.0455 417.435 83.2557 418.224 83.6761C419.014 84.0909 419.602 84.6506 419.989 85.3551C420.375 86.054 420.568 86.8295 420.568 87.6818C420.568 88.4318 420.435 89.0511 420.168 89.5398C419.906 90.0284 419.56 90.4148 419.128 90.6989C418.702 90.983 418.239 91.1932 417.739 91.3295V91.5C418.273 91.5341 418.81 91.7216 419.349 92.0625C419.889 92.4034 420.341 92.892 420.705 93.5284C421.068 94.1648 421.25 94.9432 421.25 95.8636C421.25 96.7386 421.051 97.5256 420.653 98.2244C420.256 98.9233 419.628 99.4773 418.77 99.8864C417.912 100.295 416.795 100.5 415.42 100.5H409.114ZM411.227 98.625H415.42C416.801 98.625 417.781 98.358 418.361 97.8239C418.946 97.2841 419.239 96.6307 419.239 95.8636C419.239 95.2727 419.088 94.7273 418.787 94.2273C418.486 93.7216 418.057 93.3182 417.5 93.017C416.943 92.7102 416.284 92.5568 415.523 92.5568H411.227V98.625ZM411.227 90.7159H415.148C415.784 90.7159 416.358 90.5909 416.869 90.3409C417.386 90.0909 417.795 89.7386 418.097 89.2841C418.403 88.8295 418.557 88.2955 418.557 87.6818C418.557 86.9148 418.29 86.2642 417.756 85.7301C417.222 85.1903 416.375 84.9205 415.216 84.9205H411.227V90.7159ZM425.439 100.5H423.223L429.632 83.0455H431.814L438.223 100.5H436.007L430.791 85.8068H430.655L425.439 100.5ZM426.257 93.6818H435.189V95.5568H426.257V93.6818ZM454.167 88.5H452.053C451.928 87.892 451.71 87.358 451.397 86.8977C451.09 86.4375 450.715 86.0511 450.272 85.7386C449.835 85.4205 449.349 85.1818 448.815 85.0227C448.281 84.8636 447.724 84.7841 447.144 84.7841C446.087 84.7841 445.13 85.0511 444.272 85.5852C443.42 86.1193 442.741 86.9062 442.235 87.946C441.735 88.9858 441.485 90.2614 441.485 91.7727C441.485 93.2841 441.735 94.5597 442.235 95.5994C442.741 96.6392 443.42 97.4261 444.272 97.9602C445.13 98.4943 446.087 98.7614 447.144 98.7614C447.724 98.7614 448.281 98.6818 448.815 98.5227C449.349 98.3636 449.835 98.1278 450.272 97.8153C450.715 97.4972 451.09 97.108 451.397 96.6477C451.71 96.1818 451.928 95.6477 452.053 95.0455H454.167C454.008 95.9375 453.718 96.7358 453.298 97.4403C452.877 98.1449 452.354 98.7443 451.729 99.2386C451.104 99.7273 450.403 100.099 449.624 100.355C448.852 100.611 448.025 100.739 447.144 100.739C445.656 100.739 444.332 100.375 443.173 99.6477C442.013 98.9205 441.102 97.8864 440.437 96.5455C439.772 95.2045 439.44 93.6136 439.44 91.7727C439.44 89.9318 439.772 88.3409 440.437 87C441.102 85.6591 442.013 84.625 443.173 83.8977C444.332 83.1705 445.656 82.8068 447.144 82.8068C448.025 82.8068 448.852 82.9347 449.624 83.1903C450.403 83.446 451.104 83.821 451.729 84.3153C452.354 84.804 452.877 85.4006 453.298 86.1051C453.718 86.804 454.008 87.6023 454.167 88.5ZM457.582 100.5V83.0455H459.696V91.7045H459.901L467.741 83.0455H470.503L463.173 90.9205L470.503 100.5H467.946L461.878 92.3864L459.696 94.8409V100.5H457.582ZM473.239 100.5V83.0455H483.773V84.9205H475.352V90.8182H483.227V92.6932H475.352V98.625H483.909V100.5H473.239ZM501.423 83.0455V100.5H499.378L489.866 86.7955H489.696V100.5H487.582V83.0455H489.628L499.173 96.7841H499.344V83.0455H501.423ZM511.039 100.5H505.653V83.0455H511.278C512.971 83.0455 514.42 83.3949 515.624 84.0938C516.829 84.7869 517.752 85.7841 518.394 87.0852C519.036 88.3807 519.357 89.9318 519.357 91.7386C519.357 93.5568 519.033 95.1222 518.386 96.4347C517.738 97.7415 516.795 98.7472 515.556 99.4517C514.317 100.151 512.812 100.5 511.039 100.5ZM507.766 98.625H510.903C512.346 98.625 513.542 98.3466 514.491 97.7898C515.44 97.233 516.147 96.4403 516.613 95.4119C517.079 94.3835 517.312 93.1591 517.312 91.7386C517.312 90.3295 517.082 89.1165 516.621 88.0994C516.161 87.0767 515.474 86.2926 514.559 85.7472C513.644 85.196 512.505 84.9205 511.141 84.9205H507.766V98.625Z" fill="white"/>
</g>
<rect x="370" y="9.5" width="340" height="126" rx="22" stroke="#CFCFE7" stroke-opacity="0.1" stroke-width="2"/>
<g clip-path="url(#clip2_766_51)">
<rect x="729" y="8.5" width="342" height="128" rx="23" fill="#1F1F24"/>
<g opacity="0.6">
<ellipse opacity="0.7" cx="1135.5" cy="-43.5" rx="347.5" ry="281" fill="url(#paint4_radial_766_51)"/>
<ellipse opacity="0.7" cx="774.851" cy="419.266" rx="300.101" ry="490.769" transform="rotate(29.0906 774.851 419.266)" fill="url(#paint5_radial_766_51)"/>
</g>
<path d="M768.932 69.5V52.0455H773.625V55.0909H773.807C774.125 54.0076 774.659 53.1894 775.409 52.6364C776.159 52.0758 777.023 51.7955 778 51.7955C778.242 51.7955 778.504 51.8106 778.784 51.8409C779.064 51.8712 779.311 51.9129 779.523 51.9659V56.2614C779.295 56.1932 778.981 56.1326 778.58 56.0795C778.178 56.0265 777.811 56 777.477 56C776.765 56 776.129 56.1553 775.568 56.4659C775.015 56.7689 774.576 57.1932 774.25 57.7386C773.932 58.2841 773.773 58.9129 773.773 59.625V69.5H768.932ZM789.168 69.8409C787.372 69.8409 785.827 69.4773 784.531 68.75C783.243 68.0152 782.251 66.9773 781.554 65.6364C780.857 64.2879 780.509 62.6932 780.509 60.8523C780.509 59.0568 780.857 57.4811 781.554 56.125C782.251 54.7689 783.232 53.7121 784.497 52.9545C785.77 52.197 787.262 51.8182 788.974 51.8182C790.126 51.8182 791.198 52.0038 792.19 52.375C793.19 52.7386 794.062 53.2879 794.804 54.0227C795.554 54.7576 796.137 55.6818 796.554 56.7955C796.971 57.9015 797.179 59.197 797.179 60.6818V62.0114H782.44V59.0114H792.622C792.622 58.3144 792.471 57.697 792.168 57.1591C791.865 56.6212 791.444 56.2008 790.906 55.8977C790.376 55.5871 789.759 55.4318 789.054 55.4318C788.319 55.4318 787.668 55.6023 787.099 55.9432C786.539 56.2765 786.099 56.7273 785.781 57.2955C785.463 57.8561 785.3 58.4811 785.293 59.1705V62.0227C785.293 62.8864 785.452 63.6326 785.77 64.2614C786.096 64.8902 786.554 65.375 787.145 65.7159C787.736 66.0568 788.437 66.2273 789.247 66.2273C789.785 66.2273 790.277 66.1515 790.724 66C791.171 65.8485 791.554 65.6212 791.872 65.3182C792.19 65.0152 792.433 64.6439 792.599 64.2045L797.077 64.5C796.849 65.5758 796.384 66.5152 795.679 67.3182C794.982 68.1136 794.08 68.7348 792.974 69.1818C791.876 69.6212 790.607 69.8409 789.168 69.8409ZM805.179 59.4091V69.5H800.338V52.0455H804.952V55.125H805.156C805.543 54.1098 806.19 53.3068 807.099 52.7159C808.009 52.1174 809.111 51.8182 810.406 51.8182C811.618 51.8182 812.675 52.0833 813.577 52.6136C814.478 53.1439 815.179 53.9015 815.679 54.8864C816.179 55.8636 816.429 57.0303 816.429 58.3864V69.5H811.588V59.25C811.596 58.1818 811.323 57.3485 810.77 56.75C810.217 56.1439 809.455 55.8409 808.486 55.8409C807.834 55.8409 807.259 55.9811 806.759 56.2614C806.266 56.5417 805.88 56.9508 805.599 57.4886C805.327 58.0189 805.187 58.6591 805.179 59.4091ZM826.676 69.7841C825.35 69.7841 824.15 69.4432 823.074 68.7614C822.006 68.072 821.157 67.0606 820.528 65.7273C819.907 64.3864 819.597 62.7424 819.597 60.7955C819.597 58.7955 819.919 57.1326 820.562 55.8068C821.206 54.4735 822.063 53.4773 823.131 52.8182C824.206 52.1515 825.384 51.8182 826.665 51.8182C827.642 51.8182 828.456 51.9848 829.108 52.3182C829.767 52.6439 830.297 53.053 830.699 53.5455C831.108 54.0303 831.419 54.5076 831.631 54.9773H831.778V46.2273H836.608V69.5H831.835V66.7045H831.631C831.403 67.1894 831.081 67.6705 830.665 68.1477C830.256 68.6174 829.722 69.0076 829.062 69.3182C828.411 69.6288 827.616 69.7841 826.676 69.7841ZM828.21 65.9318C828.991 65.9318 829.65 65.7197 830.188 65.2955C830.733 64.8636 831.15 64.2614 831.438 63.4886C831.733 62.7159 831.881 61.8106 831.881 60.7727C831.881 59.7348 831.737 58.8333 831.449 58.0682C831.161 57.303 830.744 56.7121 830.199 56.2955C829.653 55.8788 828.991 55.6705 828.21 55.6705C827.415 55.6705 826.744 55.8864 826.199 56.3182C825.653 56.75 825.241 57.3485 824.96 58.1136C824.68 58.8788 824.54 59.7652 824.54 60.7727C824.54 61.7879 824.68 62.6856 824.96 63.4659C825.248 64.2386 825.661 64.8447 826.199 65.2841C826.744 65.7159 827.415 65.9318 828.21 65.9318ZM848.543 69.8409C846.747 69.8409 845.202 69.4773 843.906 68.75C842.618 68.0152 841.626 66.9773 840.929 65.6364C840.232 64.2879 839.884 62.6932 839.884 60.8523C839.884 59.0568 840.232 57.4811 840.929 56.125C841.626 54.7689 842.607 53.7121 843.872 52.9545C845.145 52.197 846.637 51.8182 848.349 51.8182C849.501 51.8182 850.573 52.0038 851.565 52.375C852.565 52.7386 853.437 53.2879 854.179 54.0227C854.929 54.7576 855.512 55.6818 855.929 56.7955C856.346 57.9015 856.554 59.197 856.554 60.6818V62.0114H841.815V59.0114H851.997C851.997 58.3144 851.846 57.697 851.543 57.1591C851.24 56.6212 850.819 56.2008 850.281 55.8977C849.751 55.5871 849.134 55.4318 848.429 55.4318C847.694 55.4318 847.043 55.6023 846.474 55.9432C845.914 56.2765 845.474 56.7273 845.156 57.2955C844.838 57.8561 844.675 58.4811 844.668 59.1705V62.0227C844.668 62.8864 844.827 63.6326 845.145 64.2614C845.471 64.8902 845.929 65.375 846.52 65.7159C847.111 66.0568 847.812 66.2273 848.622 66.2273C849.16 66.2273 849.652 66.1515 850.099 66C850.546 65.8485 850.929 65.6212 851.247 65.3182C851.565 65.0152 851.808 64.6439 851.974 64.2045L856.452 64.5C856.224 65.5758 855.759 66.5152 855.054 67.3182C854.357 68.1136 853.455 68.7348 852.349 69.1818C851.251 69.6212 849.982 69.8409 848.543 69.8409ZM859.713 69.5V52.0455H864.406V55.0909H864.588C864.906 54.0076 865.44 53.1894 866.19 52.6364C866.94 52.0758 867.804 51.7955 868.781 51.7955C869.024 51.7955 869.285 51.8106 869.565 51.8409C869.846 51.8712 870.092 51.9129 870.304 51.9659V56.2614C870.077 56.1932 869.762 56.1326 869.361 56.0795C868.959 56.0265 868.592 56 868.259 56C867.546 56 866.91 56.1553 866.349 56.4659C865.796 56.7689 865.357 57.1932 865.031 57.7386C864.713 58.2841 864.554 58.9129 864.554 59.625V69.5H859.713ZM873.875 60.1705C873.875 57.3523 874.25 54.7576 875 52.3864C875.758 50.0152 876.913 47.8182 878.466 45.7955H883.091C882.5 46.5455 881.951 47.4621 881.443 48.5455C880.936 49.6212 880.492 50.803 880.114 52.0909C879.735 53.3788 879.439 54.7121 879.227 56.0909C879.015 57.4621 878.909 58.822 878.909 60.1705C878.909 61.9659 879.091 63.7803 879.455 65.6136C879.826 67.4394 880.326 69.1364 880.955 70.7045C881.591 72.2727 882.303 73.5568 883.091 74.5568H878.466C876.913 72.5341 875.758 70.3371 875 67.9659C874.25 65.5947 873.875 62.9962 873.875 60.1705ZM894.06 60.1705C894.06 62.9962 893.681 65.5947 892.923 67.9659C892.173 70.3371 891.022 72.5341 889.469 74.5568H884.844C885.435 73.8068 885.984 72.8902 886.491 71.8068C886.999 70.7235 887.442 69.5417 887.821 68.2614C888.2 66.9735 888.495 65.6402 888.707 64.2614C888.92 62.8826 889.026 61.5189 889.026 60.1705C889.026 58.375 888.84 56.5644 888.469 54.7386C888.105 52.9053 887.605 51.2083 886.969 49.6477C886.34 48.0795 885.632 46.7955 884.844 45.7955H889.469C891.022 47.8182 892.173 50.0152 892.923 52.3864C893.681 54.7576 894.06 57.3523 894.06 60.1705Z" fill="white"/>
<path d="M769.114 100.5V83.0455H779.58V84.9205H771.227V90.8182H778.795V92.6932H771.227V100.5H769.114ZM783.2 100.5V83.0455H789.097C790.461 83.0455 791.58 83.2784 792.455 83.7443C793.33 84.2045 793.978 84.8381 794.398 85.6449C794.819 86.4517 795.029 87.3693 795.029 88.3977C795.029 89.4261 794.819 90.3381 794.398 91.1335C793.978 91.929 793.333 92.554 792.464 93.0085C791.594 93.4574 790.484 93.6818 789.131 93.6818H784.359V91.7727H789.063C789.995 91.7727 790.745 91.6364 791.313 91.3636C791.887 91.0909 792.302 90.7045 792.558 90.2045C792.819 89.6989 792.95 89.0966 792.95 88.3977C792.95 87.6989 792.819 87.0881 792.558 86.5653C792.296 86.0426 791.879 85.6392 791.305 85.3551C790.731 85.0653 789.972 84.9205 789.029 84.9205H785.313V100.5H783.2ZM791.415 92.6591L795.711 100.5H793.256L789.029 92.6591H791.415ZM813.278 91.7727C813.278 93.6136 812.946 95.2045 812.281 96.5455C811.616 97.8864 810.705 98.9205 809.545 99.6477C808.386 100.375 807.063 100.739 805.574 100.739C804.085 100.739 802.761 100.375 801.602 99.6477C800.443 98.9205 799.531 97.8864 798.866 96.5455C798.202 95.2045 797.869 93.6136 797.869 91.7727C797.869 89.9318 798.202 88.3409 798.866 87C799.531 85.6591 800.443 84.625 801.602 83.8977C802.761 83.1705 804.085 82.8068 805.574 82.8068C807.063 82.8068 808.386 83.1705 809.545 83.8977C810.705 84.625 811.616 85.6591 812.281 87C812.946 88.3409 813.278 89.9318 813.278 91.7727ZM811.233 91.7727C811.233 90.2614 810.98 88.9858 810.474 87.946C809.974 86.9062 809.295 86.1193 808.438 85.5852C807.585 85.0511 806.631 84.7841 805.574 84.7841C804.517 84.7841 803.56 85.0511 802.702 85.5852C801.849 86.1193 801.17 86.9062 800.665 87.946C800.165 88.9858 799.915 90.2614 799.915 91.7727C799.915 93.2841 800.165 94.5597 800.665 95.5994C801.17 96.6392 801.849 97.4261 802.702 97.9602C803.56 98.4943 804.517 98.7614 805.574 98.7614C806.631 98.7614 807.585 98.4943 808.438 97.9602C809.295 97.4261 809.974 96.6392 810.474 95.5994C810.98 94.5597 811.233 93.2841 811.233 91.7727ZM830.673 83.0455V100.5H828.628L819.116 86.7955H818.946V100.5H816.832V83.0455H818.878L828.423 96.7841H828.594V83.0455H830.673ZM833.948 84.9205V83.0455H847.039V84.9205H841.55V100.5H839.437V84.9205H833.948ZM850.301 100.5V83.0455H860.835V84.9205H852.415V90.8182H860.29V92.6932H852.415V98.625H860.972V100.5H850.301ZM878.486 83.0455V100.5H876.44L866.929 86.7955H866.759V100.5H864.645V83.0455H866.69L876.236 96.7841H876.406V83.0455H878.486ZM888.102 100.5H882.715V83.0455H888.34C890.033 83.0455 891.482 83.3949 892.687 84.0938C893.891 84.7869 894.815 85.7841 895.457 87.0852C896.099 88.3807 896.42 89.9318 896.42 91.7386C896.42 93.5568 896.096 95.1222 895.448 96.4347C894.8 97.7415 893.857 98.7472 892.619 99.4517C891.38 100.151 889.874 100.5 888.102 100.5ZM884.829 98.625H887.965C889.408 98.625 890.604 98.3466 891.553 97.7898C892.502 97.233 893.21 96.4403 893.675 95.4119C894.141 94.3835 894.374 93.1591 894.374 91.7386C894.374 90.3295 894.144 89.1165 893.684 88.0994C893.224 87.0767 892.536 86.2926 891.621 85.7472C890.707 85.196 889.567 84.9205 888.204 84.9205H884.829V98.625Z" fill="white"/>
</g>
<rect x="730" y="9.5" width="340" height="126" rx="22" stroke="#CFCFE7" stroke-opacity="0.1" stroke-width="2"/>
<path d="M343.84 96.715C344.244 96.9254 344.698 97.0216 345.153 96.9934C345.608 96.9652 346.047 96.8137 346.422 96.555L378.923 74.055C379.255 73.8249 379.526 73.5178 379.713 73.1599C379.901 72.802 379.999 72.404 379.999 72C379.999 71.596 379.901 71.198 379.713 70.8401C379.526 70.4822 379.255 70.1751 378.923 69.945L346.422 47.445C346.047 47.1855 345.609 47.0335 345.153 47.0056C344.698 46.9776 344.244 47.0747 343.84 47.2864C343.436 47.498 343.097 47.8162 342.861 48.2064C342.625 48.5966 342.5 49.0439 342.5 49.5V94.5C342.5 94.9564 342.625 95.404 342.861 95.7945C343.097 96.1849 343.436 96.5033 343.84 96.715Z" fill="#F4F4F4"/>
<path d="M702.84 96.715C703.244 96.9254 703.698 97.0216 704.153 96.9934C704.608 96.9652 705.047 96.8137 705.422 96.555L737.923 74.055C738.255 73.8249 738.526 73.5178 738.713 73.1599C738.901 72.802 738.999 72.404 738.999 72C738.999 71.596 738.901 71.198 738.713 70.8401C738.526 70.4822 738.255 70.1751 737.923 69.945L705.422 47.445C705.047 47.1855 704.609 47.0335 704.153 47.0056C703.698 46.9776 703.244 47.0747 702.84 47.2864C702.436 47.498 702.097 47.8162 701.861 48.2064C701.625 48.5966 701.5 49.0439 701.5 49.5V94.5C701.5 94.9564 701.625 95.404 701.861 95.7945C702.097 96.1849 702.436 96.5033 702.84 96.715Z" fill="#F4F4F4"/>
</g>
<defs>
<filter id="filter0_b_766_51" x="-10" y="-10" width="1100" height="165" filterUnits="userSpaceOnUse" color-interpolation-filters="sRGB">
<feFlood flood-opacity="0" result="BackgroundImageFix"/>
<feGaussianBlur in="BackgroundImageFix" stdDeviation="5"/>
<feComposite in2="SourceAlpha" operator="in" result="effect1_backgroundBlur_766_51"/>
<feBlend mode="normal" in="SourceGraphic" in2="effect1_backgroundBlur_766_51" result="shape"/>
</filter>
<radialGradient id="paint0_radial_766_51" cx="0" cy="0" r="1" gradientUnits="userSpaceOnUse" gradientTransform="translate(415.5 -43.5) rotate(90) scale(281 347.5)">
<stop stop-color="#AF71FF"/>
<stop offset="1" stop-color="#4C3F78" stop-opacity="0"/>
</radialGradient>
<radialGradient id="paint1_radial_766_51" cx="0" cy="0" r="1" gradientUnits="userSpaceOnUse" gradientTransform="translate(54.8513 419.266) rotate(90) scale(490.769 300.101)">
<stop stop-color="#AF71FF"/>
<stop offset="1" stop-color="#4C3F78" stop-opacity="0"/>
</radialGradient>
<radialGradient id="paint2_radial_766_51" cx="0" cy="0" r="1" gradientUnits="userSpaceOnUse" gradientTransform="translate(775.5 -43.5) rotate(90) scale(281 347.5)">
<stop stop-color="#AF71FF"/>
<stop offset="1" stop-color="#4C3F78" stop-opacity="0"/>
</radialGradient>
<radialGradient id="paint3_radial_766_51" cx="0" cy="0" r="1" gradientUnits="userSpaceOnUse" gradientTransform="translate(414.851 419.266) rotate(90) scale(490.769 300.101)">
<stop stop-color="#AF71FF"/>
<stop offset="1" stop-color="#4C3F78" stop-opacity="0"/>
</radialGradient>
<radialGradient id="paint4_radial_766_51" cx="0" cy="0" r="1" gradientUnits="userSpaceOnUse" gradientTransform="translate(1135.5 -43.5) rotate(90) scale(281 347.5)">
<stop stop-color="#AF71FF"/>
<stop offset="1" stop-color="#4C3F78" stop-opacity="0"/>
</radialGradient>
<radialGradient id="paint5_radial_766_51" cx="0" cy="0" r="1" gradientUnits="userSpaceOnUse" gradientTransform="translate(774.851 419.266) rotate(90) scale(490.769 300.101)">
<stop stop-color="#AF71FF"/>
<stop offset="1" stop-color="#4C3F78" stop-opacity="0"/>
</radialGradient>
<clipPath id="clip0_766_51">
<rect x="9" y="8.5" width="342" height="128" rx="23" fill="white"/>
</clipPath>
<clipPath id="clip1_766_51">
<rect x="369" y="8.5" width="342" height="128" rx="23" fill="white"/>
</clipPath>
<clipPath id="clip2_766_51">
<rect x="729" y="8.5" width="342" height="128" rx="23" fill="white"/>
</clipPath>
</defs>
</svg>
